<svg id="Capa_1" data-name="Capa 1" xmlns="http://www.w3.org/2000/svg" viewBox="0 0 55 30"><defs><style>.cls-1{fill:#b8b8b8;}</style></defs><title>ornamneto-right</title><path class="cls-1" d="M2.57,12.06a7.58,7.58,0,0,0,4.06,1.88,6.69,6.69,0,0,0,.69,1.26c.39.49.9,1,.78,1.71a.21.21,0,0,0,.4.1,4.37,4.37,0,0,0,.44-1.23,1.86,1.86,0,0,0-.35-1.13A2.48,2.48,0,0,0,8,14.09,21.92,21.92,0,0,0,11,14a35.38,35.38,0,0,1,5.06-.26,24.55,24.55,0,0,1,4.6,1,10.16,10.16,0,0,0,1,.2l.06,0c.91.43,2.65,1.4,2.65,2.62a8.14,8.14,0,0,0-4.46,1.21c-1.72,1.08-2.09,3.07-1.62,5,0,.16.27.27.38.09,1-1.66,2.79-1.8,4.22-2.87a4.9,4.9,0,0,0,1.86-3.16.2.2,0,0,0,0-.1c.09-1.17-1-2.09-2.05-2.7a19.17,19.17,0,0,0,4.77-.5l0,0c1.37.49,1.27,2.24,2.13,3.21A5.12,5.12,0,0,0,32.26,19a4.87,4.87,0,0,0,2.3,3.13c1.46.83,3,.95,4,2.45.11.16.34.05.37-.11.69-3.81-3.57-5.08-6.45-5.83A10.37,10.37,0,0,1,31,18.18a3,3,0,0,1-1.6-1.86,3.8,3.8,0,0,0-1.18-1.87l1.24-.26a15.68,15.68,0,0,1,4.83-.39,27.61,27.61,0,0,1,4.47,1,24.4,24.4,0,0,0,2.67.61h0A14.68,14.68,0,0,1,44,19.48,5.34,5.34,0,0,0,45.87,22a7.22,7.22,0,0,0,3,.87c.26,0,.3-.3.1-.4-2-1.1-1.9-3.59-3.19-5.22a5.5,5.5,0,0,0-2.26-1.61,10.48,10.48,0,0,0,3.21-.46h0a5.22,5.22,0,0,0,3.2-2c.9-1.2,1.3-2.71,2.46-3.71.15-.13.05-.42-.16-.37a7.15,7.15,0,0,0-3.49,2,8.5,8.5,0,0,0-1.37,1.81,15,15,0,0,1-1.07,1.93l0,0a10.67,10.67,0,0,1-4.77.22c-1.64-.28-3.23-.83-4.84-1.23a14.77,14.77,0,0,0-3.79-.52,13.74,13.74,0,0,0-1.46.1,15.67,15.67,0,0,1,4-2.48,11,11,0,0,1,2.66-.73,6.29,6.29,0,0,1,2.39,0,.83.83,0,0,0,.27.73.76.76,0,0,0,1,.07.73.73,0,0,0-.06-1l0,0,0,0a.76.76,0,0,0-1-.07A5.18,5.18,0,0,0,39,9.71a10.74,10.74,0,0,0-2.68.49,4.36,4.36,0,0,0,1-1.41,2.71,2.71,0,0,0,0-1.95c-.24-.62-.81-1-1.21-1.48-.14-.18-.48,0-.36.21a3.22,3.22,0,0,1-.2,2.78,6.11,6.11,0,0,0-.36,1.46c0,.26,0,.55,0,.81a16.66,16.66,0,0,0-4.42,2.85l0,0c-.72.12-1.43.27-2.14.42a31.4,31.4,0,0,1-4.2.74A13.19,13.19,0,0,1,19.55,14a15.36,15.36,0,0,0-4.14-.7c-.39,0-.78,0-1.17,0a2.34,2.34,0,0,0,.27-.21,3.24,3.24,0,0,0,1.05-1.83,5.38,5.38,0,0,0-.45-3.06.19.19,0,0,0-.17-.12.18.18,0,0,0-.21.11v0c-.11.29-.35.56-.49.84a5.94,5.94,0,0,0-.53,1.79,3.52,3.52,0,0,1-1.43,2.58l0,0L11,13.6c-2.82.23-5.95.17-8.14-1.88C2.62,11.54,2.38,11.88,2.57,12.06Zm33-1.79a4.53,4.53,0,0,1,0-.62c.12-.79.52-1.46.69-2.23a3.59,3.59,0,0,0,.07-1.17,2.25,2.25,0,0,1,.49.65A2.34,2.34,0,0,1,36.68,9,4.68,4.68,0,0,1,35.6,10.28Zm11.53,4.34a.21.21,0,0,0-.13,0h0a25.9,25.9,0,0,1,1.66-2.78,7.05,7.05,0,0,1,3-2.14,13.72,13.72,0,0,0-1.32,2.17A5.25,5.25,0,0,1,47.13,14.62ZM44,18.22a12.21,12.21,0,0,0-1.84-2.61,6.9,6.9,0,0,1,2.35,1,4.85,4.85,0,0,1,1.8,2.49,7.93,7.93,0,0,0,1.8,3.2,4.49,4.49,0,0,1-2.53-1.14A10,10,0,0,1,44,18.22Zm-11.24,1c2.53.67,6.06,1.77,5.9,4.78A6,6,0,0,0,36,22.33,4.81,4.81,0,0,1,32.72,19.17Zm-8.41-1.12a4.65,4.65,0,0,1-2.89,3.34,6.49,6.49,0,0,0-2.79,1.87,5.5,5.5,0,0,1,0-2.06,3.37,3.37,0,0,1,2.07-2.33A7.86,7.86,0,0,1,24.32,18.05ZM13.06,13.33a3.88,3.88,0,0,0,.9-1.59,15.18,15.18,0,0,1,.57-2.31,5.37,5.37,0,0,1,.36-.61,5.29,5.29,0,0,1,.31,1.87,2.88,2.88,0,0,1-1,2.11A2.27,2.27,0,0,1,13.06,13.33Zm-5.91.77a3,3,0,0,1,.8.48,1.46,1.46,0,0,1,.53,1.48l0,.09a2.64,2.64,0,0,0-.27-.58c-.28-.44-.68-.78-.92-1.25A2.15,2.15,0,0,1,7.14,14.1Z"/></svg>