<svg id="Capa_1" data-name="Capa 1" xmlns="http://www.w3.org/2000/svg" viewBox="0 0 56.09 35.38"><defs><style>.cls-1{fill:#fff;}.cls-2{fill:#ededed;}.cls-3{fill:#359ad5;}</style></defs><title>Mesa de trabajo 1</title><rect class="cls-1" x="0.54" y="0.5" width="55" height="34.37" rx="1.83" ry="1.83"/><path class="cls-2" d="M53.71,35.38H2.38A2.34,2.34,0,0,1,0,33V2.33A2.34,2.34,0,0,1,2.38,0H53.71A2.34,2.34,0,0,1,56,2.33V33A2.34,2.34,0,0,1,53.71,35.38ZM2.38,1A1.34,1.34,0,0,0,1,2.33V33a1.33,1.33,0,0,0,1.33,1.33H53.71A1.33,1.33,0,0,0,55,33V2.33A1.33,1.33,0,0,0,53.71,1Z"/><path class="cls-3" d="M21.7,16.19,22,14.56H20.69V12.41L18.46,13l-.32,1.61H17.2v1.63h.94v3.57a1.8,1.8,0,0,0,2.08,2.06A9.66,9.66,0,0,0,22,21.59V19.78c-.19,0-.75.11-.91.11s-.43-.09-.43-.58V16.19Z"/><path class="cls-3" d="M15.42,17.32l-.27-.12c-.44-.2-.63-.3-.63-.58s.23-.35.54-.35a6.62,6.62,0,0,1,1.6.28V14.77a5.11,5.11,0,0,0-1.88-.34c-1.25,0-2.74.42-2.74,2.32a2.15,2.15,0,0,0,1.46,2.07l.32.15c.42.19.6.31.6.58s-.3.4-.69.4a9,9,0,0,1-1.6-.31v1.84a7.37,7.37,0,0,0,2,.34c1.14,0,2.74-.27,2.74-2.42A2.12,2.12,0,0,0,15.42,17.32Z"/><path class="cls-3" d="M25,15.25l-.38-.69h-2v7.12h2.55V16.81a1.67,1.67,0,0,1,.85-.24,3.78,3.78,0,0,1,.94.13V14.58a1.75,1.75,0,0,0-.79-.15A1.18,1.18,0,0,0,25,15.25Z"/><path class="cls-3" d="M28.79,13.69a1.28,1.28,0,1,0-1.26-1.28A1.26,1.26,0,0,0,28.79,13.69Z"/><rect class="cls-3" x="27.51" y="14.56" width="2.55" height="7.12"/><path class="cls-3" d="M44.05,18.12c0-2.85-1.2-3.69-2.85-3.69s-3.14.71-3.14,3.72c0,3.41,1.95,3.67,3.55,3.67a6.93,6.93,0,0,0,2.08-.36V19.6a12.81,12.81,0,0,1-2.08.28c-.63,0-1-.15-1-.91h3.45Zm-3.45-.54c0-.85,0-1.64.6-1.64.47,0,.47.69.47,1.64Z"/><path class="cls-3" d="M35.11,14.43a2.31,2.31,0,0,0-1.52.58l-.38-.44H31.14v9.67h2.55V21.67a4.19,4.19,0,0,0,.9.15c.94,0,2.79-.05,2.79-3.73C37.39,14.73,36.15,14.43,35.11,14.43Zm-1,5.6a1.76,1.76,0,0,1-.43-.07V16.53a1.64,1.64,0,0,1,.6-.22c.42,0,.54.17.54,1.77S34.57,20,34.12,20Z"/></svg>