<svg id="Capa_1" data-name="Capa 1" xmlns="http://www.w3.org/2000/svg" viewBox="0 0 56.09 35.38"><defs><style>.cls-1{fill:#fff;}.cls-2{fill:#ededed;}.cls-3{fill:#f58220;}.cls-4{fill:#001722;}.cls-5{fill:#231f20;}</style></defs><title>Mesa de trabajo 1</title><rect class="cls-1" x="0.54" y="0.5" width="55" height="34.38" rx="1.83" ry="1.83"/><path class="cls-2" d="M53.71,35.38H2.38A2.34,2.34,0,0,1,0,33V2.33A2.34,2.34,0,0,1,2.38,0H53.71A2.34,2.34,0,0,1,56,2.33V33A2.34,2.34,0,0,1,53.71,35.38ZM2.38,1A1.34,1.34,0,0,0,1,2.33V33a1.34,1.34,0,0,0,1.33,1.33H53.71A1.34,1.34,0,0,0,55,33V2.33A1.34,1.34,0,0,0,53.71,1Z"/><path class="cls-3" d="M15.13,34.38h38A1.83,1.83,0,0,0,55,32.54V19.67C51.36,22,37.59,30,15.13,34.38Z"/><path class="cls-3" d="M28.72,15A2.7,2.7,0,0,0,26,17.65,2.74,2.74,0,1,0,28.72,15Z"/><path class="cls-4" d="M13.13,15.11H11.66v5.15h1.47A2.69,2.69,0,0,0,15,19.66a2.59,2.59,0,0,0,.93-2A2.56,2.56,0,0,0,13.13,15.11ZM14.31,19a1.9,1.9,0,0,1-1.37.41h-.27V16h.27a1.86,1.86,0,0,1,1.37.42,1.73,1.73,0,0,1,.55,1.28A1.76,1.76,0,0,1,14.31,19Z"/><rect class="cls-4" x="16.36" y="15.11" width="1" height="5.15"/><path class="cls-4" d="M19.82,17.08c-.6-.22-.78-.37-.78-.65s.31-.57.75-.57a1,1,0,0,1,.81.42l.52-.69A2.25,2.25,0,0,0,19.61,15,1.51,1.51,0,0,0,18,16.49c0,.71.32,1.07,1.27,1.41a3.93,3.93,0,0,1,.69.29.62.62,0,0,1,.3.53.73.73,0,0,1-.78.73,1.19,1.19,0,0,1-1.1-.69l-.65.63a2,2,0,0,0,1.78,1,1.66,1.66,0,0,0,1.77-1.69C21.3,17.87,21,17.5,19.82,17.08Z"/><path class="cls-4" d="M21.62,17.68a2.67,2.67,0,0,0,2.72,2.69,2.76,2.76,0,0,0,1.26-.3V18.89a1.61,1.61,0,0,1-1.21.56,1.68,1.68,0,0,1-1.73-1.78,1.71,1.71,0,0,1,1.68-1.77,1.68,1.68,0,0,1,1.26.58V15.31A2.56,2.56,0,0,0,24.36,15,2.71,2.71,0,0,0,21.62,17.68Z"/><polygon class="cls-4" points="33.73 18.56 32.35 15.11 31.25 15.11 33.44 20.39 33.98 20.39 36.2 15.11 35.12 15.11 33.73 18.56"/><polygon class="cls-4" points="36.66 20.25 39.51 20.25 39.51 19.38 37.66 19.38 37.66 17.99 39.44 17.99 39.44 17.12 37.66 17.12 37.66 15.98 39.51 15.98 39.51 15.11 36.66 15.11 36.66 20.25"/><path class="cls-4" d="M43.48,16.63c0-1-.66-1.52-1.82-1.52H40.17v5.15h1V18.18h.13l1.39,2.07h1.23l-1.62-2.17A1.37,1.37,0,0,0,43.48,16.63Zm-2,.85h-.29V15.92h.31c.63,0,1,.26,1,.76S42.11,17.47,41.47,17.47Z"/><path class="cls-5" d="M44.19,15.49c0-.09-.06-.14-.17-.14h-.15v.45H44v-.18l.13.18h.13l-.15-.19A.12.12,0,0,0,44.19,15.49Zm-.19.06h0v-.12h0c.05,0,.08,0,.08.06S44.05,15.55,44,15.55Z"/><path class="cls-5" d="M44,15.18a.4.4,0,1,0,.39.4A.39.39,0,0,0,44,15.18Zm0,.72a.32.32,0,1,1,.31-.32A.32.32,0,0,1,44,15.9Z"/></svg>