<?xml version="1.0" encoding="utf-8"?>
<!-- Generator: Adobe Illustrator 21.0.0, SVG Export Plug-In . SVG Version: 6.00 Build 0)  -->
<svg version="1.1" id="Capa_1" xmlns="http://www.w3.org/2000/svg" xmlns:xlink="http://www.w3.org/1999/xlink" x="0px" y="0px"
	 viewBox="0 0 56.1 35.4" style="enable-background:new 0 0 56.1 35.4;" xml:space="preserve">
<g>
	<path style="fill:#FFFFFF;stroke:#EDEDED;stroke-miterlimit:10;" d="M1677.1,1582.3c0,1-0.8,1.8-1.8,1.8h-51.3
		c-1,0-1.8-0.8-1.8-1.8v-30.7c0-1,0.8-1.8,1.8-1.8h51.3c1,0,1.8,0.8,1.8,1.8V1582.3z"/>
	<g>
		<g>
			<polygon style="fill:#0066B2;" points="1647.4,1572.1 1644.7,1572.1 1646.4,1561.8 1649.1,1561.8 			"/>
			<path style="fill:#0066B2;" d="M1642.5,1561.8l-2.6,7.1l-0.3-1.5v0l-0.9-4.6c0,0-0.1-0.9-1.3-0.9h-4.2l0,0.2c0,0,1.3,0.3,2.8,1.2
				l2.3,9h2.8l4.3-10.3H1642.5z"/>
			<path style="fill:#0066B2;" d="M1663.6,1572.1h2.5l-2.2-10.3h-2.2c-1,0-1.2,0.8-1.2,0.8l-4,9.6h2.8l0.6-1.5h3.4L1663.6,1572.1z
				 M1660.6,1568.4l1.4-3.9l0.8,3.9H1660.6z"/>
			<path style="fill:#0066B2;" d="M1656.7,1564.2l0.4-2.2c0,0-1.2-0.4-2.4-0.4c-1.3,0-4.5,0.6-4.5,3.4c0,2.7,3.7,2.7,3.7,4.1
				c0,1.4-3.3,1.2-4.4,0.3l-0.4,2.3c0,0,1.2,0.6,3,0.6c1.8,0,4.6-0.9,4.6-3.5c0-2.7-3.7-2.9-3.7-4.1
				C1652.9,1563.5,1655.6,1563.6,1656.7,1564.2z"/>
		</g>
		<path style="fill:#F9A533;" d="M1639.6,1567.3l-0.9-4.6c0,0-0.1-0.9-1.3-0.9h-4.2l0,0.2c0,0,2,0.4,4,2
			C1639,1565.4,1639.6,1567.3,1639.6,1567.3z"/>
	</g>
</g>
<g>
	<g>
		<path style="fill:#FFFFFF;" d="M55.6,33c0,1-0.8,1.8-1.8,1.8H2.4c-1,0-1.8-0.8-1.8-1.8V2.3c0-1,0.8-1.8,1.8-1.8h51.3
			c1,0,1.8,0.8,1.8,1.8V33z"/>
		<path style="fill:#EDEDED;" d="M53.8,35.4H2.4c-1.3,0-2.3-1-2.3-2.3V2.3C0.1,1,1.1,0,2.4,0h51.3c1.3,0,2.3,1,2.3,2.3V33
			C56.1,34.3,55,35.4,53.8,35.4z M2.4,1C1.7,1,1.1,1.6,1.1,2.3V33c0,0.7,0.6,1.3,1.3,1.3h51.3c0.7,0,1.3-0.6,1.3-1.3V2.3
			c0-0.7-0.6-1.3-1.3-1.3H2.4z"/>
	</g>
	<g>
		<g>
			<polygon style="fill:#0066B2;" points="25.9,22.9 23.2,22.9 24.9,12.5 27.6,12.5 			"/>
			<path style="fill:#0066B2;" d="M21,12.5l-2.6,7.1l-0.3-1.5v0l-0.9-4.6c0,0-0.1-0.9-1.3-0.9h-4.2l0,0.2c0,0,1.3,0.3,2.8,1.2l2.3,9
				h2.8l4.3-10.3H21z"/>
			<path style="fill:#0066B2;" d="M42.1,22.9h2.5l-2.2-10.3h-2.2c-1,0-1.2,0.8-1.2,0.8l-4,9.6h2.8l0.6-1.5h3.4L42.1,22.9z
				 M39.1,19.2l1.4-3.9l0.8,3.9H39.1z"/>
			<path style="fill:#0066B2;" d="M35.2,15l0.4-2.2c0,0-1.2-0.4-2.4-0.4c-1.3,0-4.5,0.6-4.5,3.4c0,2.7,3.7,2.7,3.7,4.1
				c0,1.4-3.3,1.1-4.4,0.3l-0.4,2.3c0,0,1.2,0.6,3,0.6c1.8,0,4.6-0.9,4.6-3.5c0-2.7-3.7-2.9-3.7-4.1C31.4,14.2,34.1,14.4,35.2,15z"
				/>
		</g>
		<path style="fill:#F9A533;" d="M18.1,18.1l-0.9-4.6c0,0-0.1-0.9-1.3-0.9h-4.2l0,0.2c0,0,2,0.4,4,2C17.5,16.2,18.1,18.1,18.1,18.1z
			"/>
	</g>
</g>
</svg>
