<?xml version="1.0" encoding="utf-8"?>
<!-- Generator: Adobe Illustrator 21.0.0, SVG Export Plug-In . SVG Version: 6.00 Build 0)  -->
<svg version="1.1" id="Capa_1" xmlns="http://www.w3.org/2000/svg" xmlns:xlink="http://www.w3.org/1999/xlink" x="0px" y="0px"
	 viewBox="0 0 56.1 35.4" style="enable-background:new 0 0 56.1 35.4;" xml:space="preserve">
<style type="text/css">
	.st0{fill:#FFFFFF;}
	.st1{fill:#EDEDED;}
	.st2{fill:none;}
	.st3{fill:#FF5F00;}
	.st4{fill:#F79E1B;}
	.st5{fill:#EB001B;}
</style>
<title>Mesa de trabajo 1</title>
<path class="st0" d="M2.4,0.5h51.3c1,0,1.8,0.8,1.8,1.8V33c0,1-0.8,1.8-1.8,1.8H2.4c-1,0-1.8-0.8-1.8-1.8V2.3
	C0.5,1.3,1.4,0.5,2.4,0.5z"/>
<path class="st1" d="M53.7,35.4H2.4c-1.3,0-2.4-1-2.4-2.3c0,0,0-0.1,0-0.1V2.3C0,1,1.1,0,2.3,0c0,0,0,0,0,0h51.3C55,0,56,1.1,56,2.3
	V33C56,34.3,55,35.4,53.7,35.4z M2.4,1C1.6,1,1,1.6,1,2.3c0,0,0,0,0,0V33c0,0.7,0.6,1.3,1.3,1.3c0,0,0,0,0,0h51.4
	c0.7,0,1.3-0.6,1.3-1.3V2.3C55,1.6,54.4,1,53.7,1H2.4z"/>
<path id="_Trazado_compuesto_" d="M18.9,28.8v-1.5c0-0.5-0.3-0.9-0.8-0.9c0,0-0.1,0-0.1,0c-0.3,0-0.7,0.1-0.8,0.4
	c-0.2-0.3-0.5-0.4-0.8-0.4c-0.3,0-0.5,0.1-0.7,0.4v-0.3h-0.5v2.4h0.5v-1.3c0-0.3,0.2-0.6,0.5-0.6c0,0,0.1,0,0.1,0
	c0.3,0,0.5,0.2,0.5,0.6v1.3h0.5v-1.3c0-0.3,0.2-0.6,0.5-0.6c0,0,0.1,0,0.1,0c0.4,0,0.5,0.2,0.5,0.6v1.3L18.9,28.8z M26.6,26.4h-0.8
	v-0.7h-0.5v0.7h-0.5v0.5h0.5v1.1c0,0.5,0.2,0.9,0.8,0.9c0.2,0,0.4-0.1,0.6-0.2l-0.1-0.4c-0.1,0.1-0.3,0.1-0.5,0.1
	c-0.3,0-0.3-0.2-0.3-0.4v-1.1h0.8L26.6,26.4z M31,26.3c-0.3,0-0.5,0.1-0.6,0.3v-0.3h-0.5v2.4h0.5v-1.3c0-0.4,0.2-0.6,0.5-0.6
	c0.1,0,0.2,0,0.3,0.1l0.2-0.5C31.2,26.4,31.1,26.3,31,26.3z M24.4,26.6c-0.3-0.2-0.6-0.3-1-0.2c-0.6,0-1,0.3-1,0.8s0.3,0.6,0.8,0.7
	h0.2c0.3,0,0.4,0.1,0.4,0.2s-0.2,0.3-0.5,0.3c-0.3,0-0.6-0.1-0.8-0.2l-0.2,0.4c0.3,0.2,0.6,0.3,1,0.3c0.7,0,1.1-0.3,1.1-0.8
	s-0.3-0.6-0.8-0.7h-0.2c-0.2,0-0.4-0.1-0.4-0.2s0.2-0.3,0.5-0.3c0.3,0,0.5,0.1,0.7,0.2L24.4,26.6z M38,26.3c-0.3,0-0.5,0.1-0.6,0.3
	v-0.3h-0.5v2.4h0.5v-1.3c0-0.4,0.2-0.6,0.5-0.6c0.1,0,0.2,0,0.3,0.1l0.2-0.5C38.2,26.4,38.1,26.3,38,26.3L38,26.3z M31.4,27.6
	c0,0.7,0.5,1.2,1.1,1.2c0,0,0.1,0,0.1,0c0.3,0,0.6-0.1,0.8-0.3l-0.2-0.4c-0.2,0.1-0.4,0.2-0.6,0.2c-0.4,0-0.8-0.3-0.8-0.8
	c0-0.4,0.3-0.8,0.8-0.8c0.2,0,0.4,0.1,0.6,0.2l0.2-0.4c-0.2-0.2-0.5-0.3-0.8-0.3c-0.7,0-1.2,0.5-1.3,1.1
	C31.4,27.5,31.4,27.5,31.4,27.6L31.4,27.6z M36.2,27.6v-1.2h-0.5v0.3c-0.2-0.2-0.5-0.4-0.7-0.3c-0.7,0.1-1.2,0.7-1.1,1.3
	c0.1,0.6,0.5,1.1,1.1,1.1c0.3,0,0.6-0.1,0.7-0.3v0.3h0.5V27.6z M34.3,27.6c0-0.4,0.4-0.7,0.7-0.7c0.4,0,0.7,0.4,0.7,0.7
	c0,0.4-0.3,0.7-0.7,0.7C34.6,28.3,34.3,28,34.3,27.6C34.3,27.6,34.3,27.6,34.3,27.6z M28.1,26.3c-0.7,0.1-1.2,0.7-1.1,1.3
	c0.1,0.6,0.5,1.1,1.1,1.1c0.4,0,0.7-0.1,1-0.3l-0.2-0.4c-0.2,0.2-0.4,0.2-0.7,0.2c-0.4,0-0.7-0.2-0.7-0.6h1.8c0-0.1,0-0.1,0-0.2
	c0.1-0.6-0.4-1.2-1-1.2C28.2,26.3,28.2,26.3,28.1,26.3L28.1,26.3z M28.1,26.8c0.3,0,0.6,0.2,0.6,0.6c0,0,0,0,0,0h-1.2
	C27.6,27,27.8,26.8,28.1,26.8L28.1,26.8z M41,27.6v-2.1h-0.5v1.2c-0.2-0.2-0.5-0.4-0.7-0.3c-0.7,0.1-1.2,0.7-1.1,1.3
	c0.1,0.6,0.5,1.1,1.1,1.1c0.3,0,0.6-0.1,0.7-0.3v0.3H41V27.6z M39.1,27.6c0-0.4,0.4-0.7,0.7-0.7c0.4,0,0.7,0.4,0.7,0.7
	c0,0.4-0.3,0.7-0.7,0.7C39.4,28.3,39.1,28,39.1,27.6C39.1,27.6,39.1,27.6,39.1,27.6z M21.8,27.6v-1.2h-0.5v0.3
	c-0.2-0.2-0.5-0.4-0.7-0.3c-0.7,0.1-1.2,0.7-1.1,1.3c0.1,0.6,0.5,1.1,1.1,1.1c0.3,0,0.6-0.1,0.7-0.3v0.3h0.5L21.8,27.6z M19.9,27.6
	c0-0.4,0.4-0.7,0.7-0.7c0.4,0,0.7,0.4,0.7,0.7c0,0.4-0.3,0.7-0.7,0.7C20.2,28.3,19.9,28,19.9,27.6C19.9,27.6,19.9,27.6,19.9,27.6
	L19.9,27.6z"/>
<path class="st2" d="M28,22.4C28,22.4,28,22.4,28,22.4C28,22.4,28,22.4,28,22.4L28,22.4z"/>
<path class="st3" d="M24.7,15.4c0,2.7,1.2,5.3,3.3,7h0c3.8-3,4.5-8.6,1.5-12.4c-0.4-0.6-0.9-1.1-1.5-1.5
	C25.9,10.1,24.6,12.7,24.7,15.4z"/>
<path class="st4" d="M42.3,15.5c0-2-0.7-3.9-1.9-5.5c-3-3.8-8.6-4.5-12.4-1.5c0,0,0,0,0,0c0.6,0.4,1.1,0.9,1.5,1.5
	c3,3.8,2.4,9.4-1.5,12.4c0,0,0,0,0,0c1.6,1.3,3.5,1.9,5.6,1.9C38.5,24.3,42.4,20.3,42.3,15.5L42.3,15.5z"/>
<path class="st5" d="M28,8.4c-3.8-3-9.4-2.4-12.4,1.5c-3,3.8-2.4,9.4,1.5,12.4c3.2,2.5,7.7,2.5,10.9,0c0,0,0,0,0,0
	c-2.1-1.7-3.3-4.3-3.3-7C24.6,12.7,25.9,10.1,28,8.4C28,8.5,28,8.5,28,8.4C28,8.5,28,8.4,28,8.4C28,8.4,28,8.4,28,8.4z"/>
<path class="st5" d="M28,8.5C28,8.5,28,8.4,28,8.5C28,8.4,28,8.5,28,8.5C28,8.5,28,8.5,28,8.5z"/>
</svg>
