<?xml version="1.0" encoding="utf-8"?>
<!-- Generator: Adobe Illustrator 21.0.0, SVG Export Plug-In . SVG Version: 6.00 Build 0)  -->
<svg version="1.1" id="Capa_1" xmlns="http://www.w3.org/2000/svg" xmlns:xlink="http://www.w3.org/1999/xlink" x="0px" y="0px"
	 viewBox="0 0 56.1 35.4" style="enable-background:new 0 0 56.1 35.4;" xml:space="preserve">
<title>Mesa de trabajo 1</title>
<g>
	<path style="fill:#FFFFFF;" d="M55.6,33.1c0,1-0.8,1.8-1.8,1.8H2.4c-1,0-1.8-0.8-1.8-1.8V2.4c0-1,0.8-1.8,1.8-1.8h51.3
		c1,0,1.8,0.8,1.8,1.8V33.1z"/>
	<path style="fill:#EDEDED;" d="M53.7,35.4H2.4c-1.3,0-2.3-1-2.3-2.3V2.4c0-1.3,1-2.3,2.3-2.3h51.3c1.3,0,2.3,1,2.3,2.3v30.7
		C56.1,34.4,55,35.4,53.7,35.4z M2.4,1C1.7,1,1.1,1.6,1.1,2.4v30.7c0,0.7,0.6,1.3,1.3,1.3h51.3c0.7,0,1.3-0.6,1.3-1.3V2.4
		c0-0.7-0.6-1.3-1.3-1.3H2.4z"/>
</g>
<g>
	<polygon style="fill:#EC1C2E;" points="34.6,27.6 35.1,27.6 35.6,27.5 36.1,27.5 36.6,27.4 37.1,27.3 37.6,27.2 38,27 38.5,26.8 
		38.9,26.6 39.3,26.4 39.7,26.2 40.1,25.9 40.5,25.6 40.9,25.3 41.3,25 41.6,24.7 41.9,24.4 42.2,24 42.5,23.6 42.8,23.2 43.1,22.8 
		43.3,22.4 43.5,22 43.7,21.6 43.9,21.1 44.1,20.6 44.2,20.2 44.3,19.7 44.4,19.2 44.5,18.7 44.5,18.2 44.5,17.7 44.5,17.2 
		44.5,16.7 44.4,16.2 44.3,15.7 44.2,15.3 44.1,14.8 43.9,14.3 43.7,13.9 43.5,13.4 43.3,13 43.1,12.6 42.8,12.2 42.5,11.8 
		42.2,11.4 41.9,11.1 41.6,10.7 41.3,10.4 40.9,10.1 40.5,9.8 40.1,9.5 39.7,9.3 39.3,9 38.9,8.8 38.5,8.6 38,8.5 37.6,8.3 
		37.1,8.2 36.6,8.1 36.1,8 35.6,7.9 35.1,7.9 34.6,7.9 34.1,7.9 33.6,7.9 33.1,8 32.6,8.1 32.1,8.2 31.7,8.3 31.2,8.5 30.8,8.6 
		30.3,8.8 29.9,9 29.5,9.3 29.1,9.5 28.7,9.8 28.3,10.1 28,10.4 27.6,10.7 27.3,11.1 27,11.4 26.7,11.8 26.4,12.2 26.2,12.6 
		25.9,13 25.7,13.4 25.5,13.9 25.3,14.3 25.2,14.8 25.1,15.3 25,15.7 24.9,16.2 24.8,16.7 24.8,17.2 24.8,17.7 24.8,18.2 24.8,18.7 
		24.9,19.2 25,19.7 25.1,20.2 25.2,20.6 25.3,21.1 25.5,21.6 25.7,22 25.9,22.4 26.2,22.8 26.4,23.2 26.7,23.6 27,24 27.3,24.4 
		27.6,24.7 28,25 28.3,25.3 28.7,25.6 29.1,25.9 29.5,26.2 29.9,26.4 30.3,26.6 30.8,26.8 31.2,27 31.7,27.2 32.1,27.3 32.6,27.4 
		33.1,27.5 33.6,27.5 34.1,27.6 	"/>
	<polygon style="fill:#0084C4;" points="21.5,27.6 22,27.6 22.5,27.5 23,27.5 23.5,27.4 24,27.3 24.5,27.2 24.9,27 25.4,26.8 
		25.8,26.6 26.2,26.4 26.6,26.2 27.1,25.9 27.4,25.6 27.8,25.3 28.2,25 28.5,24.7 28.8,24.4 29.1,24 29.4,23.6 29.7,23.2 30,22.8 
		30.2,22.4 30.4,22 30.6,21.6 30.8,21.1 31,20.6 31.1,20.2 31.2,19.7 31.3,19.2 31.3,18.7 31.4,18.2 31.4,17.7 31.4,17.2 31.3,16.7 
		31.3,16.2 31.2,15.7 31.1,15.3 31,14.8 30.8,14.3 30.6,13.9 30.4,13.4 30.2,13 30,12.6 29.7,12.2 29.4,11.8 29.1,11.4 28.8,11.1 
		28.5,10.7 28.2,10.4 27.8,10.1 27.4,9.8 27.1,9.5 26.6,9.3 26.2,9 25.8,8.8 25.4,8.6 24.9,8.5 24.5,8.3 24,8.2 23.5,8.1 23,8 
		22.5,7.9 22,7.9 21.5,7.9 21,7.9 20.5,7.9 20,8 19.5,8.1 19.1,8.2 18.6,8.3 18.1,8.5 17.7,8.6 17.2,8.8 16.8,9 16.4,9.3 16,9.5 
		15.6,9.8 15.2,10.1 14.9,10.4 14.5,10.7 14.2,11.1 13.9,11.4 13.6,11.8 13.3,12.2 13.1,12.6 12.8,13 12.6,13.4 12.4,13.9 
		12.2,14.3 12.1,14.8 11.9,15.3 11.8,15.7 11.8,16.2 11.7,16.7 11.7,17.2 11.6,17.7 11.7,18.2 11.7,18.7 11.8,19.2 11.8,19.7 
		11.9,20.2 12.1,20.6 12.2,21.1 12.4,21.6 12.6,22 12.8,22.4 13.1,22.8 13.3,23.2 13.6,23.6 13.9,24 14.2,24.4 14.5,24.7 14.9,25 
		15.2,25.3 15.6,25.6 16,25.9 16.4,26.2 16.8,26.4 17.2,26.6 17.7,26.8 18.1,27 18.6,27.2 19.1,27.3 19.5,27.4 20,27.5 20.5,27.5 
		21,27.6 	"/>
	<polygon style="fill:#EC1C2E;" points="26.9,11.6 31.9,11.6 31.9,11.1 27.3,11.1 	"/>
	<polygon style="fill:#EC1C2E;" points="26.1,12.8 31.9,12.8 31.9,12.2 26.4,12.2 	"/>
	<polygon style="fill:#EC1C2E;" points="25.5,14 31.9,14 31.9,13.4 25.8,13.4 	"/>
	<polygon style="fill:#EC1C2E;" points="25.1,15.1 31.9,15.1 31.9,14.6 25.3,14.6 	"/>
	<polygon style="fill:#EC1C2E;" points="24.9,16.3 31.9,16.3 31.9,15.8 25,15.8 	"/>
	<polygon style="fill:#EC1C2E;" points="24.8,18.6 31.9,18.6 31.9,18 24.8,18 	"/>
	<polygon style="fill:#EC1C2E;" points="25,19.8 31.9,19.8 31.9,19.3 24.9,19.3 	"/>
	<polygon style="fill:#EC1C2E;" points="25.3,20.8 31.9,20.8 31.9,20.3 25.1,20.3 	"/>
	<polygon style="fill:#EC1C2E;" points="25.8,22 31.9,22 31.9,21.5 25.5,21.5 	"/>
	<polygon style="fill:#EC1C2E;" points="26.5,23.3 31.9,23.3 31.9,22.7 26.1,22.7 	"/>
	<polygon style="fill:#EC1C2E;" points="27.4,24.5 31.8,24.5 31.8,23.9 26.9,23.9 	"/>
	<g>
		<g>
			<polygon style="fill:#EC1C2E;" points="42.9,23.8 42.9,23.7 43,23.6 43,23.5 43.1,23.5 43.2,23.4 43.3,23.4 43.4,23.4 43.5,23.4 
				43.5,23.4 43.6,23.5 43.7,23.5 43.8,23.6 43.8,23.7 43.8,23.8 43.7,23.8 43.7,23.7 43.7,23.6 43.6,23.6 43.6,23.5 43.5,23.5 
				43.4,23.5 43.4,23.5 43.3,23.5 43.2,23.5 43.1,23.5 43.1,23.6 43,23.6 43,23.7 43,23.8 			"/>
			<polygon style="fill:#EC1C2E;" points="43.2,23.8 43.2,23.7 43.4,23.7 43.4,23.7 43.4,23.7 43.5,23.7 43.5,23.7 43.5,23.7 
				43.5,23.7 43.6,23.7 43.6,23.8 43.5,23.8 43.5,23.8 43.5,23.8 43.5,23.7 43.5,23.7 43.4,23.7 43.4,23.7 43.4,23.7 43.4,23.7 
				43.4,23.7 43.3,23.7 43.3,23.8 			"/>
			<polygon style="fill:#EC1C2E;" points="42.9,23.9 42.9,23.8 42.9,23.8 43,23.8 43,23.8 43,23.9 			"/>
			<polygon style="fill:#EC1C2E;" points="43.2,23.9 43.2,23.8 43.3,23.8 43.3,23.8 43.4,23.8 43.4,23.8 43.4,23.8 43.4,23.8 
				43.4,23.8 43.5,23.8 43.5,23.8 43.5,23.8 43.5,23.8 43.6,23.8 43.6,23.8 43.6,23.8 43.5,23.8 43.5,23.8 43.5,23.9 			"/>
			<polygon style="fill:#EC1C2E;" points="43.7,23.9 43.7,23.8 43.7,23.8 43.8,23.8 43.8,23.8 43.8,23.9 			"/>
			<polygon style="fill:#EC1C2E;" points="42.9,23.9 42.9,23.9 42.9,24 42.9,24.1 43,24.1 43,24.2 43.1,24.3 43.2,24.3 43.3,24.3 
				43.4,24.3 43.5,24.3 43.5,24.3 43.6,24.3 43.7,24.2 43.8,24.1 43.8,24.1 43.8,24 43.8,23.9 43.8,23.9 43.7,23.9 43.7,23.9 
				43.7,24 43.7,24 43.7,24.1 43.6,24.2 43.6,24.2 43.5,24.2 43.4,24.3 43.4,24.3 43.3,24.3 43.2,24.2 43.1,24.2 43.1,24.2 43,24.1 
				43,24 43,24 43,23.9 43,23.9 			"/>
			<polygon style="fill:#EC1C2E;" points="43.2,23.9 43.2,24.1 43.3,24.1 43.3,23.9 43.4,23.9 43.5,24.1 43.5,24.1 43.4,23.9 
				43.4,23.9 43.5,23.9 43.5,23.9 43.5,23.9 43.5,23.9 			"/>
		</g>
	</g>
	<polygon style="fill:#FFFFFF;" points="32.5,16.9 32.4,16.9 32.4,16.9 32.3,16.9 32.2,16.9 32.2,16.8 32.1,16.8 32.1,16.8 32,16.8 
		31.9,16.8 31.9,16.8 31.8,16.8 31.7,16.8 31.6,16.8 31.5,16.8 31.4,16.8 31.2,16.8 31.1,16.8 31,16.8 31,16.9 30.9,16.9 30.8,16.9 
		30.8,17 30.7,17 30.7,17.1 30.7,17.1 30.6,17.2 30.6,17.2 30.6,17.3 30.6,17.3 30.7,17.4 30.7,17.5 30.7,17.5 30.8,17.6 30.9,17.7 
		31.1,17.7 31.2,17.8 31.4,17.8 31.5,17.9 31.7,17.9 31.8,18 32,18.1 32.1,18.2 32.2,18.3 32.3,18.4 32.4,18.6 32.4,18.8 32.4,19.1 
		32.4,19.4 32.4,19.6 32.3,19.8 32.3,19.9 32.2,20.1 32.1,20.2 31.9,20.4 31.8,20.5 31.7,20.5 31.5,20.6 31.4,20.7 31.2,20.7 
		31,20.8 30.9,20.8 30.7,20.8 30.6,20.8 30.4,20.8 30.2,20.8 30,20.8 29.9,20.8 29.7,20.8 29.6,20.8 29.5,20.8 29.3,20.8 29.2,20.8 
		29.1,20.8 29.1,20.7 29,20.7 28.9,20.7 28.8,20.7 28.7,20.7 28.7,20.6 28.6,20.6 28.8,19.6 28.8,19.6 28.9,19.6 28.9,19.6 29,19.6 
		29.1,19.7 29.2,19.7 29.3,19.7 29.4,19.7 29.5,19.7 29.7,19.7 29.8,19.8 29.9,19.8 30,19.8 30.2,19.8 30.3,19.8 30.5,19.8 
		30.6,19.8 30.7,19.7 30.8,19.7 30.8,19.6 30.9,19.5 30.9,19.5 31,19.4 31,19.3 31,19.3 31,19.2 31,19.1 30.9,19.1 30.9,19 30.9,19 
		30.8,18.9 30.7,18.9 30.7,18.9 30.6,18.8 30.5,18.8 30.4,18.8 30.3,18.7 30.3,18.7 30.2,18.7 30.1,18.6 30,18.6 29.9,18.5 
		29.8,18.5 29.7,18.4 29.6,18.4 29.6,18.3 29.5,18.2 29.4,18.2 29.3,18.1 29.3,18 29.2,17.9 29.2,17.8 29.2,17.7 29.2,17.5 
		29.2,17.4 29.2,17.2 29.2,17.1 29.2,17.1 29.2,17 29.2,16.9 29.2,16.8 29.3,16.7 29.3,16.6 29.3,16.6 29.4,16.5 29.4,16.4 
		29.4,16.4 29.5,16.3 29.5,16.3 29.6,16.2 29.6,16.1 29.7,16.1 29.8,16.1 29.8,16 29.9,16 30,15.9 30.1,15.9 30.2,15.9 30.2,15.8 
		30.3,15.8 30.4,15.8 30.6,15.8 30.7,15.8 30.8,15.7 30.9,15.7 31,15.7 31.2,15.7 31.3,15.7 31.5,15.7 31.6,15.7 31.8,15.7 
		31.9,15.7 32,15.7 32.1,15.7 32.2,15.8 32.3,15.8 32.4,15.8 32.4,15.8 32.5,15.8 32.6,15.8 32.6,15.8 32.6,15.8 32.7,15.8 
		32.7,15.8 	"/>
	<g>
		<g>
			<path style="fill:#FFFFFF;" d="M30.2,20.9l-1.1-0.1l-0.4-0.1l-0.3-0.1l0.2-1.2l1,0.2l0.7,0l0.1,0l0.2,0l0.1-0.1l0.1-0.2l0-0.1
				l0-0.1l-0.1-0.1L30.6,19l-1.1-0.5l-0.2-0.1l-0.1-0.1l-0.1-0.2l-0.1-0.2l0-0.1l0-0.1l0-0.2l0-0.4l0.1-0.3l0.1-0.3l0.2-0.3l0.2-0.2
				l0.2-0.1l0.4-0.1l0.5-0.1l0.7,0l1.4,0.1L32.6,17l-1-0.1l-0.4,0L30.9,17l-0.1,0.1l-0.1,0.1l0,0.1l0,0.1l0,0.1l0,0.1l0.1,0.1
				l0.1,0.1l0.4,0.1l0.3,0.1l0.2,0.1L32,18l0.1,0.1l0.1,0.1l0.1,0.2l0.1,0.2l0.1,0.2l0,0.3l0,0.3l0,0.2l-0.1,0.2L32.4,20l-0.1,0.2
				l-0.1,0.1L32,20.4l-0.1,0.1l-0.1,0.1l-0.2,0.1l-0.3,0.1l-0.3,0.1l-0.5,0H30.2z M28.7,20.5l0.3,0.1l0.5,0.1l1,0l0.4,0l0.3-0.1
				l0.3-0.1l0.1-0.1l0.3-0.2l0.1-0.1l0.1-0.1l0.1-0.1l0.1-0.2l0.1-0.2l0-0.2l0-0.3l0-0.2l0-0.2l-0.1-0.2l-0.1-0.1L32,18.3l-0.1-0.1
				l-0.1-0.1L31.5,18L31,17.8l-0.1-0.1l-0.1-0.1l-0.1-0.1l-0.1-0.1l0-0.2l0-0.1l0-0.1l0-0.1l0.1-0.1l0.1-0.1l0.2-0.1l0.2,0l0.5,0
				l0.7,0.1l0.2-0.8l-1.9,0L30.2,16l-0.3,0.1l-0.2,0.1l-0.2,0.2l-0.1,0.2L29.3,17l0,0.4l0,0.3l0.1,0.2l0,0.1l0.1,0.2l0.1,0.1
				l0.2,0.2l1.1,0.5l0.1,0.1l0.1,0.1l0,0.1l0,0.1l0,0.2L31,19.6l-0.1,0.1l-0.1,0.1l-0.1,0.1l-0.1,0l-0.1,0l-0.3,0l-0.5,0l-0.8-0.1
				L28.7,20.5z"/>
		</g>
	</g>
	<polygon style="fill:#FFFFFF;" points="33.5,14.7 34.9,14.7 34.7,15.8 35.5,15.8 35.3,16.9 34.4,16.9 34,19.4 34,19.5 34,19.5 
		34,19.6 34,19.6 34.1,19.7 34.1,19.7 34.1,19.7 34.1,19.7 34.2,19.8 34.2,19.8 34.3,19.8 34.3,19.8 34.4,19.8 34.4,19.8 34.5,19.8 
		34.5,19.8 34.6,19.8 34.7,19.8 34.8,19.8 34.9,19.8 34.9,19.8 35,19.7 35,19.7 35,19.7 34.9,20.6 34.8,20.6 34.8,20.6 34.8,20.7 
		34.7,20.7 34.7,20.7 34.7,20.7 34.6,20.7 34.6,20.7 34.5,20.7 34.5,20.8 34.4,20.8 34.4,20.8 34.3,20.8 34.2,20.8 34.2,20.8 
		34.1,20.8 33.7,20.8 33.5,20.8 33.4,20.8 33.2,20.8 33.1,20.7 33,20.7 32.9,20.6 32.8,20.6 32.8,20.5 32.7,20.4 32.7,20.4 
		32.7,20.3 32.7,20.2 32.7,20.1 32.7,20 32.7,19.9 32.7,19.8 	"/>
	<g>
		<g>
			<path style="fill:#FFFFFF;" d="M33.7,20.9l-0.4,0l-0.3-0.1l-0.1,0l-0.1-0.1l-0.1-0.1l-0.1-0.1l-0.1-0.1l0-0.1l0-0.1l0-0.2l0-0.3
				l0.9-5.2H35l-0.2,1.1h0.8L35.4,17l-0.8,0l-0.4,2.5l0,0.1l0,0l0.1,0l0.2,0l0.3,0l0.3-0.1l0,0.1L35,20.7l-0.3,0.1l-0.6,0.1
				L33.7,20.9z M33.6,14.8l-0.9,5.3l0,0.2l0,0.1l0.1,0.1l0.1,0.1l0.2,0.1l0.3,0l0.2,0l0.9-0.1l0.2-0.1l0.1-0.7l-0.1,0l-0.3,0l-0.2,0
				L34,19.8l0,0l-0.1-0.1l0-0.1l0-0.1l0-0.1l0.4-2.7l0.8,0l0.1-0.8h-0.8l0.2-1.1H33.6z"/>
		</g>
	</g>
	<polygon style="fill:#FFFFFF;" points="25.6,18.6 25.6,18.7 25.6,18.8 25.6,18.9 25.6,19 25.7,19.1 25.7,19.2 25.7,19.2 25.8,19.3 
		25.9,19.4 25.9,19.5 26,19.5 26.1,19.6 26.2,19.6 26.3,19.7 26.4,19.7 26.5,19.7 26.6,19.8 26.7,19.8 26.8,19.8 26.9,19.8 
		27.1,19.8 27.2,19.8 27.3,19.8 27.4,19.8 27.5,19.8 27.7,19.7 27.8,19.7 27.9,19.7 28.1,19.6 28.2,19.6 28.3,19.5 28.5,19.4 
		28.3,20.6 28.2,20.6 28.1,20.6 28.1,20.7 28,20.7 27.9,20.7 27.8,20.7 27.8,20.8 27.7,20.8 27.6,20.8 27.5,20.8 27.4,20.8 
		27.3,20.8 27.2,20.8 27.1,20.8 26.9,20.8 26.8,20.8 26.6,20.8 26.5,20.8 26.4,20.8 26.3,20.8 26.2,20.8 26.1,20.8 25.9,20.7 
		25.8,20.7 25.7,20.7 25.6,20.6 25.5,20.6 25.4,20.5 25.3,20.5 25.2,20.4 25.1,20.4 25,20.3 24.9,20.2 24.8,20.1 24.7,20 24.6,19.9 
		24.6,19.8 24.5,19.7 24.4,19.6 24.4,19.5 24.3,19.3 24.3,19.2 24.3,19 24.3,18.9 24.2,18.7 24.2,18.5 24.3,18.4 24.3,18.2 
		24.3,18.1 24.3,18 24.3,17.9 24.3,17.8 24.3,17.8 24.4,17.7 24.4,17.6 24.4,17.5 24.4,17.4 24.5,17.3 24.5,17.2 24.6,17.1 24.6,17 
		24.7,16.9 24.7,16.8 24.8,16.7 24.9,16.6 24.9,16.5 25,16.4 25.1,16.3 25.2,16.2 25.3,16.2 25.4,16.1 25.6,16 25.7,16 25.8,15.9 
		26,15.9 26.1,15.8 26.3,15.8 26.5,15.8 26.7,15.7 26.9,15.7 26.9,15.7 27,15.7 27.1,15.8 27.2,15.8 27.3,15.8 27.4,15.8 27.5,15.8 
		27.6,15.8 27.7,15.9 27.8,15.9 27.9,15.9 28,16 28.1,16 28.1,16.1 28.2,16.2 28.3,16.2 28.4,16.3 28.4,16.4 28.5,16.5 28.6,16.6 
		28.6,16.7 28.6,16.8 28.7,16.9 28.7,17 28.7,17.2 28.8,17.3 28.8,17.5 28.8,17.6 28.8,17.8 28.7,18 28.7,18.2 28.7,18.4 28.6,18.7 
		25.3,18.7 25.5,17.8 27.5,17.8 27.5,17.6 27.5,17.5 27.5,17.4 27.5,17.3 27.4,17.2 27.4,17.1 27.4,17.1 27.3,17 27.3,17 27.2,16.9 
		27.1,16.9 27.1,16.8 27,16.8 26.9,16.8 26.8,16.8 26.7,16.8 26.6,16.8 26.6,16.8 26.5,16.8 26.4,16.8 26.3,16.9 26.3,16.9 26.2,17 
		26.1,17 26.1,17.1 26,17.1 26,17.2 25.9,17.3 25.9,17.4 25.8,17.5 25.8,17.6 25.8,17.7 	"/>
	<g>
		<g>
			<path style="fill:#FFFFFF;" d="M26.8,20.9l-0.4,0l-0.5-0.1l-0.4-0.1l-0.2-0.1l-0.2-0.1l-0.2-0.1l-0.2-0.2L24.5,20l-0.1-0.2
				l-0.1-0.3l-0.1-0.3l-0.1-0.3l0-0.2l0-0.4l0.1-0.6l0.1-0.5l0.2-0.4l0.1-0.2l0.2-0.3l0.2-0.2l0.2-0.2l0.3-0.1l0.3-0.1l0.3-0.1
				l0.4,0l0.3,0l0.4,0l0.4,0.1l0.3,0.1l0.2,0.1l0.2,0.2l0.1,0.2l0.1,0.2l0.1,0.2l0.1,0.3l0,0.3l0,0.3l0,0.4l-0.1,0.6h-3l0,0.1l0,0.1
				l0.1,0.2l0.1,0.1l0.1,0.1l0.2,0.1l0.2,0.1l0.4,0.1l0.4,0l0.4,0l0.2-0.1l0.4-0.1l0.5-0.3l-0.2,1.4l-0.4,0.2l-0.3,0.1l-0.4,0
				L26.8,20.9z M26.9,15.8l-0.5,0l-0.3,0.1L25.9,16l-0.3,0.1l-0.2,0.1l-0.3,0.2l-0.2,0.3l-0.2,0.4l-0.1,0.4l-0.1,0.7l0,0.4l0,0.3
				l0,0.3l0.1,0.3l0.1,0.2l0.1,0.2l0.1,0.2l0.2,0.2l0.2,0.1l0.3,0.2l0.3,0.1l0.6,0.1l0.5,0l0.8,0l0.3-0.1l0.2-0.1l0.2-0.9l-0.1,0
				l-0.4,0.2l-0.4,0.1l-0.4,0l-0.5,0l-0.2,0l-0.1,0L26,19.7l-0.2-0.1l-0.1-0.2l-0.1-0.2l0-0.1l-0.1-0.2l0-0.1l0,0h-0.4l0.2-1.1h0.3
				l0.1-0.3l0.1-0.2L26,17l0.1-0.1l0.2-0.1l0.2-0.1l0.2,0l0.1,0l0.2,0l0.2,0.1l0.2,0.1l0.1,0.1l0.1,0.1l0,0.1l0.1,0.2l0,0.1l0,0.2
				l0,0.2h-1.7l-0.1,0.7h2.8l0.1-0.6l0-0.5l0-0.3l-0.1-0.3l-0.1-0.2l-0.2-0.3l-0.1-0.1l-0.1-0.1L27.8,16l-0.4-0.1l-0.4-0.1
				L26.9,15.8z M25.4,18.6h0.1l0.1-0.7h-0.1L25.4,18.6z M25.9,17.7h1.5l0-0.1l0-0.2l-0.1-0.1L27.2,17L27,16.9l-0.1,0l-0.1,0l-0.2,0
				l-0.1,0L26.2,17l-0.1,0.1L26,17.4L26,17.5L25.9,17.7z"/>
		</g>
	</g>
	<polygon style="fill:#FFFFFF;" points="23.8,19.8 23.6,20.8 22.5,20.8 22.5,20.7 22.5,20.6 22.5,20.5 22.5,20.5 22.5,20.4 
		22.5,20.3 22.5,20.3 22.6,20.3 22.5,20.3 22.4,20.4 22.3,20.5 22.2,20.5 22.1,20.6 22,20.7 21.9,20.7 21.8,20.8 21.6,20.8 
		21.5,20.8 21.4,20.9 21.2,20.9 21.1,20.9 20.9,20.9 20.8,20.9 20.7,20.9 20.5,20.8 20.4,20.8 20.2,20.7 20.1,20.6 20,20.6 
		19.9,20.5 19.9,20.4 19.8,20.3 19.7,20.2 19.7,20.1 19.7,20 19.6,19.9 19.6,19.8 19.6,19.7 19.6,19.6 19.6,19.5 19.6,19.3 
		19.6,19.1 19.7,19 19.7,18.8 19.8,18.7 19.9,18.5 20,18.4 20.1,18.3 20.2,18.2 20.3,18.1 20.5,18 20.6,17.9 20.8,17.8 20.9,17.8 
		21.1,17.8 21.2,17.7 21.2,17.7 21.3,17.7 21.3,17.7 21.4,17.7 21.4,17.7 21.5,17.7 21.5,17.7 21.6,17.7 21.7,17.7 21.8,17.7 
		21.9,17.7 21.9,17.7 22,17.6 22.1,17.6 22.1,17.6 22.2,17.6 22.2,17.6 22.3,17.6 22.4,17.6 22.4,17.6 22.5,17.6 22.5,17.6 
		22.6,17.6 22.6,17.6 22.7,17.7 22.7,17.7 22.8,17.7 22.8,17.7 22.8,17.7 22.8,17.7 22.8,17.7 22.8,17.7 22.9,17.6 22.9,17.5 
		22.9,17.5 22.9,17.4 22.9,17.3 22.9,17.3 22.9,17.2 22.8,17.2 22.8,17.1 22.8,17.1 22.7,17 22.7,17 22.7,17 22.6,16.9 22.6,16.9 
		22.5,16.9 22.5,16.9 22.4,16.9 22.4,16.9 22.3,16.8 22.2,16.8 22,16.8 21.9,16.8 21.7,16.9 21.6,16.9 21.4,16.9 21.3,16.9 
		21.1,16.9 21,16.9 20.9,17 20.8,17 20.6,17 20.5,17 20.5,17.1 20.4,17.1 20.3,17.1 20.7,16 20.8,16 20.9,15.9 21,15.9 21.1,15.9 
		21.2,15.8 21.3,15.8 21.4,15.8 21.6,15.8 21.7,15.8 21.8,15.8 22,15.8 22.1,15.8 22.3,15.8 22.4,15.8 22.6,15.8 22.7,15.8 
		22.9,15.8 23,15.8 23.1,15.8 23.3,15.9 23.4,15.9 23.6,16 23.7,16.1 23.9,16.2 24,16.3 24.1,16.4 24.2,16.5 24.2,16.7 24.3,16.8 
		24.3,17 24.3,17.2 24.3,17.3 	"/>
	<g>
		<g>
			<path style="fill:#FFFFFF;" d="M21,21l-0.3,0l-0.2,0l-0.2-0.1l-0.1-0.1L20,20.7l-0.2-0.2l-0.1-0.2L19.6,20l-0.1-0.2l0-0.3l0-0.2
				l0-0.2l0-0.2l0.1-0.2l0.2-0.3l0.2-0.3l0.1-0.1l0.3-0.2l0.3-0.1l0.2-0.1l0.6-0.1l0.8,0l0.4,0l0-0.1l0-0.2l-0.1-0.1L22.6,17
				L22.4,17l-0.1,0l-0.1,0l-1,0.1l-0.7,0.1l-0.1,0l-0.2,0.1l0.4-1.4l0.4-0.1l0.4-0.1l0.5,0l0.6,0l0.5,0l0.1,0l0.3,0.1l0.3,0.1
				l0.1,0.1l0.1,0.1l0.1,0.1l0.1,0.1l0.1,0.1l0.1,0.2l0.1,0.2l0,0.2l0,0.2l0,0.2l-0.5,2.4l-0.2,1.1h-1.4l0-0.4l-0.2,0.1l-0.3,0.1
				l-0.3,0.1L21.4,21l-0.3,0L21,21z M22.1,17.7l-0.9,0.1L21,17.9L20.7,18l-0.1,0.1l-0.2,0.2l-0.1,0.1L20,18.6l-0.1,0.3L19.8,19
				l0,0.2l0,0.2l0,0.2l0,0.3l0,0.2l0.1,0.2l0.1,0.2l0.2,0.2l0.2,0.1l0.3,0.1l0.3,0.1l0.1,0l0.3,0l0.3,0l0.3-0.1l0.4-0.2l0.2-0.1
				l0.2-0.1l0.1-0.1l0.2,0.1l0,0.1l0,0.3h1l0.2-0.9l0.5-2.6l0-0.2l0-0.1l0-0.1l-0.1-0.1L24,16.5l-0.1-0.1l-0.1-0.1l-0.2-0.2L23.3,16
				L23,15.9l-0.3,0l-0.7,0l-0.6,0L21,16l-0.2,0.1l-0.3,0.8h0l0.3-0.1l1-0.1l0.3,0l0.3,0l0.2,0.1l0.1,0.1l0.1,0.2l0,0.2l0,0.1
				l-0.1,0.3L22.1,17.7z"/>
		</g>
	</g>
	<polygon style="fill:#0084C4;" points="22.7,18.6 22.7,18.5 22.7,18.5 22.6,18.5 22.6,18.5 22.5,18.5 22.5,18.5 22.4,18.5 
		22.3,18.5 22.3,18.5 22.2,18.5 22.1,18.5 22,18.5 22,18.5 21.9,18.5 21.8,18.6 21.8,18.6 21.8,18.6 21.7,18.6 21.7,18.6 21.6,18.6 
		21.6,18.7 21.5,18.7 21.4,18.7 21.4,18.8 21.3,18.8 21.3,18.9 21.2,18.9 21.2,19 21.1,19 21.1,19.1 21.1,19.2 21,19.2 21,19.4 
		21.1,19.5 21.1,19.6 21.2,19.7 21.2,19.7 21.3,19.8 21.4,19.8 21.5,19.8 21.6,19.8 21.7,19.8 21.9,19.8 22,19.7 22.1,19.7 
		22.1,19.7 22.2,19.6 22.3,19.6 22.3,19.5 22.4,19.5 22.4,19.4 22.5,19.4 22.5,19.3 22.5,19.2 22.6,19.2 22.6,19.1 22.6,19.1 
		22.6,19 22.6,18.9 22.6,18.8 22.7,18.8 22.7,18.7 22.7,18.6 	"/>
	<polygon style="fill:#FFFFFF;" points="14,20.8 12.8,20.8 13.8,14.7 16,14.7 16.2,18.3 17.7,14.7 20,14.7 19,20.8 17.7,20.8 
		18.5,16.2 18.5,16.2 16.6,20.8 15.1,20.8 15.1,20.6 15.1,20.1 15.1,19.4 15,18.6 15,17.7 14.9,17 14.9,16.5 14.9,16.2 14.9,16.2 
		14.9,16.2 14.8,16.2 14.8,16.2 14.8,16.2 14.8,16.2 14.8,16.2 14.8,16.2 	"/>
	<g>
		<g>
			<path style="fill:#FFFFFF;" d="M19.1,20.9h-1.5l0.7-3.9l-1.6,3.9H15l-0.2-4l-0.7,4h-1.5l1.1-6.3h2.4l0.2,3.3l1.4-3.3h2.5
				L19.1,20.9z M17.8,20.7h1.1l1-5.9h-2.1l-1.5,3.6l-0.2,0l-0.2-3.5h-2l-1,5.9h1.1l0.8-4.5l0.1,0l0-0.1H15l0.3,4.6h1.2l1.9-4.6h0.2
				L17.8,20.7z"/>
		</g>
	</g>
	<polygon style="fill:#FFFFFF;" points="35.2,20.8 36.5,20.8 36.5,20.8 37,18.2 37,18.1 37,18 37.1,17.9 37.1,17.8 37.1,17.7 
		37.2,17.6 37.2,17.5 37.3,17.4 37.4,17.4 37.4,17.3 37.5,17.2 37.7,17.2 37.8,17.1 37.9,17.1 38.1,17.1 38.3,17.1 38.3,17.1 
		38.3,17.1 38.3,17.1 38.4,17.1 38.4,17.1 38.4,17.1 38.4,17.1 38.4,17.1 38.4,17.1 38.4,17 38.5,16.9 38.5,16.8 38.5,16.7 
		38.6,16.6 38.6,16.4 38.6,16.3 38.7,16.2 38.7,16.1 38.8,16.1 38.8,16 38.8,15.9 38.9,15.9 38.9,15.8 38.9,15.8 38.9,15.8 
		38.9,15.8 38.9,15.8 38.8,15.8 38.8,15.8 38.8,15.8 38.7,15.8 38.7,15.8 38.6,15.8 38.4,15.8 38.3,15.8 38.2,15.9 38.1,15.9 
		38,15.9 37.9,16 37.8,16 37.7,16.1 37.7,16.2 37.6,16.2 37.5,16.3 37.5,16.4 37.4,16.5 37.3,16.6 37.3,16.7 37.4,15.8 36.1,15.8 
		35.2,20.8 	"/>
	<g>
		<g>
			<path style="fill:#FFFFFF;" d="M36.6,20.9h-1.5l0-0.1l0.9-5.1l1.5,0l-0.1,0.5l0.2-0.2l0.2-0.1l0.2-0.1l0.2-0.1l0.3,0l0.2,0l0.2,0
				h0.2l-0.4,0.8l-0.2,0.7l-0.1,0l0,0l0-0.1l0,0.1l-0.1,0l-0.3,0l-0.3,0.1l-0.2,0.1l-0.1,0.1l-0.1,0.1l-0.1,0.3l-0.1,0.3L36.6,20.9z
				 M35.3,20.7h1.1l0.5-2.9l0.1-0.2l0.1-0.2l0.1-0.1l0.2-0.2l0.2-0.1l0.1,0l0.2,0l0.4,0l0,0l0,0.1l0-0.1l0.1-0.4l0.1-0.4l0.2-0.3
				l0,0l-0.4,0.1L38.1,16L38,16.1l-0.2,0.2l-0.3,0.4l-0.1,0.1l-0.2-0.1l0.1-0.7l-1.1,0L35.3,20.7z"/>
		</g>
	</g>
	<polygon style="fill:#FFFFFF;" points="40.9,15.8 41.1,15.8 41.2,15.8 41.4,15.8 41.5,15.8 41.6,15.8 41.8,15.9 41.9,15.9 42,16 
		42.1,16 42.2,16.1 42.3,16.1 42.4,16.2 42.5,16.2 42.6,16.3 42.7,16.4 42.8,16.5 42.8,16.6 42.9,16.6 43,16.7 43,16.8 43.1,16.9 
		43.2,17 43.2,17.1 43.2,17.3 43.3,17.4 43.3,17.5 43.3,17.6 43.4,17.7 43.4,17.9 43.4,18 43.4,18.1 43.4,18.3 43.4,18.4 43.3,18.6 
		43.3,18.8 43.3,18.9 43.3,19 43.2,19.2 43.2,19.3 43.1,19.4 43.1,19.6 43,19.7 42.9,19.8 42.9,19.9 42.8,20 42.7,20.1 42.6,20.2 
		42.5,20.3 42.4,20.3 42.4,20.4 42.3,20.5 42.2,20.5 42,20.6 41.9,20.6 41.8,20.7 41.7,20.7 41.6,20.8 41.5,20.8 41.3,20.8 
		41.2,20.9 41.1,20.9 41,20.9 40.8,20.9 40.7,20.9 40.6,20.9 40.4,20.9 40.3,20.9 40.2,20.9 40.1,20.8 39.9,20.8 39.8,20.8 
		39.7,20.7 39.6,20.7 39.5,20.6 39.4,20.6 39.3,20.5 39.2,20.5 39.1,20.4 39,20.3 38.9,20.3 38.8,20.2 38.8,20.1 38.7,20 38.6,19.9 
		38.6,19.8 38.5,19.7 38.5,19.6 38.4,19.5 38.4,19.3 38.3,19.2 38.3,19.1 38.3,19 38.3,18.8 38.3,18.7 38.3,18.5 38.3,18.4 
		38.3,18.2 38.3,18.1 38.3,17.9 38.3,17.8 38.4,17.6 38.4,17.5 38.4,17.4 38.5,17.3 38.6,17.1 38.6,17 38.7,16.9 38.7,16.8 
		38.8,16.7 38.9,16.6 39,16.5 39.1,16.4 39.1,16.4 39.2,16.3 39.3,16.2 39.4,16.2 39.5,16.1 39.7,16 39.8,16 39.9,15.9 40,15.9 
		40.1,15.9 40.3,15.8 40.4,15.8 40.5,15.8 40.7,15.8 40.8,15.8 	"/>
	<g>
		<g>
			<path style="fill:#FFFFFF;" d="M40.7,21l-0.4,0l-0.4-0.1l-0.4-0.1l-0.3-0.2l-0.3-0.2l-0.3-0.3L38.5,20l-0.1-0.2l-0.1-0.2
				l-0.1-0.4l0-0.3l0-0.3l0-0.3l0-0.3l0.1-0.4l0.1-0.4l0.2-0.3l0.2-0.3l0.2-0.2l0.3-0.2l0.3-0.2l0.4-0.1l0.3-0.1l0.4,0l0.1,0l0.4,0
				l0.3,0l0.4,0.1l0.3,0.2l0.2,0.1l0.3,0.2l0.2,0.2l0.2,0.3l0.1,0.3l0.1,0.4l0,0.3l0,0.3l0,0.3l-0.1,0.5l-0.1,0.3l-0.1,0.3l-0.1,0.2
				l-0.2,0.3l-0.3,0.3l-0.2,0.2l-0.3,0.2l-0.4,0.1l-0.4,0.1L41,21L40.7,21z M40.9,15.9l-0.5,0L39.9,16l-0.3,0.1l-0.2,0.1l-0.3,0.2
				l-0.2,0.3l-0.2,0.3l-0.2,0.3l-0.1,0.4l0,0.3l0,0.4l0,0.4l0,0.3l0.1,0.3l0.2,0.3l0.2,0.3l0.2,0.2l0.3,0.2l0.3,0.2l0.3,0.1l0.5,0.1
				l0.3,0l0.5,0l0.4-0.1l0.3-0.1l0.3-0.2l0.3-0.2l0.2-0.3l0.2-0.3l0.2-0.3l0.1-0.3l0.1-0.4l0-0.3l0-0.1l0-0.4l-0.1-0.4l-0.1-0.3
				L43,16.9l-0.2-0.3l-0.2-0.2l-0.3-0.2l-0.3-0.1l-0.3-0.1l-0.3,0L40.9,15.9z"/>
		</g>
	</g>
	<polygon style="fill:#FFFFFF;" points="42.9,20.6 43.3,20.6 43.3,20.6 43.1,20.6 43.1,20.9 43,20.9 43,20.6 42.9,20.6 	"/>
	<g>
		<g>
			<polygon style="fill:#FFFFFF;" points="43.2,21 42.9,21 42.9,20.7 42.8,20.7 42.8,20.5 43.4,20.5 43.4,20.7 43.2,20.7 			"/>
		</g>
	</g>
	<polygon style="fill:#FFFFFF;" points="43.3,20.6 43.4,20.6 43.6,20.8 43.6,20.8 43.7,20.6 43.8,20.6 43.8,20.9 43.7,20.9 
		43.7,20.6 43.7,20.6 43.6,20.9 43.5,20.9 43.4,20.6 43.4,20.6 43.4,20.9 43.3,20.9 	"/>
	<g>
		<g>
			<polygon style="fill:#FFFFFF;" points="43.6,21.1 43.5,21 43.2,21 43.2,20.5 43.5,20.5 43.6,20.6 43.6,20.5 43.9,20.5 43.9,21 
				43.6,21 			"/>
		</g>
	</g>
	<polygon style="fill:#EC1C2E;" points="39.9,18.2 39.9,18.3 39.9,18.5 39.9,18.7 39.9,18.8 39.9,18.9 39.9,19 40,19.1 40,19.2 
		40.1,19.3 40.1,19.4 40.2,19.5 40.3,19.5 40.3,19.5 40.4,19.6 40.5,19.6 40.6,19.6 40.7,19.6 40.9,19.6 41,19.5 41,19.5 41.1,19.5 
		41.2,19.4 41.3,19.3 41.4,19.2 41.5,19.2 41.5,19.1 41.6,18.9 41.6,18.8 41.7,18.7 41.7,18.5 41.8,18.4 41.8,18.2 41.8,18 
		41.8,17.9 41.8,17.8 41.8,17.7 41.8,17.5 41.8,17.4 41.7,17.3 41.7,17.2 41.6,17.1 41.6,17.1 41.5,17 41.4,17 41.3,16.9 41.3,16.9 
		41.2,16.9 41,16.9 40.9,16.9 40.8,16.9 40.7,16.9 40.6,17 40.5,17.1 40.4,17.1 40.3,17.2 40.2,17.3 40.2,17.4 40.1,17.5 40.1,17.6 
		40,17.7 40,17.8 39.9,17.9 39.9,18.1 	"/>
</g>
</svg>
