<svg id="Capa_1" data-name="Capa 1" xmlns="http://www.w3.org/2000/svg" viewBox="0 0 30 30"><defs><style>.cls-1{fill:#97e2e0;}</style></defs><title>phone</title><path class="cls-1" d="M24.42,20.41l-2.55-2.55a2.15,2.15,0,0,0-1.55-.64,3.05,3.05,0,0,0-1.93.83l-.91.91-6.31-6.39h0l.94-.95A2.8,2.8,0,0,0,13,9.68a2.1,2.1,0,0,0-.56-1.47L9.61,5.6A2,2,0,0,0,7.68,5a2.89,2.89,0,0,0-2,1.52l0,.07A8.94,8.94,0,0,0,5,10C5,13.37,6.8,17.2,9.8,20.2S16.64,25,20,25a6.75,6.75,0,0,0,3.29-.72A2.9,2.9,0,0,0,25,21.85,1.61,1.61,0,0,0,24.42,20.41Zm-.62,1.36a1.72,1.72,0,0,1-1,1.47,5.63,5.63,0,0,1-2.74.59c-3.1,0-6.62-1.67-9.41-4.46S6.17,13.06,6.17,10A7.79,7.79,0,0,1,6.68,7.1,1.72,1.72,0,0,1,7.86,6.2a1,1,0,0,1,.85.15l.07.08L11.6,9.06a.93.93,0,0,1,.21.62,1.65,1.65,0,0,1-.49,1.1l-.89.89a1.11,1.11,0,0,0-.51.94v.09a.58.58,0,0,0,.17.41L16.86,20a.63.63,0,0,0,.25.2,1.12,1.12,0,0,0,1.17-.36l.9-.9a1.86,1.86,0,0,1,1.15-.53,1,1,0,0,1,.72.3l2.55,2.55a1,1,0,0,1,.24.34A.58.58,0,0,0,23.8,21.77Z"/></svg>