<svg id="Capa_1" data-name="Capa 1" xmlns="http://www.w3.org/2000/svg" viewBox="0 0 56.09 35.38"><defs><style>.cls-1{fill:#fff;}.cls-2{fill:#ededed;}.cls-3{fill:#f7931a;}.cls-4{fill:#4d4d4d;}</style></defs><title>Mesa de trabajo 1</title><rect class="cls-1" x="0.54" y="0.5" width="55" height="34.37" rx="1.83" ry="1.83"/><path class="cls-2" d="M53.71,35.37H2.38A2.34,2.34,0,0,1,0,33V2.33A2.34,2.34,0,0,1,2.38,0H53.71A2.34,2.34,0,0,1,56,2.33V33A2.34,2.34,0,0,1,53.71,35.37ZM2.38,1A1.33,1.33,0,0,0,1,2.33V33a1.33,1.33,0,0,0,1.33,1.33H53.71A1.33,1.33,0,0,0,55,33V2.33A1.33,1.33,0,0,0,53.71,1Z"/><g id="layer1"><g id="g97"><g id="g99"><g id="g101"><path id="path103" class="cls-3" d="M16.34,18.69a4.15,4.15,0,1,1-3-5A4.15,4.15,0,0,1,16.34,18.69Z"/><g id="g105"><g id="g107"><path id="path109" class="cls-1" d="M14.14,17.1c.08-.55-.34-.85-.91-1l.19-.75L13,15.19l-.18.73-.37-.09.18-.73L12.14,15l-.19.75-.29-.07h0L11,15.5l-.12.49.33.08a.24.24,0,0,1,.21.26l-.21.85,0,0h0l-.3,1.19a.17.17,0,0,1-.21.11l-.33-.08-.23.52.59.15.32.08-.19.76.46.11.19-.75.36.09-.19.75.46.11.19-.76c.78.15,1.36.09,1.61-.62a.8.8,0,0,0-.42-1.11.73.73,0,0,0,.58-.67Zm-1,1.46c-.14.57-1.09.26-1.4.18l.25-1C12.26,17.81,13.25,18,13.1,18.56Zm.14-1.47c-.13.51-.92.25-1.18.19l.23-.91C12.55,16.43,13.37,16.55,13.24,17.09Z"/></g></g></g></g><g id="g111"><path id="path113" class="cls-4" d="M20.33,16a2,2,0,0,1,.87.18,1.76,1.76,0,0,1,.61.48,2,2,0,0,1,.36.71,3.27,3.27,0,0,1,.11.88,3.6,3.6,0,0,1-1,2.5,3.44,3.44,0,0,1-1.09.76,3.34,3.34,0,0,1-1.37.28h-.33a4.84,4.84,0,0,1-.54,0,6.36,6.36,0,0,1-.65-.13,3.23,3.23,0,0,1-.65-.23l1.82-7.64,1.63-.25-.65,2.71a2.52,2.52,0,0,1,.42-.15,1.86,1.86,0,0,1,.45-.05ZM19,20.55a1.43,1.43,0,0,0,.69-.18,1.83,1.83,0,0,0,.56-.48,2.41,2.41,0,0,0,.37-.68,2.31,2.31,0,0,0,.14-.79,1.55,1.55,0,0,0-.17-.79.66.66,0,0,0-.62-.28,2,2,0,0,0-.38.05,1,1,0,0,0-.43.22l-.69,2.88.11,0,.1,0H19Z"/><path id="path115" class="cls-4" d="M24,21.69H22.42l1.31-5.53H25.3Zm.76-6.2a1,1,0,0,1-.59-.19.69.69,0,0,1-.26-.59,1,1,0,0,1,.09-.41A1.11,1.11,0,0,1,24.2,14a1.16,1.16,0,0,1,.34-.23,1,1,0,0,1,.42-.08,1,1,0,0,1,.59.19.69.69,0,0,1,.26.59,1,1,0,0,1-.09.42,1.1,1.1,0,0,1-.24.34,1.14,1.14,0,0,1-.34.23,1,1,0,0,1-.41.08Z"/><path id="path117" class="cls-4" d="M26.66,14.79l1.63-.25-.4,1.63h1.74l-.32,1.28H27.58l-.46,1.93a2.18,2.18,0,0,0-.07.45.83.83,0,0,0,.05.36.46.46,0,0,0,.23.24,1,1,0,0,0,.47.08,2.49,2.49,0,0,0,.49,0,3.45,3.45,0,0,0,.48-.13l.12,1.2a5.6,5.6,0,0,1-.68.2,3.94,3.94,0,0,1-.87.08,2.42,2.42,0,0,1-1.12-.21,1.25,1.25,0,0,1-.57-.59,1.87,1.87,0,0,1-.15-.86,5.54,5.54,0,0,1,.15-1Z"/><path id="path119" class="cls-4" d="M29.56,19.49a3.88,3.88,0,0,1,.23-1.35,3.31,3.31,0,0,1,.66-1.1,3.1,3.1,0,0,1,1-.75A3.34,3.34,0,0,1,32.87,16a3.62,3.62,0,0,1,.85.09,3.42,3.42,0,0,1,.68.24l-.54,1.22-.44-.15a1.9,1.9,0,0,0-.55-.07,1.54,1.54,0,0,0-1.24.54,2.15,2.15,0,0,0-.46,1.44,1.48,1.48,0,0,0,.23.87,1,1,0,0,0,.85.33,2.73,2.73,0,0,0,.59-.06,2.91,2.91,0,0,0,.5-.16l.12,1.25a5.63,5.63,0,0,1-.65.21,3.62,3.62,0,0,1-.85.09,2.87,2.87,0,0,1-1.1-.19,2.1,2.1,0,0,1-.75-.51,1.92,1.92,0,0,1-.43-.75,3.09,3.09,0,0,1-.13-.9Z"/><path id="path121" class="cls-4" d="M36.47,21.84a2.54,2.54,0,0,1-1-.17,1.79,1.79,0,0,1-.68-.47,2,2,0,0,1-.4-.72,2.91,2.91,0,0,1-.14-.92,4.06,4.06,0,0,1,.2-1.26,3.57,3.57,0,0,1,.6-1.13,3.23,3.23,0,0,1,1-.83A2.69,2.69,0,0,1,37.4,16a2.56,2.56,0,0,1,1,.17,1.8,1.8,0,0,1,.68.47,2.05,2.05,0,0,1,.4.72,2.91,2.91,0,0,1,.14.92,4.19,4.19,0,0,1-.2,1.26,3.64,3.64,0,0,1-.59,1.13,3.09,3.09,0,0,1-1,.82,2.76,2.76,0,0,1-1.35.32Zm.78-4.5a1,1,0,0,0-.61.2,1.72,1.72,0,0,0-.44.5,2.49,2.49,0,0,0-.27.67,2.88,2.88,0,0,0-.09.69,1.68,1.68,0,0,0,.17.82.64.64,0,0,0,.61.29,1,1,0,0,0,.61-.2,1.72,1.72,0,0,0,.44-.5,2.5,2.5,0,0,0,.27-.67,2.92,2.92,0,0,0,.09-.69,1.66,1.66,0,0,0-.17-.82A.64.64,0,0,0,37.25,17.34Z"/><path id="path123" class="cls-4" d="M41.28,21.69H39.72L41,16.16H42.6Zm.76-6.2a1,1,0,0,1-.59-.19.69.69,0,0,1-.26-.59,1,1,0,0,1,.09-.41,1.1,1.1,0,0,1,.24-.34,1.16,1.16,0,0,1,.34-.23,1,1,0,0,1,.41-.08,1,1,0,0,1,.59.19.69.69,0,0,1,.26.59,1,1,0,0,1-.09.42,1.09,1.09,0,0,1-.24.34,1.16,1.16,0,0,1-.34.23A1,1,0,0,1,42,15.49Z"/><path id="path125" class="cls-4" d="M43.72,16.42l.39-.12.48-.13a5.79,5.79,0,0,1,.6-.1A6.72,6.72,0,0,1,46,16a1.88,1.88,0,0,1,1.7.72,2.44,2.44,0,0,1,.16,2l-.72,3H45.53l.69-2.92c0-.18.08-.36.1-.53a1.26,1.26,0,0,0,0-.45.54.54,0,0,0-.19-.32.75.75,0,0,0-.47-.12,3.16,3.16,0,0,0-.62.06l-1,4.28H42.45l1.27-5.28Z"/></g></g></g></svg>