<svg id="Capa_1" data-name="Capa 1" xmlns="http://www.w3.org/2000/svg" viewBox="0 0 56.09 35.38"><defs><style>.cls-1{fill:#fff;}.cls-2{fill:#ededed;}.cls-3{fill:#ff5f00;}.cls-4{fill:#eb001b;}.cls-5{fill:#f79e1b;}</style></defs><title>Mesa de trabajo 1</title><rect class="cls-1" x="0.54" y="0.5" width="55" height="34.37" rx="1.83" ry="1.83"/><path class="cls-2" d="M53.71,35.38H2.38A2.34,2.34,0,0,1,0,33V2.33A2.34,2.34,0,0,1,2.38,0H53.71A2.34,2.34,0,0,1,56,2.33V33A2.34,2.34,0,0,1,53.71,35.38ZM2.38,1A1.34,1.34,0,0,0,1,2.33V33a1.33,1.33,0,0,0,1.33,1.33H53.71A1.33,1.33,0,0,0,55,33V2.33A1.33,1.33,0,0,0,53.71,1Z"/><path id="_Trazado_compuesto_" data-name="&lt;Trazado compuesto&gt;" d="M18.93,28.75V27.27a.88.88,0,0,0-.93-.94.91.91,0,0,0-.83.42.86.86,0,0,0-.78-.42.78.78,0,0,0-.69.35v-.29h-.51v2.35h.52v-1.3a.55.55,0,0,1,.58-.63c.34,0,.51.22.51.62v1.31h.52v-1.3a.55.55,0,0,1,.58-.63c.35,0,.52.22.52.62v1.31Zm7.65-2.35h-.84v-.71h-.52v.71h-.48v.47h.48v1.07c0,.55.21.87.82.87a1.2,1.2,0,0,0,.64-.18l-.15-.44a.94.94,0,0,1-.45.13c-.26,0-.34-.16-.34-.39V26.86h.84Zm4.37-.06a.69.69,0,0,0-.62.34v-.29h-.51v2.35h.51V27.43c0-.39.17-.61.5-.61a.83.83,0,0,1,.32.06l.16-.48a1.09,1.09,0,0,0-.36-.06Zm-6.6.25a1.76,1.76,0,0,0-1-.25c-.6,0-1,.29-1,.75s.29.62.81.69l.24,0c.28,0,.41.11.41.25s-.19.29-.54.29a1.25,1.25,0,0,1-.78-.25l-.24.4a1.7,1.7,0,0,0,1,.31c.68,0,1.07-.32,1.07-.77s-.31-.63-.82-.7l-.24,0c-.22,0-.4-.07-.4-.23s.17-.28.45-.28a1.52,1.52,0,0,1,.73.2ZM38,26.33a.69.69,0,0,0-.62.34v-.29h-.51v2.35h.51V27.43c0-.39.17-.61.5-.61a.83.83,0,0,1,.32.06l.16-.48a1.09,1.09,0,0,0-.36-.06Zm-6.59,1.24a1.19,1.19,0,0,0,1.26,1.24,1.23,1.23,0,0,0,.85-.28l-.25-.41a1,1,0,0,1-.62.21.75.75,0,0,1,0-1.51,1,1,0,0,1,.62.21l.25-.41a1.23,1.23,0,0,0-.85-.28,1.19,1.19,0,0,0-1.26,1.24Zm4.79,0V26.39h-.51v.29a.89.89,0,0,0-.74-.34,1.24,1.24,0,0,0,0,2.47.89.89,0,0,0,.74-.34v.29h.51Zm-1.9,0a.71.71,0,1,1,.71.75.71.71,0,0,1-.71-.75Zm-6.18-1.24a1.24,1.24,0,0,0,0,2.47,1.43,1.43,0,0,0,1-.33l-.25-.38a1.12,1.12,0,0,1-.68.25.65.65,0,0,1-.7-.58h1.75c0-.06,0-.13,0-.2a1.13,1.13,0,0,0-1.12-1.24Zm0,.46a.58.58,0,0,1,.6.57H27.53a.61.61,0,0,1,.63-.57ZM41,27.57V25.45h-.51v1.23a.89.89,0,0,0-.74-.34,1.24,1.24,0,0,0,0,2.47.89.89,0,0,0,.74-.34v.29H41Zm-1.9,0a.71.71,0,1,1,.71.75.71.71,0,0,1-.71-.75Zm-17.28,0V26.39H21.3v.29a.89.89,0,0,0-.74-.34,1.24,1.24,0,0,0,0,2.47.89.89,0,0,0,.74-.34v.29h.51Zm-1.9,0a.71.71,0,1,1,.71.75A.71.71,0,0,1,19.9,27.57Z"/><g id="_Grupo_" data-name="&lt;Grupo&gt;"><rect class="cls-3" x="24.17" y="8.46" width="7.75" height="13.93"/><path id="_Trazado_" data-name="&lt;Trazado&gt;" class="cls-4" d="M24.66,15.43a8.84,8.84,0,0,1,3.38-7A8.86,8.86,0,1,0,28,22.4,8.84,8.84,0,0,1,24.66,15.43Z"/><path class="cls-5" d="M42.38,15.43A8.86,8.86,0,0,1,28,22.4,8.86,8.86,0,0,0,28,8.46a8.86,8.86,0,0,1,14.33,7Z"/></g></svg>