<svg id="Capa_1" data-name="Capa 1" xmlns="http://www.w3.org/2000/svg" viewBox="0 0 55 30"><defs><style>.cls-1{fill:#b8b8b8;}</style></defs><title>ornamento-left</title><path class="cls-1" d="M52.18,11.73C50,13.78,46.86,13.84,44,13.6l-1.26-.11,0,0a3.52,3.52,0,0,1-1.43-2.58,5.94,5.94,0,0,0-.53-1.79c-.14-.28-.39-.55-.49-.84v0a.18.18,0,0,0-.21-.11.19.19,0,0,0-.17.12,5.38,5.38,0,0,0-.45,3.06,3.24,3.24,0,0,0,1.05,1.83,2.34,2.34,0,0,0,.27.21c-.39,0-.78,0-1.17,0a15.36,15.36,0,0,0-4.14.7,13.19,13.19,0,0,1-4.82.67,31.4,31.4,0,0,1-4.2-.74c-.71-.15-1.42-.3-2.14-.42l0,0a16.66,16.66,0,0,0-4.42-2.85c0-.26,0-.55,0-.81a6.11,6.11,0,0,0-.36-1.46,3.22,3.22,0,0,1-.2-2.78c.12-.21-.21-.4-.36-.21-.39.51-1,.86-1.21,1.48a2.71,2.71,0,0,0,0,1.95,4.36,4.36,0,0,0,1,1.41A10.74,10.74,0,0,0,16,9.71a5.18,5.18,0,0,0-1.77.09.76.76,0,0,0-1,.07l0,0,0,0a.73.73,0,0,0-.06,1,.76.76,0,0,0,1-.07.83.83,0,0,0,.27-.73,6.29,6.29,0,0,1,2.39,0,11,11,0,0,1,2.66.73,15.67,15.67,0,0,1,4,2.48,13.74,13.74,0,0,0-1.46-.1,14.77,14.77,0,0,0-3.79.52c-1.62.4-3.2,1-4.84,1.23a10.67,10.67,0,0,1-4.77-.22l0,0a15,15,0,0,1-1.07-1.93,8.5,8.5,0,0,0-1.37-1.81,7.15,7.15,0,0,0-3.49-2c-.21,0-.31.25-.16.37C3.73,10.46,4.13,12,5,13.17a5.22,5.22,0,0,0,3.2,2h0a10.48,10.48,0,0,0,3.21.46,5.5,5.5,0,0,0-2.26,1.61C7.93,18.86,8,21.34,6,22.44c-.19.11-.15.44.1.4a7.22,7.22,0,0,0,3-.87A5.34,5.34,0,0,0,11,19.48a14.68,14.68,0,0,1,2.63-4.05h0a24.4,24.4,0,0,0,2.67-.61,27.61,27.61,0,0,1,4.47-1,15.68,15.68,0,0,1,4.83.39l1.24.26a3.8,3.8,0,0,0-1.18,1.87A3,3,0,0,1,24,18.18a10.37,10.37,0,0,1-1.57.52c-2.87.75-7.14,2-6.45,5.83,0,.16.26.27.37.11,1-1.51,2.59-1.63,4-2.45A4.87,4.87,0,0,0,22.74,19,5.12,5.12,0,0,0,25.3,17.8c.86-1,.76-2.72,2.13-3.21l0,0a19.17,19.17,0,0,0,4.77.5c-1,.61-2.14,1.53-2.05,2.7a.2.2,0,0,0,0,.1A4.9,4.9,0,0,0,32.08,21c1.43,1.08,3.24,1.21,4.22,2.87.1.18.34.06.38-.09.48-1.9.1-3.89-1.62-5a8.14,8.14,0,0,0-4.46-1.21c0-1.22,1.74-2.19,2.65-2.62l.06,0a10.16,10.16,0,0,0,1-.2,24.55,24.55,0,0,1,4.6-1A35.38,35.38,0,0,1,44,14a21.92,21.92,0,0,0,3,.07,2.48,2.48,0,0,0-.59.57,1.86,1.86,0,0,0-.35,1.13A4.37,4.37,0,0,0,46.5,17a.21.21,0,0,0,.4-.1c-.13-.69.38-1.22.78-1.71a6.69,6.69,0,0,0,.69-1.26,7.58,7.58,0,0,0,4.06-1.88C52.62,11.88,52.38,11.54,52.18,11.73ZM18.32,9a2.34,2.34,0,0,1-.2-2.11,2.25,2.25,0,0,1,.49-.65,3.59,3.59,0,0,0,.07,1.17c.17.77.57,1.44.69,2.23a4.53,4.53,0,0,1,0,.62A4.68,4.68,0,0,1,18.32,9ZM4.73,11.89A13.72,13.72,0,0,0,3.41,9.72a7.05,7.05,0,0,1,3,2.14A25.9,25.9,0,0,1,8,14.64H8a.21.21,0,0,0-.13,0A5.25,5.25,0,0,1,4.73,11.89Zm4.72,9.26A4.49,4.49,0,0,1,6.93,22.3a7.93,7.93,0,0,0,1.8-3.2,4.85,4.85,0,0,1,1.8-2.49,6.9,6.9,0,0,1,2.35-1A12.21,12.21,0,0,0,11,18.22,10,10,0,0,1,9.45,21.15ZM19,22.33A6,6,0,0,0,16.37,24c-.16-3,3.38-4.11,5.9-4.78A4.81,4.81,0,0,1,19,22.33Zm15.2-3.46a3.37,3.37,0,0,1,2.07,2.33,5.5,5.5,0,0,1,0,2.06,6.49,6.49,0,0,0-2.79-1.87,4.65,4.65,0,0,1-2.89-3.34A7.86,7.86,0,0,1,34.25,18.87Zm6.51-6.07a2.88,2.88,0,0,1-1-2.11,5.29,5.29,0,0,1,.31-1.87,5.37,5.37,0,0,1,.36.61A15.18,15.18,0,0,1,41,11.74a3.88,3.88,0,0,0,.9,1.59A2.27,2.27,0,0,1,40.76,12.8Zm7,1.53c-.25.47-.64.8-.92,1.25a2.64,2.64,0,0,0-.27.58l0-.09a1.46,1.46,0,0,1,.53-1.48,3,3,0,0,1,.8-.48A2.15,2.15,0,0,1,47.76,14.33Z"/></svg>