<svg id="Capa_1" data-name="Capa 1" xmlns="http://www.w3.org/2000/svg" viewBox="0 0 30 30"><defs><style>.cls-1{fill:#b8b8b8;}</style></defs><title>login</title><path class="cls-1" d="M23.44,10A8.52,8.52,0,0,0,6.56,10a8.54,8.54,0,0,0,0,1.9l.53,5.51A1.22,1.22,0,0,0,8.3,18.55h3.16a5.58,5.58,0,0,0,1,.67v1.17a.9.9,0,0,1-.7.87l-2.54.55a3.52,3.52,0,0,0-1.38.56,1.75,1.75,0,0,0-.74,1.54A1.84,1.84,0,0,0,8,25.44a14.78,14.78,0,0,0,7,1.89,14.62,14.62,0,0,0,6.6-1.89,1.83,1.83,0,0,0,.1-3.15,3.52,3.52,0,0,0-1.21-.47l-2.57-.56a.9.9,0,0,1-.7-.87v-1a5.55,5.55,0,0,0,1.33-.82H21.7a1.22,1.22,0,0,0,1.22-1.11l.53-5.52A8.53,8.53,0,0,0,23.44,10Zm-9.29,1.33a.52.52,0,0,0,.48.32H16a.52.52,0,0,0,.34-.13,5.32,5.32,0,0,0,1.33-2.23,4.88,4.88,0,0,0,1.9,2.48v1.75A6.24,6.24,0,0,1,18,17.65h0a4.53,4.53,0,0,1-6,0h0a6.24,6.24,0,0,1-1.53-4.09V12.3a9.19,9.19,0,0,0,4.37-2.95,2.49,2.49,0,0,1-.55,1.45A.52.52,0,0,0,14.15,11.37ZM17.7,22.28l2.6.57a2.6,2.6,0,0,1,.86.33.76.76,0,0,1,.36.68.79.79,0,0,1-.41.68A13.57,13.57,0,0,1,15,26.3a13.73,13.73,0,0,1-6.46-1.76.81.81,0,0,1-.41-.67.72.72,0,0,1,.3-.64,2.6,2.6,0,0,1,1-.39L12,22.28a1.94,1.94,0,0,0,1.52-1.88v-.77a5.49,5.49,0,0,0,2.68.08v.69A1.94,1.94,0,0,0,17.7,22.28Zm4.73-10.45-.53,5.52a.19.19,0,0,1-.19.17H19.45a8,8,0,0,0,1.13-4V11.47a.52.52,0,0,0-.35-.49c-1.3-.45-2.05-3.11-2.23-4.09A.52.52,0,0,0,17,7a5.45,5.45,0,0,1-1.21,3.67h-.2a7.32,7.32,0,0,0,.28-3.26.52.52,0,0,0-.45-.44.51.51,0,0,0-.54.32,7.84,7.84,0,0,1-5,4.14.52.52,0,0,0-.4.5v1.65a8,8,0,0,0,1.13,4H8.3a.19.19,0,0,1-.19-.18l-.53-5.5a7.53,7.53,0,0,1,0-1.66,7.48,7.48,0,0,1,14.83,0A7.52,7.52,0,0,1,22.43,11.83Z"/></svg>