<svg id="Capa_1" data-name="Capa 1" xmlns="http://www.w3.org/2000/svg" viewBox="0 0 30 30"><defs><style>.cls-1{fill:#f37579;}</style></defs><title>quickview</title><g id="_Grupo_" data-name="&lt;Grupo&gt;"><g id="_Grupo_2" data-name="&lt;Grupo&gt;"><path id="_Trazado_compuesto_" data-name="&lt;Trazado compuesto&gt;" class="cls-1" d="M24.7,14.3a17.12,17.12,0,0,0-2.82-2.45A12,12,0,0,0,15,9.33a12.37,12.37,0,0,0-7,2.52A14.91,14.91,0,0,0,5.28,14.3a1,1,0,0,0,0,1.41,17.12,17.12,0,0,0,2.82,2.45,12.19,12.19,0,0,0,7,2.52,12.19,12.19,0,0,0,7-2.52,22.39,22.39,0,0,0,2.82-2.45A1.25,1.25,0,0,0,24.7,14.3Zm-3,3.19A11.94,11.94,0,0,1,15,19.93a11.41,11.41,0,0,1-6.67-2.45A25.62,25.62,0,0,1,5.57,15a18.76,18.76,0,0,1,2.74-2.45A11.94,11.94,0,0,1,15,10.14a11.41,11.41,0,0,1,6.67,2.45A16.48,16.48,0,0,1,24.4,15,13.74,13.74,0,0,1,21.66,17.48Z"/><circle id="_Trazado_" data-name="&lt;Trazado&gt;" class="cls-1" cx="14.99" cy="15.04" r="1.04"/><path id="_Trazado_compuesto_2" data-name="&lt;Trazado compuesto&gt;" class="cls-1" d="M15,11.63A3.39,3.39,0,0,0,11.65,15a3.34,3.34,0,1,0,6.67,0A3.39,3.39,0,0,0,15,11.63Zm0,6A2.58,2.58,0,0,1,12.39,15,2.63,2.63,0,0,1,15,12.44,2.58,2.58,0,0,1,17.58,15,2.53,2.53,0,0,1,15,17.63Z"/></g></g></svg>