<svg id="Capa_1" data-name="Capa 1" xmlns="http://www.w3.org/2000/svg" viewBox="0 0 40 40"><defs><style>.cls-1{fill:#97e2e0;}.cls-2{fill:#fac6c9;}</style></defs><title>cart</title><path class="cls-1" d="M30.85,8.87H25.91V6.06A2.92,2.92,0,0,0,23,3.15H17a2.92,2.92,0,0,0-2.91,2.92V8.87H9.15a.65.65,0,0,0-.65.65V36.2a.65.65,0,0,0,.65.65h21.7a.65.65,0,0,0,.65-.65V9.52A.65.65,0,0,0,30.85,8.87ZM15.4,6.06A1.62,1.62,0,0,1,17,4.45h6A1.62,1.62,0,0,1,24.6,6.06V8.87H15.4Zm-.65,4.11H30.2V31.74H9.8V10.17ZM9.8,35.55V33H30.2v2.51Z"/><path class="hearth" d="M20,27.52s6.22-4.52,6.22-7.87c0-3.18-4.84-4.57-6.22-.39-1.38-4.18-6.22-2.8-6.22.39C13.78,23,20,27.52,20,27.52Z"/></svg>
