<?xml version="1.0" encoding="utf-8"?>
<!-- Generator: Adobe Illustrator 21.0.0, SVG Export Plug-In . SVG Version: 6.00 Build 0)  -->
<svg version="1.1" id="Capa_1" xmlns="http://www.w3.org/2000/svg" xmlns:xlink="http://www.w3.org/1999/xlink" x="0px" y="0px"
	 viewBox="0 0 56.1 35.4" style="enable-background:new 0 0 56.1 35.4;" xml:space="preserve">
<title>Mesa de trabajo 1</title>
<g>
	<path style="fill:#FFFFFF;" d="M55.5,33.1c0,1-0.8,1.8-1.8,1.8H2.3c-1,0-1.8-0.8-1.8-1.8V2.4c0-1,0.8-1.8,1.8-1.8h51.3
		c1,0,1.8,0.8,1.8,1.8V33.1z"/>
	<path style="fill:#EDEDED;" d="M53.7,35.4H2.3c-1.3,0-2.3-1-2.3-2.3V2.4c0-1.3,1-2.3,2.3-2.3h51.3c1.3,0,2.3,1,2.3,2.3v30.7
		C56,34.4,55,35.4,53.7,35.4z M2.3,1.1C1.6,1.1,1,1.7,1,2.4v30.7c0,0.7,0.6,1.3,1.3,1.3h51.3c0.7,0,1.3-0.6,1.3-1.3V2.4
		c0-0.7-0.6-1.3-1.3-1.3H2.3z"/>
</g>
<g>
	<path style="fill:#004A97;" d="M29.3,19.2c3.1,0,5.9-2.4,5.9-5.4c0-3.3-2.8-5.5-5.9-5.5h-2.7c-3.1,0-5.7,2.2-5.7,5.5
		c0,3,2.6,5.4,5.7,5.4H29.3z"/>
	<path style="fill:#FFFFFF;" d="M27.8,16.7v-5.9c1.2,0.5,2.1,1.6,2.1,3C30,15.1,29.1,16.3,27.8,16.7 M23.4,13.8c0-1.3,0.9-2.5,2.1-3
		v5.9C24.2,16.3,23.4,15.1,23.4,13.8 M26.7,8.8c-2.9,0-5.2,2.2-5.2,5c0,2.8,2.3,5,5.2,5c2.9,0,5.2-2.2,5.2-5
		C31.9,11,29.5,8.8,26.7,8.8"/>
	<path style="fill:#004A97;" d="M15.1,23c0,0.4,0.3,0.5,0.6,0.5c1.3,0,1.7-0.9,1.7-1.8c0-1.1-0.7-1.9-1.9-1.9c-0.2,0-0.4,0-0.5,0V23
		z M14.5,20.3c0-0.5-0.3-0.5-0.6-0.5v-0.2c0.2,0,0.5,0,0.7,0c0.3,0,0.6,0,1,0c1.6,0,2.4,1,2.4,2c0,0.6-0.3,2-2.5,2
		c-0.3,0-0.6,0-0.9,0c-0.3,0-0.5,0-0.8,0v-0.1c0.4,0,0.5,0,0.6-0.4V20.3z"/>
	<path style="fill:#004A97;" d="M19,20.1c-0.2,0-0.3-0.1-0.3-0.3c0-0.1,0.1-0.3,0.3-0.3c0.2,0,0.3,0.1,0.3,0.3
		C19.3,20,19.1,20.1,19,20.1 M18.3,23.5h0.1c0.2,0,0.3,0,0.3-0.2v-1.6c0-0.3-0.1-0.3-0.3-0.4v-0.1c0.3-0.1,0.6-0.2,0.6-0.2
		c0,0,0.1,0,0.1,0c0,0,0,0,0,0.1v2.2c0,0.2,0.1,0.2,0.3,0.2h0.1v0.1c-0.2,0-0.4,0-0.6,0c-0.2,0-0.4,0-0.7,0V23.5z"/>
	<path style="fill:#004A97;" d="M20.2,21.8c0-0.2-0.1-0.3-0.3-0.4v-0.1c0.3-0.1,0.5-0.2,0.8-0.3c0,0,0,0,0,0.1v0.4
		c0.3-0.2,0.6-0.4,1-0.4c0.5,0,0.7,0.4,0.7,0.8v1.5c0,0.2,0.1,0.2,0.3,0.2h0.1v0.1c-0.2,0-0.4,0-0.6,0c-0.2,0-0.4,0-0.6,0v-0.1h0.1
		c0.2,0,0.3,0,0.3-0.2v-1.5c0-0.3-0.2-0.5-0.6-0.5c-0.2,0-0.5,0.1-0.7,0.3v1.7c0,0.2,0.1,0.2,0.3,0.2h0.1v0.1c-0.2,0-0.4,0-0.6,0
		c-0.2,0-0.4,0-0.6,0v-0.1h0.1c0.2,0,0.3,0,0.3-0.2V21.8z"/>
	<path style="fill:#004A97;" d="M24.3,21.9c0.2,0,0.2-0.1,0.2-0.1c0-0.3-0.2-0.5-0.5-0.5c-0.4,0-0.6,0.3-0.7,0.7H24.3z M23.3,22.1
		c0,0.1,0,0.1,0,0.3c0,0.5,0.4,1,0.9,1c0.3,0,0.6-0.2,0.8-0.4l0.1,0.1c-0.3,0.4-0.6,0.7-1.1,0.7c-1,0-1.1-0.9-1.1-1.3
		c0-1.1,0.8-1.5,1.2-1.5c0.5,0,1,0.3,1,0.9c0,0,0,0.1,0,0.1l-0.1,0H23.3z"/>
	<path style="fill:#004A97;" d="M25.1,23.5h0.2c0.2,0,0.3,0,0.3-0.2v-1.6c0-0.2-0.2-0.2-0.3-0.3v-0.1C25.7,21.2,26,21,26,21
		c0,0,0.1,0,0.1,0.1v0.5h0c0.1-0.2,0.4-0.6,0.8-0.6c0.2,0,0.3,0.1,0.3,0.3c0,0.2-0.1,0.3-0.3,0.3c-0.2,0-0.2-0.1-0.4-0.1
		c-0.1,0-0.4,0.1-0.4,0.5v1.4c0,0.2,0.1,0.2,0.3,0.2h0.3v0.1c-0.3,0-0.6,0-0.8,0c-0.2,0-0.5,0-0.7,0V23.5z"/>
	<path style="fill:#004A97;" d="M27.5,22.8c0.1,0.4,0.3,0.7,0.8,0.7c0.4,0,0.5-0.2,0.5-0.4c0-0.7-1.3-0.5-1.3-1.4
		c0-0.3,0.3-0.7,0.9-0.7c0.2,0,0.5,0.1,0.7,0.2l0,0.6h-0.1c-0.1-0.4-0.3-0.6-0.7-0.6c-0.2,0-0.5,0.1-0.5,0.4c0,0.7,1.4,0.5,1.4,1.4
		c0,0.4-0.3,0.8-1,0.8c-0.2,0-0.5-0.1-0.7-0.2l-0.1-0.7L27.5,22.8z"/>
	<path style="fill:#004A97;" d="M34.6,20.7h-0.2c-0.1-0.7-0.6-0.9-1.3-0.9c-0.7,0-1.7,0.4-1.7,1.8c0,1.2,0.9,2,1.8,2
		c0.6,0,1.1-0.4,1.2-1l0.1,0l-0.1,0.8c-0.3,0.2-0.9,0.3-1.3,0.3c-1.4,0-2.3-0.9-2.3-2.2c0-1.2,1.1-2,2.3-2c0.5,0,1,0.2,1.4,0.3
		L34.6,20.7z"/>
	<path style="fill:#004A97;" d="M34.8,23.5h0.1c0.2,0,0.3,0,0.3-0.2v-3.2c0-0.4-0.1-0.4-0.3-0.5v-0.1c0.2-0.1,0.5-0.2,0.6-0.2
		c0.1,0,0.1-0.1,0.1-0.1c0,0,0,0,0,0.1v4c0,0.2,0.1,0.2,0.3,0.2h0.1v0.1c-0.2,0-0.4,0-0.6,0c-0.2,0-0.4,0-0.7,0V23.5z"/>
	<path style="fill:#004A97;" d="M38.7,23.3c0,0.1,0.1,0.1,0.2,0.1c0.1,0,0.2,0,0.2,0v0.1c-0.3,0-0.8,0.1-0.9,0.2l0,0v-0.5
		c-0.4,0.3-0.6,0.5-1.1,0.5c-0.3,0-0.7-0.2-0.7-0.7v-1.5c0-0.1,0-0.3-0.4-0.3v-0.1c0.2,0,0.7,0,0.8,0c0.1,0,0.1,0,0.1,0.2v1.5
		c0,0.2,0,0.7,0.5,0.7c0.2,0,0.5-0.1,0.7-0.4v-1.6c0-0.1-0.3-0.2-0.5-0.2v-0.1c0.5,0,0.9-0.1,0.9-0.1c0,0,0,0,0,0.1V23.3z"/>
	<path style="fill:#004A97;" d="M39.9,23c0,0.2,0.2,0.6,0.6,0.6c0.6,0,0.9-0.6,0.9-1.1c0-0.6-0.5-1.1-1-1.1c-0.2,0-0.4,0.1-0.6,0.3
		V23z M39.9,21.4c0.2-0.2,0.6-0.4,0.9-0.4c0.7,0,1.1,0.6,1.1,1.2c0,0.8-0.6,1.5-1.4,1.5c-0.4,0-0.7-0.1-0.8-0.2l-0.2,0.1l-0.1-0.1
		c0.1-0.3,0.1-0.7,0.1-1v-2.5c0-0.4-0.1-0.4-0.3-0.5v-0.1c0.2-0.1,0.5-0.2,0.6-0.2c0.1,0,0.1-0.1,0.1-0.1c0,0,0,0,0,0.1V21.4z"/>
	<path style="fill:#004A97;" d="M14,27L14,27c0.2,0,0.3,0,0.3-0.2v-1.6c0-0.2-0.1-0.2-0.2-0.2h0v-0.1c0.1,0,0.3,0,0.5,0
		c0.2,0,0.4,0,0.5,0V25h0c-0.1,0-0.2,0-0.2,0.2v1.6c0,0.2,0.1,0.2,0.2,0.2h0v0.1c-0.2,0-0.4,0-0.5,0C14.3,27.1,14.1,27.1,14,27
		L14,27z"/>
	<path style="fill:#004A97;" d="M14.9,27.1L14.9,27.1L14.9,27.1c-0.1-0.1-0.3-0.1-0.3-0.3v-1.6c0-0.2,0.1-0.2,0.3-0.2h0v-0.1
		c-0.2,0-0.3,0-0.5,0c-0.2,0-0.3,0-0.5,0V25h0c0.1,0,0.3,0,0.3,0.2v1.6c0,0.2-0.1,0.2-0.3,0.2h0v0.1c0.1,0,0.3,0,0.5,0
		C14.6,27.1,14.8,27.1,14.9,27.1 M14.9,27.1c-0.2,0-0.4,0-0.5,0c-0.2,0-0.4,0-0.5,0h0v0V27v0h0h0c0.1,0,0.2,0,0.2-0.2v-1.6
		c0-0.2-0.1-0.2-0.2-0.2h-0.1v0v-0.1h0c0.1,0,0.3,0,0.5,0c0.2,0,0.4,0,0.5,0h0v0V25h0h0c-0.1,0-0.2,0-0.2,0.2v1.6
		c0,0.2,0.1,0.2,0.2,0.2H15v0L14.9,27.1L14.9,27.1z"/>
	<path style="fill:#004A97;" d="M17.2,26.5L17.2,26.5l0-1.2c0-0.3-0.2-0.3-0.3-0.3h-0.1v-0.1c0.2,0,0.3,0,0.5,0c0.1,0,0.3,0,0.4,0
		V25h0c-0.1,0-0.3,0-0.3,0.4v1.4c0,0.1,0,0.2,0,0.3h-0.1l-1.7-1.8v1.3c0,0.3,0.1,0.4,0.3,0.4h0.1v0.1c-0.1,0-0.3,0-0.4,0
		c-0.1,0-0.3,0-0.4,0V27h0c0.2,0,0.3-0.1,0.3-0.4v-1.3c0-0.2-0.2-0.3-0.3-0.3h0v-0.1c0.1,0,0.3,0,0.4,0c0.1,0,0.2,0,0.3,0L17.2,26.5
		z"/>
	<path style="fill:#004A97;" d="M17.2,26.5L17.2,26.5L17.2,26.5L17.2,26.5z M17.2,26.5L17.2,26.5L17.2,26.5z M17.3,27.1h0.1
		c0-0.1,0-0.2,0-0.3v-1.4c0-0.4,0.2-0.4,0.3-0.4h0v-0.1c-0.1,0-0.3,0-0.4,0c-0.1,0-0.3,0-0.4,0V25h0.1c0.1,0,0.3,0,0.3,0.3l0,1.2
		l0,0l0,0l-1.5-1.6c-0.1,0-0.2,0-0.3,0c-0.1,0-0.2,0-0.4,0V25h0c0.2,0,0.3,0.1,0.3,0.3v1.3c0,0.3-0.1,0.4-0.3,0.4l0,0v0.1
		c0.1,0,0.3,0,0.4,0c0.1,0,0.3,0,0.4,0V27h0c-0.3,0-0.3-0.1-0.3-0.4v-1.3L17.3,27.1z M17.4,27.2l-0.1,0l-1.7-1.8v1.3
		c0,0.3,0,0.4,0.3,0.4H16v0v0.1h0c-0.1,0-0.3,0-0.4,0c-0.1,0-0.3,0-0.4,0h0v0V27h0h0c0.2,0,0.3-0.1,0.3-0.4v-1.3
		c0-0.2-0.1-0.3-0.3-0.3h-0.1v0v-0.1h0c0.1,0,0.3,0,0.4,0c0.1,0,0.2,0,0.3,0l1.4,1.6v-1.2c0-0.2-0.2-0.3-0.3-0.3h-0.1v0v-0.1h0
		c0.2,0,0.3,0,0.5,0c0.1,0,0.3,0,0.4,0h0v0V25h0h0c-0.1,0-0.3,0-0.3,0.4v1.4C17.4,26.9,17.4,27,17.4,27.2L17.4,27.2L17.4,27.2z"/>
	<path style="fill:#004A97;" d="M18.2,25.1c-0.2,0-0.3,0.1-0.3,0.3h-0.1c0-0.1,0-0.2,0-0.3c0-0.1,0-0.2,0-0.3h0.1
		c0,0.1,0.1,0.1,0.2,0.1h1.7c0.1,0,0.2,0,0.2-0.1l0.1,0c0,0.1,0,0.2,0,0.3c0,0.1,0,0.2,0,0.3l-0.1,0c0-0.1,0-0.3-0.2-0.3h-0.5v1.7
		c0,0.2,0.1,0.3,0.3,0.3h0.1v0.1c-0.1,0-0.4,0-0.5,0c-0.2,0-0.4,0-0.6,0V27h0.1c0.2,0,0.3,0,0.3-0.3v-1.7H18.2z"/>
	<path style="fill:#004A97;" d="M19.5,27.1c-0.1,0-0.4,0-0.5,0c-0.2,0-0.4,0-0.6,0h0v0V27h0h0.1c0.2,0,0.3,0,0.3-0.2v-1.7h-0.5v0v0
		h0.6v1.7c0,0.3-0.1,0.3-0.3,0.3h0v0.1c0.1,0,0.3,0,0.5,0C19.1,27.1,19.3,27.1,19.5,27.1L19.5,27.1L19.5,27.1
		c-0.2-0.1-0.3-0.1-0.3-0.4V25h0.6c0.2,0,0.2,0.2,0.3,0.3l0.1,0c0-0.1,0-0.2,0-0.2c0-0.1,0-0.2,0-0.2l-0.1,0c0,0.1-0.1,0.1-0.2,0.1
		h-1.7h0c-0.1,0-0.2,0-0.2-0.1h-0.1c0,0.1,0,0.2,0,0.3c0,0.1,0,0.2,0,0.3h0.1c0-0.2,0.1-0.3,0.3-0.3v0v0c-0.2,0-0.2,0-0.3,0.3l0,0h0
		h-0.1l0,0c0-0.1,0-0.2,0-0.3c0-0.1,0-0.2,0-0.3v0h0h0.1l0,0c0,0.1,0.1,0.1,0.2,0.1h0h1.7c0.1,0,0.2,0,0.2-0.1l0,0l0,0l0.1,0l0,0
		c0,0.1,0,0.2,0,0.3c0,0.1,0,0.2,0,0.3v0l0,0l-0.1,0l0,0c0-0.1,0-0.3-0.2-0.3h-0.5v1.7c0,0.2,0.1,0.3,0.3,0.3h0.1v0L19.5,27.1
		L19.5,27.1z"/>
	<path style="fill:#004A97;" d="M20.2,27L20.2,27c0.2,0,0.3,0,0.3-0.2v-1.6c0-0.2-0.1-0.2-0.2-0.2h0v-0.1c0.2,0,0.5,0,0.8,0
		c0.3,0,0.6,0,0.8,0c0,0.1,0,0.3,0,0.5l-0.1,0c0-0.2-0.1-0.4-0.4-0.4h-0.5v0.8h0.4c0.2,0,0.2-0.1,0.3-0.3h0.1c0,0.1,0,0.2,0,0.4
		c0,0.1,0,0.2,0,0.4l-0.1,0c0-0.2,0-0.3-0.3-0.3h-0.4v0.7c0,0.2,0.2,0.2,0.4,0.2c0.4,0,0.6,0,0.7-0.4l0.1,0c0,0.2-0.1,0.3-0.1,0.5
		c-0.2,0-0.6,0-0.9,0C20.8,27.1,20.4,27.1,20.2,27L20.2,27z"/>
	<path style="fill:#004A97;" d="M21.9,27.1c0-0.2,0.1-0.3,0.1-0.5l-0.1,0c-0.1,0.4-0.3,0.4-0.7,0.4c-0.2,0-0.4,0-0.4-0.2V26h0.4
		c0.2,0,0.3,0.1,0.3,0.3l0.1,0c0-0.1,0-0.2,0-0.3c0-0.1,0-0.2,0-0.4h-0.1c0,0.2-0.1,0.3-0.3,0.3h-0.4V25h0.5c0.3,0,0.4,0.2,0.4,0.4
		l0.1,0c0-0.1,0-0.2,0-0.3c0-0.1,0-0.1,0-0.1c-0.2,0-0.6,0-0.8,0c-0.3,0-0.6,0-0.8,0V25h0c0.1,0,0.3,0,0.3,0.2v1.6
		c0,0.2-0.1,0.2-0.3,0.2h0v0.1c0.2,0,0.6,0,0.9,0C21.3,27.1,21.7,27.1,21.9,27.1 M21.9,27.1c-0.2,0-0.6,0-0.9,0s-0.7,0-0.9,0h0v0V27
		v0h0h0c0.1,0,0.2,0,0.2-0.2v-1.6c0-0.2-0.1-0.2-0.2-0.2h-0.1v0v-0.1h0c0.2,0,0.5,0,0.8,0c0.3,0,0.6,0,0.8,0h0l0,0c0,0,0,0.1,0,0.2
		c0,0.1,0,0.2,0,0.3v0l0,0l-0.1,0l0,0c0-0.2,0-0.4-0.4-0.4h-0.4v0.8h0.4c0.2,0,0.2-0.1,0.2-0.3l0,0h0h0.1l0,0c0,0.1,0,0.2,0,0.4
		c0,0.1,0,0.2,0,0.4l0,0l0,0l-0.1,0l0,0c0-0.2,0-0.3-0.2-0.3h-0.4v0.7c0,0.2,0.2,0.2,0.4,0.2c0.4,0,0.6,0,0.6-0.4l0,0l0,0l0.1,0l0,0
		C22,26.8,22,26.9,21.9,27.1L21.9,27.1L21.9,27.1z"/>
	<path style="fill:#004A97;" d="M22.9,26h0.2c0.3,0,0.5-0.1,0.5-0.5c0-0.3-0.2-0.5-0.5-0.5c-0.1,0-0.1,0-0.2,0V26z M22.5,25.2
		c0-0.2-0.1-0.2-0.2-0.2h-0.1v-0.1c0.1,0,0.3,0,0.5,0c0.2,0,0.4,0,0.5,0c0.4,0,0.8,0.1,0.8,0.6c0,0.3-0.2,0.5-0.5,0.6l0.6,0.8
		c0.1,0.1,0.2,0.2,0.3,0.2v0.1c-0.1,0-0.2,0-0.3,0c-0.1,0-0.2,0-0.3,0c-0.3-0.3-0.5-0.7-0.7-1h-0.2v0.7c0,0.2,0.1,0.3,0.3,0.3h0.1
		v0.1c-0.2,0-0.4,0-0.6,0c-0.2,0-0.3,0-0.5,0V27h0.1c0.1,0,0.2-0.1,0.2-0.2V25.2z"/>
	<path style="fill:#004A97;" d="M23.1,26c0.3,0,0.5-0.1,0.5-0.5c0-0.3-0.2-0.4-0.5-0.4c-0.1,0-0.1,0-0.2,0V26H23.1z M22.9,26
		L22.9,26l0-1l0,0c0,0,0.1,0,0.2,0c0.3,0,0.5,0.2,0.5,0.5c0,0.4-0.2,0.5-0.5,0.5H22.9z M22.9,26.1h0.2l0,0c0.2,0.4,0.4,0.7,0.7,1
		c0.1,0,0.2,0,0.3,0c0.1,0,0.2,0,0.3,0V27c-0.2,0-0.2-0.1-0.3-0.2L23.5,26l0,0c0.3-0.1,0.4-0.3,0.4-0.5c0-0.4-0.4-0.5-0.8-0.5
		c-0.2,0-0.3,0-0.5,0c-0.2,0-0.4,0-0.5,0V25h0c0.1,0,0.2,0,0.2,0.3v1.6c0,0.1-0.1,0.2-0.2,0.2h0v0.1c0.2,0,0.3,0,0.5,0
		c0.2,0,0.4,0,0.5,0V27h0c-0.1,0-0.3,0-0.3-0.3L22.9,26.1L22.9,26.1z M24.4,27.1c-0.1,0-0.2,0-0.3,0c-0.1,0-0.2,0-0.3,0
		c-0.3-0.3-0.5-0.7-0.7-1h-0.2v0.7c0,0.2,0.1,0.2,0.3,0.2h0.1v0v0.1h0c-0.2,0-0.4,0-0.6,0c-0.2,0-0.3,0-0.5,0h0v0V27h0h0.1
		c0.1,0,0.2,0,0.2-0.2v-1.6c0-0.2-0.1-0.2-0.2-0.2h-0.1v0v-0.1h0c0.1,0,0.3,0,0.5,0c0.2,0,0.4,0,0.5,0c0.4,0,0.8,0.1,0.8,0.6
		c0,0.3-0.2,0.5-0.4,0.6l0.5,0.8c0.1,0.1,0.1,0.2,0.3,0.2l0,0v0L24.4,27.1L24.4,27.1z"/>
	<path style="fill:#004A97;" d="M26.6,26.5L26.6,26.5l0-1.2c0-0.3-0.2-0.3-0.3-0.3h-0.1v-0.1c0.2,0,0.3,0,0.5,0c0.1,0,0.3,0,0.4,0
		V25h0c-0.1,0-0.3,0-0.3,0.4v1.4c0,0.1,0,0.2,0,0.3h-0.1L25,25.3v1.3c0,0.3,0.1,0.4,0.3,0.4h0.1v0.1c-0.1,0-0.3,0-0.4,0
		c-0.1,0-0.3,0-0.4,0V27h0c0.2,0,0.3-0.1,0.3-0.4v-1.3c0-0.2-0.2-0.3-0.3-0.3h0v-0.1c0.1,0,0.3,0,0.4,0c0.1,0,0.2,0,0.3,0L26.6,26.5
		z"/>
	<path style="fill:#004A97;" d="M26.6,26.5L26.6,26.5L26.6,26.5L26.6,26.5z M26.6,26.5L26.6,26.5L26.6,26.5z M26.7,27.1h0.1
		c0-0.1,0-0.2,0-0.3v-1.4c0-0.4,0.2-0.4,0.3-0.4h0v-0.1c-0.1,0-0.3,0-0.4,0c-0.2,0-0.3,0-0.4,0V25h0.1c0.1,0,0.3,0,0.3,0.3l0,1.2
		l0,0l0,0l-1.5-1.6c-0.1,0-0.2,0-0.3,0c-0.1,0-0.2,0-0.4,0V25h0c0.2,0,0.3,0.1,0.3,0.3v1.3c0,0.3-0.1,0.4-0.3,0.4l0,0v0.1
		c0.1,0,0.3,0,0.4,0c0.1,0,0.3,0,0.4,0V27h0c-0.3,0-0.3-0.1-0.3-0.4v-1.3L26.7,27.1z M26.8,27.2l-0.1,0L25,25.4v1.3
		c0,0.3,0,0.4,0.3,0.4h0.1v0v0.1h0c-0.1,0-0.3,0-0.4,0c-0.1,0-0.3,0-0.4,0h0v0V27h0h0c0.2,0,0.3-0.1,0.3-0.4v-1.3
		c0-0.2-0.1-0.3-0.3-0.3h-0.1v0v-0.1h0c0.1,0,0.3,0,0.4,0c0.1,0,0.2,0,0.3,0l1.4,1.6v-1.2c0-0.2-0.2-0.3-0.3-0.3h-0.1v0v-0.1h0
		c0.2,0,0.3,0,0.5,0c0.1,0,0.3,0,0.4,0h0v0V25h0h0c-0.1,0-0.3,0-0.3,0.4v1.4C26.8,26.9,26.8,27,26.8,27.2L26.8,27.2L26.8,27.2z"/>
	<path style="fill:#004A97;" d="M28.2,25.3L28.2,25.3l-0.3,0.9h0.6L28.2,25.3z M27.7,26.6c0,0.1-0.1,0.2-0.1,0.2
		c0,0.1,0.1,0.1,0.2,0.1h0v0.1c-0.1,0-0.3,0-0.4,0c-0.1,0-0.2,0-0.4,0V27h0c0.1,0,0.2-0.1,0.3-0.2l0.5-1.4c0-0.1,0.1-0.3,0.1-0.4
		c0.1,0,0.2-0.1,0.3-0.1c0,0,0,0,0,0c0,0,0,0,0,0c0,0,0,0.1,0,0.1l0.6,1.6c0,0.1,0.1,0.2,0.1,0.3c0,0.1,0.1,0.1,0.2,0.1h0v0.1
		c-0.1,0-0.3,0-0.5,0c-0.2,0-0.3,0-0.5,0V27h0c0.1,0,0.2,0,0.2-0.1c0,0,0-0.1-0.1-0.2l-0.1-0.4h-0.7L27.7,26.6z"/>
	<path style="fill:#004A97;" d="M28.1,25.3L28.1,25.3L28.1,25.3z M27.9,26.1h0.6l-0.3-0.8L27.9,26.1z M27.8,26.2l0.3-0.9h0h0v0l0,0
		l0,0v0h0l0.3,0.9H27.8z M28.5,27.1c0.2,0,0.3,0,0.5,0c0.2,0,0.3,0,0.4,0V27h0c-0.1,0-0.2,0-0.2-0.1c0-0.1-0.1-0.2-0.1-0.3l-0.6-1.6
		c0,0,0-0.1,0-0.1c0,0,0,0,0,0h0c0,0,0,0,0,0c-0.1,0-0.2,0.1-0.3,0.1c0,0.1-0.1,0.3-0.1,0.4l-0.5,1.4c0,0.1-0.2,0.2-0.3,0.2h0v0.1
		c0.1,0,0.2,0,0.3,0c0.1,0,0.3,0,0.4,0V27h0c-0.1,0-0.3,0-0.3-0.1c0-0.1,0-0.1,0.1-0.2l0,0l0,0l0.1-0.3h0.8l0.1,0.4
		c0,0.1,0.1,0.2,0.1,0.2C28.7,27,28.6,27,28.5,27.1L28.5,27.1L28.5,27.1z M29.4,27.1c-0.1,0-0.3,0-0.4,0c-0.2,0-0.3,0-0.5,0l0,0v0
		V27h0h0c0.1,0,0.2,0,0.2-0.1c0,0,0-0.1-0.1-0.2l-0.1-0.4h-0.7l-0.1,0.3c0,0.1-0.1,0.2-0.1,0.2c0,0.1,0.1,0.1,0.2,0.1h0.1v0v0.1l0,0
		c-0.1,0-0.3,0-0.4,0c-0.1,0-0.2,0-0.4,0l0,0v0V27h0h0c0.1,0,0.2-0.1,0.3-0.2l0.5-1.4c0-0.1,0.1-0.3,0.1-0.4c0.1,0,0.2-0.1,0.3-0.1
		c0,0,0,0,0,0c0,0,0,0,0,0c0,0,0,0.1,0,0.1l0.6,1.6c0,0.1,0.1,0.2,0.1,0.3c0,0.1,0.1,0.1,0.2,0.1h0v0L29.4,27.1L29.4,27.1z"/>
	<path style="fill:#004A97;" d="M29.6,25.1c-0.2,0-0.3,0.1-0.3,0.3h-0.1c0-0.1,0-0.2,0-0.3c0-0.1,0-0.2,0-0.3h0.1
		c0,0.1,0.1,0.1,0.2,0.1h1.7c0.1,0,0.2,0,0.2-0.1l0.1,0c0,0.1,0,0.2,0,0.3c0,0.1,0,0.2,0,0.3l-0.1,0c0-0.1,0-0.3-0.2-0.3h-0.5v1.7
		c0,0.2,0.1,0.3,0.3,0.3h0.1v0.1c-0.1,0-0.4,0-0.5,0c-0.2,0-0.4,0-0.6,0V27h0.1c0.2,0,0.3,0,0.3-0.3v-1.7H29.6z"/>
	<path style="fill:#004A97;" d="M30.9,27.1c-0.1,0-0.4,0-0.5,0c-0.2,0-0.4,0-0.6,0h0v0V27h0h0.1c0.2,0,0.3,0,0.3-0.2l0-1.7h-0.5v0v0
		h0.6v1.7c0,0.3-0.1,0.3-0.3,0.3h0v0.1c0.1,0,0.3,0,0.5,0C30.5,27.1,30.7,27.1,30.9,27.1L30.9,27.1L30.9,27.1
		c-0.2-0.1-0.3-0.1-0.3-0.4V25h0.6c0.2,0,0.2,0.2,0.3,0.3l0.1,0c0-0.1,0-0.2,0-0.2c0-0.1,0-0.2,0-0.2l0,0c0,0.1-0.1,0.1-0.2,0.1
		h-1.7h0c-0.1,0-0.2,0-0.2-0.1h-0.1c0,0.1,0,0.2,0,0.3c0,0.1,0,0.2,0,0.3h0.1c0-0.2,0.1-0.3,0.3-0.3v0v0c-0.2,0-0.2,0-0.3,0.3l0,0h0
		h-0.1l0,0c0-0.1,0-0.2,0-0.3c0-0.1,0-0.2,0-0.3v0h0h0.1l0,0c0,0.1,0.1,0.1,0.2,0.1c0,0,0,0,0,0h1.7c0.1,0,0.2,0,0.2-0.1l0,0l0,0
		l0.1,0l0,0c0,0.1,0,0.2,0,0.3c0,0.1,0,0.2,0,0.3v0l0,0l-0.1,0l0,0c0-0.1,0-0.3-0.2-0.3h-0.5v1.7c0,0.2,0.1,0.3,0.3,0.3h0.1v0
		L30.9,27.1L30.9,27.1z"/>
	<path style="fill:#004A97;" d="M31.6,27L31.6,27c0.2,0,0.3,0,0.3-0.2v-1.6c0-0.2-0.1-0.2-0.2-0.2h0v-0.1c0.1,0,0.3,0,0.5,0
		c0.2,0,0.4,0,0.5,0V25h0c-0.1,0-0.2,0-0.2,0.2v1.6c0,0.2,0.1,0.2,0.2,0.2h0v0.1c-0.2,0-0.4,0-0.5,0C31.9,27.1,31.7,27.1,31.6,27
		L31.6,27z"/>
	<path style="fill:#004A97;" d="M32.5,27.1L32.5,27.1L32.5,27.1c-0.1-0.1-0.3-0.1-0.3-0.3v-1.6c0-0.2,0.1-0.2,0.3-0.2h0v-0.1
		c-0.2,0-0.3,0-0.5,0c-0.2,0-0.3,0-0.5,0V25h0c0.1,0,0.3,0,0.3,0.2v1.6c0,0.2-0.1,0.2-0.3,0.2h0v0.1c0.1,0,0.3,0,0.5,0
		C32.2,27.1,32.4,27.1,32.5,27.1 M32.6,27.1c-0.2,0-0.4,0-0.5,0c-0.2,0-0.4,0-0.5,0h0v0V27v0h0h0c0.1,0,0.2,0,0.2-0.2v-1.6
		c0-0.2-0.1-0.2-0.2-0.2h-0.1v0v-0.1h0c0.1,0,0.3,0,0.5,0c0.2,0,0.4,0,0.5,0h0v0V25h0h0c-0.1,0-0.2,0-0.2,0.2v1.6
		c0,0.2,0.1,0.2,0.2,0.2h0.1v0L32.6,27.1L32.6,27.1z"/>
	<path style="fill:#004A97;" d="M33.9,27c0.6,0,0.7-0.5,0.7-1c0-0.5-0.3-1-0.8-1c-0.6,0-0.7,0.5-0.7,0.9C33.1,26.5,33.4,27,33.9,27
		 M33.9,24.9c0.7,0,1.3,0.4,1.3,1.1c0,0.7-0.5,1.2-1.2,1.2c-0.7,0-1.2-0.5-1.2-1.1C32.7,25.4,33.2,24.9,33.9,24.9"/>
	<path style="fill:#004A97;" d="M33.1,25.9c0-0.4,0.2-0.9,0.8-0.9c0.6,0,0.8,0.6,0.8,1c0,0.5-0.1,1-0.8,1v0v0c0.6,0,0.7-0.5,0.7-1
		c0-0.5-0.3-1-0.8-1C33.3,25,33.1,25.5,33.1,25.9c0,0.6,0.3,1.1,0.8,1.1v0v0C33.4,27,33.1,26.5,33.1,25.9 M32.6,26
		c0-0.7,0.5-1.2,1.2-1.2v0v0C33.2,24.9,32.7,25.4,32.6,26c0,0.7,0.6,1.1,1.2,1.1c0.7,0,1.2-0.5,1.2-1.2c0-0.7-0.5-1.1-1.2-1.1v0v0
		c0.7,0,1.3,0.4,1.3,1.1c0,0.7-0.5,1.2-1.3,1.2C33.2,27.2,32.6,26.7,32.6,26"/>
	<path style="fill:#004A97;" d="M37.3,26.5L37.3,26.5l0-1.2c0-0.3-0.2-0.3-0.3-0.3H37v-0.1c0.2,0,0.3,0,0.5,0c0.1,0,0.3,0,0.4,0V25
		h0c-0.1,0-0.3,0-0.3,0.4v1.4c0,0.1,0,0.2,0,0.3h-0.1l-1.7-1.8v1.3c0,0.3,0.1,0.4,0.3,0.4h0.1v0.1c-0.1,0-0.3,0-0.4,0
		c-0.1,0-0.3,0-0.4,0V27h0c0.2,0,0.3-0.1,0.3-0.4v-1.3c0-0.2-0.2-0.3-0.3-0.3h0v-0.1c0.1,0,0.3,0,0.4,0c0.1,0,0.2,0,0.3,0L37.3,26.5
		z"/>
	<path style="fill:#004A97;" d="M37.3,26.5L37.3,26.5L37.3,26.5L37.3,26.5z M37.3,26.5L37.3,26.5L37.3,26.5z M37.4,27.1h0.1
		c0-0.1,0-0.2,0-0.3v-1.4c0-0.4,0.2-0.4,0.3-0.4h0v-0.1c-0.1,0-0.3,0-0.4,0c-0.1,0-0.3,0-0.4,0V25H37c0.1,0,0.3,0,0.3,0.3l0,1.2l0,0
		l0,0l-1.5-1.6c-0.1,0-0.2,0-0.3,0c-0.1,0-0.2,0-0.4,0V25h0c0.2,0,0.3,0.1,0.3,0.3v1.3c0,0.3-0.1,0.4-0.3,0.4l0,0v0.1
		c0.1,0,0.3,0,0.4,0c0.1,0,0.3,0,0.4,0V27h0c-0.3,0-0.3-0.1-0.3-0.4v-1.3L37.4,27.1z M37.5,27.2l-0.1,0l-1.7-1.8v1.3
		c0,0.3,0,0.4,0.3,0.4h0.1v0v0.1h0c-0.1,0-0.3,0-0.4,0c-0.1,0-0.3,0-0.4,0h0v0V27h0h0c0.2,0,0.3-0.1,0.3-0.4v-1.3
		c0-0.2-0.1-0.3-0.3-0.3h-0.1v0v-0.1h0c0.1,0,0.3,0,0.4,0c0.1,0,0.2,0,0.3,0l1.4,1.6v-1.2c0-0.2-0.2-0.3-0.3-0.3H37v0v-0.1h0
		c0.2,0,0.3,0,0.5,0c0.1,0,0.3,0,0.4,0h0v0V25h0h0c-0.1,0-0.3,0-0.3,0.4v1.4C37.5,26.9,37.5,27,37.5,27.2L37.5,27.2L37.5,27.2z"/>
	<path style="fill:#004A97;" d="M38.8,25.3L38.8,25.3l-0.3,0.9h0.6L38.8,25.3z M38.4,26.6c0,0.1-0.1,0.2-0.1,0.2
		c0,0.1,0.1,0.1,0.2,0.1h0v0.1c-0.1,0-0.3,0-0.4,0c-0.1,0-0.2,0-0.4,0V27h0c0.1,0,0.2-0.1,0.3-0.2l0.5-1.4c0-0.1,0.1-0.3,0.1-0.4
		c0.1,0,0.2-0.1,0.3-0.1c0,0,0,0,0,0c0,0,0,0,0,0c0,0,0,0.1,0,0.1l0.6,1.6c0,0.1,0.1,0.2,0.1,0.3c0,0.1,0.1,0.1,0.2,0.1h0v0.1
		c-0.1,0-0.3,0-0.5,0c-0.2,0-0.3,0-0.5,0V27h0c0.1,0,0.2,0,0.2-0.1c0,0,0-0.1-0.1-0.2l-0.1-0.4h-0.7L38.4,26.6z"/>
	<path style="fill:#004A97;" d="M38.8,25.3L38.8,25.3L38.8,25.3z M38.5,26.1h0.6l-0.3-0.8L38.5,26.1z M38.5,26.2l0.3-0.9h0h0v0l0,0
		l0,0v0h0l0.3,0.9H38.5z M39.2,27.1c0.2,0,0.3,0,0.5,0c0.2,0,0.3,0,0.4,0l0-0.1h0c-0.1,0-0.2,0-0.2-0.1c0-0.1-0.1-0.2-0.1-0.3
		l-0.6-1.6c0,0,0-0.1,0-0.1c0,0,0,0,0,0h0c0,0,0,0,0,0c-0.1,0-0.2,0.1-0.3,0.1c0,0.1-0.1,0.3-0.1,0.4l-0.5,1.4
		C38.1,26.9,38,27,37.8,27h0v0.1c0.1,0,0.2,0,0.3,0c0.1,0,0.3,0,0.4,0V27h0c-0.1,0-0.3,0-0.3-0.1c0-0.1,0-0.1,0.1-0.2l0,0l0,0
		l0.1-0.3h0.8l0.1,0.4c0,0.1,0.1,0.2,0.1,0.2C39.4,27,39.3,27,39.2,27.1L39.2,27.1L39.2,27.1z M40.1,27.1c-0.1,0-0.3,0-0.5,0
		c-0.2,0-0.3,0-0.5,0l0,0v0V27h0h0c0.1,0,0.2,0,0.2-0.1c0,0,0-0.1-0.1-0.2l-0.1-0.4h-0.7l-0.1,0.3c0,0.1-0.1,0.2-0.1,0.2
		c0,0.1,0.1,0.1,0.2,0.1h0.1v0v0.1l0,0c-0.1,0-0.3,0-0.4,0c-0.1,0-0.2,0-0.4,0l0,0v0V27h0h0c0.1,0,0.2-0.1,0.3-0.2l0.5-1.4
		c0-0.1,0.1-0.3,0.1-0.4c0.1,0,0.2-0.1,0.3-0.1c0,0,0,0,0,0c0,0,0,0,0,0c0,0,0,0.1,0,0.1l0.6,1.6c0,0.1,0.1,0.2,0.1,0.3
		c0,0.1,0.1,0.1,0.2,0.1h0v0L40.1,27.1L40.1,27.1z"/>
	<path style="fill:#004A97;" d="M40.9,26.8c0,0.1,0.1,0.2,0.2,0.2c0.1,0,0.3,0,0.4,0c0.1,0,0.3-0.1,0.3-0.2c0.1-0.1,0.1-0.2,0.1-0.2
		h0.1c0,0.2-0.1,0.4-0.1,0.5c-0.3,0-0.6,0-0.9,0c-0.3,0-0.6,0-0.9,0V27h0c0.1,0,0.2,0,0.2-0.2v-1.6c0-0.2-0.1-0.2-0.2-0.2h0v-0.1
		c0.2,0,0.3,0,0.5,0c0.2,0,0.3,0,0.5,0V25h-0.1c-0.1,0-0.2,0-0.2,0.2V26.8z"/>
	<path style="fill:#004A97;" d="M41.9,27.1c0-0.2,0.1-0.3,0.1-0.5H42c0,0.1,0,0.2-0.1,0.2c-0.1,0.1-0.2,0.2-0.3,0.2
		c-0.1,0-0.2,0-0.3,0c-0.1,0-0.1,0-0.2,0c-0.1,0-0.2-0.1-0.2-0.2v-1.6c0-0.2,0.1-0.2,0.2-0.2h0.1v-0.1c-0.2,0-0.3,0-0.5,0
		c-0.2,0-0.3,0-0.5,0V25h0c0.1,0,0.3,0,0.3,0.2v1.6c0,0.2-0.1,0.2-0.3,0.2h0v0.1c0.3,0,0.6,0,0.8,0C41.4,27.1,41.6,27.1,41.9,27.1
		 M41.9,27.1c-0.3,0-0.6,0-0.9,0c-0.3,0-0.6,0-0.9,0h0v0V27h0h0c0.1,0,0.2,0,0.2-0.2v-1.6c0-0.2-0.1-0.2-0.2-0.2h-0.1v0v-0.1h0
		c0.2,0,0.3,0,0.5,0c0.2,0,0.3,0,0.5,0h0v0V25h0h-0.1c-0.1,0-0.2,0-0.2,0.2v1.6c0,0.1,0.1,0.1,0.2,0.2c0.1,0,0.1,0,0.2,0
		c0.1,0,0.2,0,0.2,0c0.1,0,0.2-0.1,0.3-0.2c0-0.1,0.1-0.2,0.1-0.2l0,0h0h0.1l0,0C42,26.7,42,26.9,41.9,27.1L41.9,27.1L41.9,27.1z"/>
</g>
</svg>
