<?xml version="1.0" encoding="utf-8"?>
<!-- Generator: Adobe Illustrator 21.0.0, SVG Export Plug-In . SVG Version: 6.00 Build 0)  -->
<svg version="1.1" id="Capa_1" xmlns="http://www.w3.org/2000/svg" xmlns:xlink="http://www.w3.org/1999/xlink" x="0px" y="0px"
	 viewBox="0 0 56.1 35.4" style="enable-background:new 0 0 56.1 35.4;" xml:space="preserve">
<title>Mesa de trabajo 1</title>
<g>
	<path style="fill:#FFFFFF;" d="M55.5,33c0,1-0.8,1.8-1.8,1.8H2.4c-1,0-1.8-0.8-1.8-1.8V2.3c0-1,0.8-1.8,1.8-1.8h51.3
		c1,0,1.8,0.8,1.8,1.8V33z"/>
	<path style="fill:#EDEDED;" d="M53.7,35.4H2.4c-1.3,0-2.3-1-2.3-2.3V2.3C0,1,1.1,0,2.4,0h51.3C55,0,56,1,56,2.3V33
		C56,34.3,55,35.4,53.7,35.4z M2.4,1C1.6,1,1,1.6,1,2.3V33c0,0.7,0.6,1.3,1.3,1.3h51.3c0.7,0,1.3-0.6,1.3-1.3V2.3
		C55,1.6,54.5,1,53.7,1H2.4z"/>
</g>
<g>
	<path style="fill-rule:evenodd;clip-rule:evenodd;fill:#E20613;" d="M42.6,9.8c-1-0.7-2.5-0.3-3.8-0.4l-24,0c-0.5,0-1,0.3-1.5,0.5
		c-1,0.7-1.6,1.7-1.6,2.9c0,0,0,0,0,0l10.7,0c0.7,0,1.3,0.2,2,0.4c1.4,0.4,2.5,1.9,2.8,3.2c0.1-1.2,0.1-2.4,0.2-3.6l6.2,0
		c-0.2,1.4-0.2,2.8-0.4,4.2c1.1-1.2,2.1-2.6,3.2-3.8c0.1-0.1,0.2-0.3,0.4-0.4l7.5,0C44.4,11.5,43.7,10.4,42.6,9.8z"/>
	<path style="fill-rule:evenodd;clip-rule:evenodd;fill:#E20613;" d="M40.2,17.1L40.2,17.1c1.3,1.8,2.7,3.7,4.2,5.3c0,0,0,0,0,0V13
		l0,0C42.8,14.2,41.5,15.7,40.2,17.1z"/>
	<path style="fill-rule:evenodd;clip-rule:evenodd;fill:#E20613;" d="M20.9,18.5c0.3-0.3,0.6-0.6,0.6-1.1c-0.4-1.4-2.5-1-3.6-1.1
		l-0.2,2.5C18.8,18.8,20.1,19.1,20.9,18.5z"/>
	<path style="fill-rule:evenodd;clip-rule:evenodd;fill:#E20613;" d="M37.3,22.5c-0.3,0-0.7,0.1-0.8-0.3l-3.3-4.7
		c-0.1,1.7-0.2,3.4-0.2,5.1c0,0-4.2,0-6.2,0c0.1-1.4,0.2-2.7,0.3-4.1c-0.2,0.6-0.5,1.1-0.8,1.7c-0.9,1.5-2.5,2.2-4,2.3l-10.5,0.1
		c0,0.4,0.1,0.9,0.2,1.3c0.4,1.1,1.6,2,2.8,2.1l14.2,0h11.8c0.5,0,1.1-0.1,1.5-0.3c1.2-0.5,2-1.8,2-3.1H37.3z"/>
</g>
</svg>
