<svg id="Capa_1" data-name="Capa 1" xmlns="http://www.w3.org/2000/svg" viewBox="0 0 100 100"><defs><style>.cls-1{fill:#d3f3f3;}.cls-2{fill:#56d3ce;}</style></defs><title>detalle-del-producto</title><path class="cls-1" d="M62.56,18.52a2.3,2.3,0,0,0-3.21.16c-2,2.25-7.11,6-18.26,4.49,0,0-11.58-2.06-12.37,6.06h38.5S67.12,22.45,62.56,18.52Z"/><path class="cls-1" d="M67.21,49.11a1.5,1.5,0,0,0-1.5,1.5V66A2.74,2.74,0,0,1,63,68.74H41.71a1.5,1.5,0,0,0,0,3H63A5.74,5.74,0,0,0,68.71,66V50.61A1.5,1.5,0,0,0,67.21,49.11Z"/><path class="cls-2" d="M70.14,43.16V35.68a3.52,3.52,0,0,0-3.52-3.52H28.43a3.52,3.52,0,0,0-3.52,3.52v7.47a4.51,4.51,0,0,0-4.07,4.47v4.85a10.45,10.45,0,0,0-3.44,4c-5.55-1.31-10.9,3.05-11.14,3.25a1,1,0,0,0-.34,1c.06.3,1.4,7.05,6.63,9.54-1.31,5.55,3.05,10.9,3.25,11.14a1,1,0,0,0,.77.36l.19,0a15.83,15.83,0,0,0,8.07-4.42,4.53,4.53,0,0,0,.54.05H69.7a4.52,4.52,0,0,0,4.52-4.52V47.63A4.51,4.51,0,0,0,70.14,43.16Zm-41.71-9H66.62a1.52,1.52,0,0,1,1.52,1.52v.16l-16-1a1,1,0,0,0-1.06.93A1,1,0,0,0,52,36.82l16.12,1v5.27H26.91V41L56.37,42.4h0a1,1,0,0,0,0-2L26.91,39V35.68A1.52,1.52,0,0,1,28.43,34.16ZM26.71,51.95c1,1.42,3.67,5.68,2.28,9.61,0,.14-.12.26-.18.39a8,8,0,0,0-2.32-2.64l.83-1.1A1,1,0,1,0,25.73,57l-1,1.35-.23-.09-.23-.07.06-1.69a1,1,0,1,0-2-.07l0,1.38a7.94,7.94,0,0,0-3.46.59c0-.14.05-.28.1-.41h0C20.33,54,25,52.4,26.71,51.95ZM19.85,71.38a6,6,0,1,1,4.56-.24A5.93,5.93,0,0,1,19.85,71.38Zm7.21.38a7.84,7.84,0,0,0,1.23-1.34l1.1.83a1,1,0,1,0,1.21-1.6l-1.35-1c0-.08.06-.15.09-.23s0-.16.07-.23l1.69.05h0a1,1,0,0,0,0-2l-1.38,0a7.91,7.91,0,0,0-.11-1.82,7.27,7.27,0,0,0,.77-1.18c3.38,1.73,4.79,5.89,5.21,7.44-1.31.94-5,3.28-8.73,2.52A7.25,7.25,0,0,0,27.06,71.76ZM8,60.88c1.31-.94,5-3.28,8.73-2.52a7.26,7.26,0,0,0-.14,1.4,7.91,7.91,0,0,0-1.23,1.34l-1.1-.83a1,1,0,0,0-1.21,1.6l1.35,1c0,.08-.07.15-.09.22s0,.16-.07.23l-1.69-.05a1,1,0,0,0-1,1,1,1,0,0,0,1,1l1.38,0A7.86,7.86,0,0,0,14,67.15a7.25,7.25,0,0,0-.77,1.17C9.85,66.59,8.44,62.43,8,60.88ZM17,79.57c-1-1.42-3.67-5.68-2.28-9.61,0-.13.12-.25.18-.38a7.89,7.89,0,0,0,2.32,2.64l-.83,1.1a1,1,0,1,0,1.6,1.21l1-1.35.23.09.23.07L19.36,75a1,1,0,0,0,1,1h0a1,1,0,0,0,1-1l0-1.38.44,0a7.91,7.91,0,0,0,3-.61c0,.14-.05.28-.1.41C23.35,77.52,18.63,79.12,17,79.57ZM72.21,72.8a2.52,2.52,0,0,1-2.52,2.52H26.16l.12-.26a9.28,9.28,0,0,0,2.15.25c4.71,0,8.79-3.33,9-3.5a1,1,0,0,0,.34-1c-.06-.3-1.4-7.05-6.62-9.54,1.31-5.55-3.05-10.9-3.25-11.14a1,1,0,0,0-1-.34,17.3,17.3,0,0,0-4.09,1.44V47.63a2.52,2.52,0,0,1,2.52-2.52H69.7a2.52,2.52,0,0,1,2.52,2.52Z"/><path class="cls-2" d="M94,67.62,85.6,34.42A3,3,0,0,0,82,32.26l-6.62,1.68a1,1,0,0,0-.72,1.21L84,72.2A1,1,0,0,0,85,73a1,1,0,0,0,.25,0l6.62-1.68A3,3,0,0,0,94,67.62Zm-2.65,1.69-5.65,1.43L76.81,35.63l5.65-1.43a1,1,0,0,1,1.2.72l8.41,33.2A1,1,0,0,1,91.36,69.31Z"/></svg>