<svg id="Capa_1" data-name="Capa 1" xmlns="http://www.w3.org/2000/svg" viewBox="0 0 56.09 35.38"><defs><style>.cls-1{fill:#fff;}.cls-2{fill:#ededed;}.cls-3{fill:#bebebe;}</style></defs><title>Mesa de trabajo 1</title><rect class="cls-1" x="0.54" y="0.5" width="55" height="34.38" rx="1.83" ry="1.83"/><path class="cls-2" d="M53.71,35.38H2.38A2.34,2.34,0,0,1,0,33V2.33A2.34,2.34,0,0,1,2.38,0H53.71A2.34,2.34,0,0,1,56,2.33V33A2.34,2.34,0,0,1,53.71,35.38ZM2.38,1A1.33,1.33,0,0,0,1,2.33V33a1.34,1.34,0,0,0,1.33,1.33H53.71A1.33,1.33,0,0,0,55,33V2.33A1.33,1.33,0,0,0,53.71,1Z"/><path class="cls-3" d="M36.66,17.69A8.61,8.61,0,1,1,28,9.07a8.61,8.61,0,0,1,8.61,8.61"/><path class="cls-1" d="M27.54,20l.56-2.11,1.32-.48.33-1.24v0l-1.3.48.94-3.54H26.71l-1.23,4.62-1,.37-.34,1.28,1-.37-.72,2.72h7.09L32,20H27.54"/></svg>