<?xml version="1.0" encoding="utf-8"?>
<!-- Generator: Adobe Illustrator 21.0.0, SVG Export Plug-In . SVG Version: 6.00 Build 0)  -->
<svg version="1.1" id="Capa_1" xmlns="http://www.w3.org/2000/svg" xmlns:xlink="http://www.w3.org/1999/xlink" x="0px" y="0px"
	 viewBox="0 0 56.1 35.4" style="enable-background:new 0 0 56.1 35.4;" xml:space="preserve">
<title>Mesa de trabajo 1</title>
<g>
	<path style="fill:#FFFFFF;" d="M55.6,33.1c0,1-0.8,1.8-1.8,1.8H2.4c-1,0-1.8-0.8-1.8-1.8V2.4c0-1,0.8-1.8,1.8-1.8h51.3
		c1,0,1.8,0.8,1.8,1.8V33.1z"/>
	<path style="fill:#EDEDED;" d="M53.7,35.5H2.4c-1.3,0-2.3-1-2.3-2.3V2.4c0-1.3,1-2.3,2.3-2.3h51.3c1.3,0,2.3,1,2.3,2.3v30.7
		C56.1,34.4,55,35.5,53.7,35.5z M2.4,1.1c-0.7,0-1.3,0.6-1.3,1.3v30.7c0,0.7,0.6,1.3,1.3,1.3h51.3c0.7,0,1.3-0.6,1.3-1.3V2.4
		c0-0.7-0.6-1.3-1.3-1.3H2.4z"/>
</g>
<polygon style="fill-rule:evenodd;clip-rule:evenodd;fill:#FFFFFF;" points="28.1,17.8 28.1,17.8 28.1,17.7 28.1,17.7 28.1,17.8 "/>
<g id="TM3wMc.tif_1_">
	<path style="fill:#5088CA;" d="M25.8,25.7c0.4-0.1,0.7-0.3,1-0.5c0.9-0.6,1.5-1.5,1.8-2.6c0.2-0.6,0.2-1.2,0.2-1.8
		c0-0.6,0-1.3,0-1.9c0-0.3,0-0.3,0.3-0.3h2.3c0.3,0,0.3,0,0.3-0.3c0-0.7,0-1.4,0-2.1c0-0.3,0-0.4-0.4-0.4h-2.2c-0.4,0-0.4,0-0.4-0.4
		c0-0.8,0.4-1.4,1.1-1.7c0.3-0.1,0.6-0.2,1-0.2H31c0.8-0.1,0.8-0.1,0.8-0.8v-2.6c0.1-0.1,0.2-0.1,0.3,0c1.5,0.5,2.5,1.6,3.1,3.1
		c0.4,1,0.6,2,0.6,3.1c0,0.9,0.1,1.8,0,2.7c-0.1,1.3-0.4,2.5-1,3.7c-0.6,1.2-1.6,2-2.8,2.5c-1.1,0.4-2.2,0.6-3.3,0.6
		c-0.8,0-1.7,0-2.5,0C26,25.9,25.9,25.9,25.8,25.7L25.8,25.7z M29.6,9.8c0,0.1-0.1,0.1-0.2,0.1c-1.1,0-1.9,0.5-2.6,1.2
		c-0.7,0.7-1,1.5-1.2,2.4c-0.1,0.7-0.2,1.3-0.2,2c0,0.1,0,0.1,0,0.2c-0.1,0.4-0.1,0.4-0.4,0.4h-4.3c-0.1,0-0.2,0-0.3-0.1
		c0.1-1,0.2-1.9,0.5-2.9c0.5-1.5,1.6-2.4,3.1-2.9c0.7-0.2,1.4-0.3,2.2-0.4c1.1-0.1,2.2-0.1,3.3-0.1C29.6,9.7,29.6,9.7,29.6,9.8
		L29.6,9.8z M23.5,25.4c-1.2-0.4-2-1.2-2.5-2.4c-0.3-0.8-0.5-1.6-0.5-2.4c0-0.6-0.1-1.1-0.1-1.7c0-0.2,0-0.3,0.3-0.3
		c1.5,0,3,0,4.5,0c0.2,0,0.3,0.1,0.3,0.3c0,0.7,0,1.4,0,2c0,0.2-0.1,0.4-0.2,0.5c-0.4,0.5-0.9,0.9-1.5,1c-0.2,0-0.2,0.2-0.2,0.3V25
		C23.5,25.1,23.6,25.2,23.5,25.4L23.5,25.4z"/>
</g>
</svg>
