<svg id="Capa_1" data-name="Capa 1" xmlns="http://www.w3.org/2000/svg" viewBox="0 0 30 30"><defs><style>.cls-1{fill:#97e2e0;}.cls-2{fill:#fac6c9;}</style></defs><title>email</title><path class="cls-1" d="M7.45,13.66A.56.56,0,0,0,8,13.1v-7H22v7a.56.56,0,0,0,1.11,0V5.56A.56.56,0,0,0,22.55,5H7.45a.56.56,0,0,0-.56.56V13.1A.56.56,0,0,0,7.45,13.66Z"/><path class="cls-1" d="M24.72,13.72a.56.56,0,0,0-.56,0l-6.23,3.56H12.06L5.83,13.72a.56.56,0,0,0-.56,0A.56.56,0,0,0,5,14.2v8.35A2.45,2.45,0,0,0,7.45,25H22.55A2.45,2.45,0,0,0,25,22.55V14.2A.56.56,0,0,0,24.72,13.72Zm-.84,8.84a1.33,1.33,0,0,1-1.33,1.33H7.45a1.33,1.33,0,0,1-1.33-1.33V15.16l5.52,3.16a.56.56,0,0,0,.28.07h6.17a.56.56,0,0,0,.28-.07l5.53-3.16Z"/><path class="cls-2" d="M15,10.93c-.84-2.54-3.78-1.7-3.78.23S15,15.94,15,15.94s3.78-2.75,3.78-4.78S15.84,8.39,15,10.93Z"/></svg>