<svg id="Capa_1" data-name="Capa 1" xmlns="http://www.w3.org/2000/svg" viewBox="0 0 56.09 35.38"><defs><style>.cls-1{fill:#fff;}.cls-2{fill:#ededed;}.cls-3{fill:#12100b;}</style></defs><title>Mesa de trabajo 1</title><rect class="cls-1" x="0.54" y="0.5" width="55" height="34.37" rx="1.83" ry="1.83"/><path class="cls-2" d="M53.71,35.37H2.38A2.34,2.34,0,0,1,0,33V2.33A2.34,2.34,0,0,1,2.38,0H53.71A2.34,2.34,0,0,1,56,2.33V33A2.34,2.34,0,0,1,53.71,35.37ZM2.38,1A1.33,1.33,0,0,0,1,2.33V33a1.33,1.33,0,0,0,1.33,1.33H53.71A1.33,1.33,0,0,0,55,33V2.33A1.33,1.33,0,0,0,53.71,1Z"/><g id="g3051"><g id="layer1"><path id="path2997" class="cls-3" d="M20.23,16.4a2.6,2.6,0,0,0,1.62,2.37A6.31,6.31,0,0,1,21,20.43c-.5.71-1,1.42-1.85,1.44s-1.07-.46-2-.46-1.21.45-2,.48-1.4-.77-1.91-1.48c-1-1.45-1.83-4.1-.77-5.89A3,3,0,0,1,15,13c.78,0,1.52.51,2,.51s1.37-.63,2.31-.54a2.85,2.85,0,0,1,2.21,1.16,2.64,2.64,0,0,0-1.3,2.23m-1.52-4.35a2.52,2.52,0,0,0,.63-1.87,2.74,2.74,0,0,0-1.78.89,2.4,2.4,0,0,0-.64,1.81,2.27,2.27,0,0,0,1.79-.83"/></g><g id="text3006"><path id="path2995" class="cls-3" d="M24.82,11.21l1-.14A11.27,11.27,0,0,1,27.09,11a5.43,5.43,0,0,1,1.67.23,3,3,0,0,1,1.15.65,2.69,2.69,0,0,1,.61.9,3.09,3.09,0,0,1,.22,1.2,3.25,3.25,0,0,1-.3,1.44,3,3,0,0,1-.82,1,3.45,3.45,0,0,1-1.23.62,5.58,5.58,0,0,1-1.55.21,6.24,6.24,0,0,1-1.28-.11v4.54h-.76Zm.76,5.3a3.37,3.37,0,0,0,.61.11q.34,0,.73,0A3.44,3.44,0,0,0,29.17,16,2.38,2.38,0,0,0,30,14,2.55,2.55,0,0,0,29.76,13a1.93,1.93,0,0,0-.6-.75,2.75,2.75,0,0,0-.92-.44,4.35,4.35,0,0,0-1.18-.15,8.57,8.57,0,0,0-.89,0l-.6.09Z"/><path id="path2998" class="cls-3" d="M36.78,19.92q0,.46,0,.92a5.83,5.83,0,0,0,.1.88h-.71l-.11-1.07h0a2.7,2.7,0,0,1-.37.44,2.91,2.91,0,0,1-.52.4,2.81,2.81,0,0,1-.68.29,3,3,0,0,1-.83.11,2.53,2.53,0,0,1-1-.18,2,2,0,0,1-.7-.47,1.93,1.93,0,0,1-.41-.67,2.21,2.21,0,0,1-.14-.76,2.31,2.31,0,0,1,1.16-2.07A6.48,6.48,0,0,1,36,17v-.21a4.8,4.8,0,0,0-.06-.69,2.13,2.13,0,0,0-.25-.73,1.6,1.6,0,0,0-.58-.58,2,2,0,0,0-1.05-.24,3.49,3.49,0,0,0-1.89.57L32,14.62a3.63,3.63,0,0,1,1.07-.5A4.33,4.33,0,0,1,34.17,14a2.82,2.82,0,0,1,1.32.27,2.17,2.17,0,0,1,.8.69,2.56,2.56,0,0,1,.4,1,5.38,5.38,0,0,1,.11,1ZM36,17.66a10.75,10.75,0,0,0-1.28,0A4.75,4.75,0,0,0,33.5,18a2.36,2.36,0,0,0-.94.62,1.56,1.56,0,0,0-.37,1.09,1.43,1.43,0,0,0,.47,1.18,1.63,1.63,0,0,0,1.05.38,2.6,2.6,0,0,0,.84-.13,2.2,2.2,0,0,0,.65-.34,2.18,2.18,0,0,0,.46-.48,2.24,2.24,0,0,0,.28-.55A2.11,2.11,0,0,0,36,19.3Z"/><path id="path3000" class="cls-3" d="M38.27,14.14l2,4.92q.16.41.31.84l.26.8h0l.26-.78q.15-.43.32-.89l1.84-4.89h.81L41.82,19.7q-.34.88-.64,1.6t-.61,1.29a9.24,9.24,0,0,1-.62,1,4.27,4.27,0,0,1-.7.77,3.81,3.81,0,0,1-.83.58l-.51.23-.26-.62a6.44,6.44,0,0,0,.65-.33A3.52,3.52,0,0,0,39,23.7a6.46,6.46,0,0,0,.64-.75,5.22,5.22,0,0,0,.62-1.13,1.24,1.24,0,0,0,.1-.33.93.93,0,0,0-.1-.33l-2.79-7Z"/></g></g></svg>