<?xml version="1.0" encoding="utf-8"?>
<!-- Generator: Adobe Illustrator 21.0.0, SVG Export Plug-In . SVG Version: 6.00 Build 0)  -->
<svg version="1.1" id="Capa_1" xmlns="http://www.w3.org/2000/svg" xmlns:xlink="http://www.w3.org/1999/xlink" x="0px" y="0px"
	 viewBox="0 0 56.1 35.4" style="enable-background:new 0 0 56.1 35.4;" xml:space="preserve">
<title>Mesa de trabajo 1</title>
<g>
	<path style="fill:#FFFFFF;" d="M55.5,33.1c0,1-0.8,1.8-1.8,1.8H2.4c-1,0-1.8-0.8-1.8-1.8V2.4c0-1,0.8-1.8,1.8-1.8h51.3
		c1,0,1.8,0.8,1.8,1.8V33.1z"/>
	<path style="fill:#EDEDED;" d="M53.7,35.4H2.4c-1.3,0-2.3-1-2.3-2.3V2.4c0-1.3,1-2.3,2.3-2.3h51.3c1.3,0,2.3,1,2.3,2.3v30.7
		C56,34.4,55,35.4,53.7,35.4z M2.4,1.1C1.6,1.1,1,1.7,1,2.4v30.7c0,0.7,0.6,1.3,1.3,1.3h51.3c0.7,0,1.3-0.6,1.3-1.3V2.4
		c0-0.7-0.6-1.3-1.3-1.3H2.4z"/>
</g>
<g>
	<path style="fill-rule:evenodd;clip-rule:evenodd;fill:#1D1D1B;" d="M23.2,17.9c0.7,0.9,2.4,2.7,2.4,3.6v8.3h-4.9
		c-0.4-1.1-1.4-1.5-1.4-2.5v-7.7c-0.3,0.1-2.4,0.8-2.8,0.9c-0.1,0-0.8,0.1-0.8-0.5v-9.5c0-0.2,0.1-0.5,0.6-0.8
		c1.9-0.8,5.5-2,6.2-2.2c0.4-0.1,0.8,0,0.8,0.5V17.9L23.2,17.9z"/>
	<path style="fill-rule:evenodd;clip-rule:evenodd;fill:#1D1D1B;" d="M19.1,20v2c-0.3,0.1-1,0.3-1.2,0.3c-0.6,0-0.9-0.5-0.9-1.1
		C17,20.4,18.5,20.3,19.1,20L19.1,20z"/>
	<path style="fill-rule:evenodd;clip-rule:evenodd;fill:#1D1D1B;" d="M19.1,22.3V24c-0.3,0.1-1,0.3-1.2,0.3c-0.6,0-0.8-0.6-0.8-0.9
		C17.1,22.5,18.5,22.5,19.1,22.3L19.1,22.3z"/>
	<path style="fill-rule:evenodd;clip-rule:evenodd;fill:#1D1D1B;" d="M19.1,24.3v1.7c-0.3,0.2-0.7,0.3-1,0.3c-0.7,0-1-0.3-1-1
		C17.1,24.5,18.6,24.4,19.1,24.3L19.1,24.3z"/>
	<g>
		<path style="fill-rule:evenodd;clip-rule:evenodd;fill:#FFFFFF;" d="M15.9,10.7v9.3c0,0.2,0.2,0.3,0.4,0.3c0.2,0,0.7-0.2,0.9-0.3
			V9.8C16.6,10,15.9,10.2,15.9,10.7z"/>
		<path style="fill-rule:evenodd;clip-rule:evenodd;fill:#FFFFFF;" d="M22.4,8l-3.7,1.3v10.3c0.2-0.1,0.4-0.1,0.6-0.2v-2.2
			c0-0.4,0.6-0.9,1.2-0.9c0.4,0,1.2,0.2,1.2,0.9V18v4.5h0.2v-4.3c0.3-0.1,0.9-0.3,0.9-0.6V8.4C22.8,8.2,22.7,7.9,22.4,8z"/>
	</g>
	<polygon style="fill-rule:evenodd;clip-rule:evenodd;fill:#1D1D1B;" points="17.1,9.8 17.1,20.1 18.7,19.5 18.7,9.3 17.1,9.8 	"/>
	<path style="fill:#1D1D1B;" d="M19.5,11.7l1.1-0.3v0.7c0.2-0.3,0.3-0.6,0.5-0.8c0.2-0.2,0.4-0.3,0.6-0.4c0.3-0.1,0.6,0,0.8,0.2
		c0.2,0.2,0.3,0.6,0.3,1.2v2.8l-1.2,0.4V13c0-0.3,0-0.5-0.1-0.6c-0.1-0.1-0.2-0.1-0.3-0.1c-0.1,0-0.3,0.2-0.4,0.3
		c-0.1,0.2-0.1,0.5-0.1,0.9v2.1l-1.2,0.4V11.7L19.5,11.7z M25,8.4V10l0.7-0.2v1.2L25,11.3v1.6c0,0.2,0,0.3,0,0.4
		c0,0.1,0.1,0.1,0.2,0.1c0.1,0,0.2-0.1,0.4-0.2l0.1,1.1c-0.3,0.2-0.6,0.3-0.8,0.4c-0.3,0.1-0.5,0.1-0.7,0c-0.1-0.1-0.2-0.2-0.3-0.4
		c-0.1-0.2-0.1-0.5-0.1-1v-1.5l-0.4,0.1v-1.2l0.4-0.1V9.6L25,8.4L25,8.4z M29.7,11.2l-2.4,0.7c0,0.3,0.1,0.4,0.2,0.6
		c0.1,0.2,0.3,0.2,0.5,0.1c0.1,0,0.2-0.1,0.3-0.2c0.1-0.1,0.1-0.2,0.2-0.3l1.2-0.2c-0.2,0.5-0.4,0.9-0.7,1.1
		c-0.3,0.3-0.6,0.5-1.1,0.6c-0.4,0.1-0.7,0.1-1,0.1c-0.2-0.1-0.4-0.3-0.6-0.6c-0.2-0.3-0.2-0.7-0.2-1.2c0-0.7,0.2-1.3,0.5-1.8
		c0.3-0.5,0.7-0.9,1.3-1c0.4-0.1,0.8-0.1,1.1,0c0.3,0.1,0.5,0.3,0.6,0.6c0.1,0.3,0.2,0.8,0.2,1.3V11.2L29.7,11.2z M28.5,10.8
		c0-0.3-0.1-0.5-0.2-0.6c-0.1-0.1-0.2-0.1-0.4-0.1c-0.2,0.1-0.3,0.2-0.5,0.5c-0.1,0.2-0.1,0.4-0.1,0.6L28.5,10.8L28.5,10.8z
		 M30.3,8.4l1.1-0.3v0.7c0.1-0.3,0.2-0.6,0.3-0.7c0.1-0.2,0.3-0.3,0.4-0.3c0.2-0.1,0.4,0,0.6,0.1l-0.4,1.3c-0.1,0-0.3,0-0.3,0
		c-0.2,0-0.3,0.2-0.4,0.4c-0.1,0.3-0.2,0.8-0.2,1.5v1.5l-1.2,0.4V8.4L30.3,8.4z M34.1,8.7L33,8.9c0-0.3,0.1-0.5,0.2-0.7
		c0.1-0.2,0.2-0.4,0.4-0.5c0.1-0.1,0.3-0.2,0.5-0.3c0.2-0.1,0.4-0.2,0.6-0.3c0.4-0.1,0.6-0.2,0.9-0.2c0.2,0,0.4,0.1,0.5,0.2
		c0.1,0.1,0.2,0.2,0.2,0.5c0.1,0.2,0.1,0.4,0.1,0.6v1.9c0,0.2,0,0.4,0,0.5c0,0.1,0.1,0.2,0.1,0.4l-1.1,0.3c0-0.1-0.1-0.2-0.1-0.2
		c0-0.1,0-0.1,0-0.3c-0.2,0.3-0.3,0.5-0.5,0.6c-0.2,0.2-0.5,0.3-0.7,0.4c-0.4,0.1-0.7,0.1-0.8-0.1c-0.2-0.2-0.3-0.5-0.3-0.8
		c0-0.3,0.1-0.6,0.2-0.9c0.1-0.3,0.4-0.5,0.8-0.7c0.4-0.3,0.7-0.4,0.9-0.5c0.1-0.1,0.3-0.2,0.4-0.3c0-0.2,0-0.3-0.1-0.4
		c-0.1-0.1-0.2-0.1-0.3,0c-0.2,0.1-0.3,0.1-0.4,0.3C34.2,8.3,34.2,8.5,34.1,8.7L34.1,8.7z M35.2,9.3c-0.2,0.1-0.3,0.3-0.5,0.4
		c-0.2,0.2-0.4,0.3-0.5,0.4c-0.1,0.1-0.1,0.2-0.1,0.3c0,0.1,0,0.2,0.1,0.3c0.1,0.1,0.2,0.1,0.3,0c0.1,0,0.3-0.1,0.4-0.2
		c0.1-0.1,0.2-0.3,0.2-0.4c0-0.1,0.1-0.3,0.1-0.5V9.3L35.2,9.3z M39.4,8.4l1.1-0.2c-0.1,0.4-0.2,0.7-0.3,1c-0.1,0.3-0.3,0.5-0.5,0.7
		c-0.2,0.2-0.5,0.4-0.8,0.5c-0.3,0.1-0.6,0.1-0.8,0.1c-0.2,0-0.4-0.1-0.6-0.2c-0.2-0.1-0.3-0.3-0.4-0.6c-0.1-0.2-0.1-0.6-0.1-1
		c0-0.5,0.1-0.8,0.2-1.2c0.1-0.2,0.2-0.5,0.3-0.7c0.1-0.2,0.3-0.4,0.4-0.5c0.2-0.2,0.5-0.4,0.9-0.5c0.5-0.2,0.9-0.1,1.2,0
		c0.3,0.2,0.5,0.5,0.6,1l-1.1,0.6c0-0.2-0.1-0.3-0.2-0.4c-0.1-0.1-0.2-0.1-0.4,0c-0.2,0.1-0.4,0.2-0.5,0.4c-0.1,0.2-0.2,0.6-0.2,1
		c0,0.4,0.1,0.6,0.2,0.8c0.1,0.2,0.3,0.2,0.5,0.1c0.2,0,0.3-0.1,0.4-0.3C39.3,8.8,39.3,8.6,39.4,8.4L39.4,8.4z"/>
</g>
</svg>
