<?xml version="1.0" encoding="utf-8"?>
<!-- Generator: Adobe Illustrator 21.0.0, SVG Export Plug-In . SVG Version: 6.00 Build 0)  -->
<svg version="1.1" id="Capa_1" xmlns="http://www.w3.org/2000/svg" xmlns:xlink="http://www.w3.org/1999/xlink" x="0px" y="0px"
	 viewBox="0 0 56.1 35.4" style="enable-background:new 0 0 56.1 35.4;" xml:space="preserve">
<title>Mesa de trabajo 1</title>
<g>
	<path style="fill:#FFFFFF;" d="M55.5,33c0,1-0.8,1.8-1.8,1.8H2.3c-1,0-1.8-0.8-1.8-1.8V2.3c0-1,0.8-1.8,1.8-1.8h51.3
		c1,0,1.8,0.8,1.8,1.8V33z"/>
	<path style="fill:#EDEDED;" d="M53.7,35.4H2.3c-1.3,0-2.3-1-2.3-2.3V2.3C0,1,1.1,0,2.3,0h51.3C55,0,56,1,56,2.3V33
		C56,34.3,55,35.4,53.7,35.4z M2.3,1C1.6,1,1,1.6,1,2.3V33c0,0.7,0.6,1.3,1.3,1.3h51.3c0.7,0,1.3-0.6,1.3-1.3V2.3
		C55,1.6,54.4,1,53.7,1H2.3z"/>
</g>
<g>
	<circle style="fill:#0077BE;" cx="21.4" cy="17.7" r="9.9"/>
	<g>
		<path style="fill:#0097D9;" d="M34.6,7.8c-2.5,0-4.9,1-6.6,2.6c-0.4,0.3-0.7,0.7-1,1h2c0.3,0.3,0.5,0.7,0.8,1h-3.5
			c-0.2,0.3-0.4,0.7-0.6,1h4.6c0.2,0.3,0.3,0.7,0.4,1h-5.5c-0.1,0.3-0.2,0.7-0.3,1h6c0.1,0.7,0.2,1.4,0.2,2.1c0,1.1-0.2,2.1-0.5,3.1
			h-5.5c0.1,0.4,0.3,0.7,0.4,1h4.6c-0.2,0.4-0.4,0.7-0.6,1h-3.5c0.2,0.4,0.5,0.7,0.8,1h2c-0.3,0.4-0.6,0.7-1,1
			c1.7,1.6,4.1,2.5,6.6,2.5c5.4,0,9.9-4.4,9.9-9.9C44.5,12.2,40.1,7.8,34.6,7.8z"/>
	</g>
	<path style="fill:#0097D9;" d="M43.2,23.2c0-0.2,0.1-0.3,0.3-0.3c0.2,0,0.3,0.1,0.3,0.3c0,0.2-0.1,0.3-0.3,0.3
		C43.3,23.5,43.2,23.3,43.2,23.2z M43.5,23.4c0.1,0,0.2-0.1,0.2-0.2c0-0.1-0.1-0.2-0.2-0.2c-0.1,0-0.2,0.1-0.2,0.2
		C43.2,23.3,43.4,23.4,43.5,23.4z M43.4,23.3L43.4,23.3L43.4,23h0.1c0,0,0,0,0.1,0c0,0,0,0,0,0.1c0,0,0,0.1,0,0.1l0.1,0.1H43.4
		l0-0.1h0V23.3z M43.4,23.1L43.4,23.1C43.5,23.1,43.5,23.1,43.4,23.1C43.5,23.1,43.5,23.1,43.4,23.1C43.5,23.1,43.5,23.1,43.4,23.1
		C43.5,23.1,43.5,23.1,43.4,23.1L43.4,23.1L43.4,23.1z"/>
	<g>
		<path style="fill:#FFFFFF;" d="M39.9,19.9c0-0.2,0.1-0.3,0.3-0.3c0.2,0,0.3,0.1,0.3,0.3c0,0.2-0.1,0.3-0.3,0.3
			C40,20.2,39.9,20.1,39.9,19.9z M40.2,20.1c0.1,0,0.2-0.1,0.2-0.2c0-0.1-0.1-0.2-0.2-0.2c-0.1,0-0.2,0.1-0.2,0.2
			C39.9,20,40,20.1,40.2,20.1z M40.1,20L40.1,20l-0.1-0.3h0.1c0,0,0.1,0,0.1,0c0,0,0,0,0,0.1c0,0,0,0.1,0,0.1l0.1,0.1H40.1l0-0.1h0
			V20z M40.1,19.9L40.1,19.9C40.2,19.9,40.2,19.9,40.1,19.9C40.2,19.8,40.2,19.8,40.1,19.9C40.2,19.8,40.2,19.8,40.1,19.9
			C40.2,19.8,40.2,19.8,40.1,19.9L40.1,19.9L40.1,19.9z"/>
		<g>
			<g>
				<path style="fill:#FFFFFF;" d="M21.1,15.1c-0.1,0.4-0.1,0.6-0.3,1.1c-0.7-0.3-1.7-0.5-2.5,0c-0.7,0.5-1,1.2-0.9,2
					c0.1,0.4,0.3,0.8,0.7,0.9c0.7,0.3,1.4,0.2,2.1-0.2c-0.1,0.5-0.2,0.9-0.3,1.2c-0.9,0.2-1.7,0.3-2.6,0c-0.8-0.3-1.4-1-1.5-1.8
					c-0.2-1.2,0.4-2.5,1.6-3.1C18.7,14.7,20,14.8,21.1,15.1z"/>
			</g>
			<path style="fill:#FFFFFF;" d="M33.7,19.5c-0.2,0.2-0.6,0.7-1.7,0.7c-1,0-1.6-0.7-1.3-2.4l0.4-1.9h1.5c0,0-0.4,1.9-0.4,1.9
				c-0.1,0.7-0.1,1.2,0.6,1.2c0.8,0,1-0.5,1.2-1.2c0,0,0.4-1.9,0.4-1.9h1.5l-0.7,3.1c-0.1,0.4-0.2,0.7-0.2,1.1h-1.4
				C33.6,20.2,33.7,19.7,33.7,19.5z"/>
			<path style="fill:#FFFFFF;" d="M36.4,17.3c0,0.5,0.4,0.9,1.1,1.2c0.6,0.2,0.7,0.3,0.7,0.5c0,0.3-0.3,0.4-0.9,0.4
				c-0.5,0-0.9,0-1.4-0.2c0,0-0.2,0.9-0.2,1c0.4,0.1,1.2,0.1,1.6,0.1c1.6,0,2.3-0.4,2.3-1.4c0-0.6-0.3-0.9-1.1-1.2
				c-0.6-0.2-0.7-0.3-0.7-0.5c0-0.2,0.3-0.3,0.7-0.3c0.3,0,0.7,0,1.1,0.1l0.2-1c-0.4,0-1-0.1-1.3-0.1C36.9,15.9,36.3,16.5,36.4,17.3
				z"/>
			<polygon style="fill:#FFFFFF;" points="21.8,16 23.3,16 22.4,20.2 20.9,20.2 			"/>
			<path style="fill:#FFFFFF;" d="M30.7,16c-1.1-0.1-1.4,0.4-1.7,0.7c0-0.2,0.1-0.4,0.1-0.7h-1.4c-0.2,1.3-0.6,2.6-0.8,3.9l-0.1,0.3
				h1.6c0.2-0.9,0.4-2.1,0.7-2.5c0.3-0.4,0.7-0.7,1.2-0.5L30.7,16z"/>
			<path style="fill:#FFFFFF;" d="M27.3,16c-1.1-0.1-1.4,0.4-1.7,0.7c0-0.2,0.1-0.4,0.1-0.7h-1.4c-0.2,1.3-0.6,2.6-0.8,3.9l-0.1,0.3
				h1.6c0.2-0.9,0.4-2.1,0.7-2.5c0.2-0.4,0.7-0.7,1.2-0.5L27.3,16z"/>
		</g>
	</g>
</g>
</svg>
