<svg id="Capa_1" data-name="Capa 1" xmlns="http://www.w3.org/2000/svg" viewBox="0 0 30 30"><defs><style>.cls-1{fill:#61d2cd;}</style></defs><title>list</title><g id="_Grupo_" data-name="&lt;Grupo&gt;"><path id="_Trazado_" data-name="&lt;Trazado&gt;" class="cls-1" d="M13.93,9.69H25.11a.94.94,0,0,0,0-1.87H13.93a.94.94,0,0,0,0,1.88Z"/><path id="_Trazado_2" data-name="&lt;Trazado&gt;" class="cls-1" d="M25.11,14.06H13.93a.94.94,0,0,0,0,1.88H25.11a.94.94,0,0,0,0-1.87Z"/><path id="_Trazado_3" data-name="&lt;Trazado&gt;" class="cls-1" d="M25.11,20.31H13.93a.94.94,0,0,0,0,1.88H25.11a.94.94,0,0,0,0-1.87Z"/><path id="_Trazado_4" data-name="&lt;Trazado&gt;" class="cls-1" d="M9.74,7.81H7A.94.94,0,0,0,7,9.69H9.74a.94.94,0,1,0,0-1.87Z"/><path id="_Trazado_5" data-name="&lt;Trazado&gt;" class="cls-1" d="M9.74,14.06H7a.94.94,0,0,0,0,1.88H9.74a.94.94,0,1,0,0-1.87Z"/><path id="_Trazado_6" data-name="&lt;Trazado&gt;" class="cls-1" d="M9.74,20.31H7a.94.94,0,0,0,0,1.88H9.74a.94.94,0,1,0,0-1.87Z"/></g></svg>