<svg id="Capa_1" data-name="Capa 1" xmlns="http://www.w3.org/2000/svg" viewBox="0 0 56.09 35.38"><defs><style>.cls-1{fill:#fff;}.cls-2{fill:#ededed;}.cls-3{fill:#369;}.cls-4{fill:#036;}</style></defs><title>Mesa de trabajo 1</title><rect class="cls-1" x="0.54" y="0.5" width="55" height="34.38" rx="1.83" ry="1.83"/><path class="cls-2" d="M53.71,35.38H2.38A2.34,2.34,0,0,1,0,33V2.33A2.34,2.34,0,0,1,2.38,0H53.71A2.34,2.34,0,0,1,56,2.33V33A2.34,2.34,0,0,1,53.71,35.38ZM2.38,1A1.33,1.33,0,0,0,1,2.33V33a1.33,1.33,0,0,0,1.33,1.33H53.71A1.33,1.33,0,0,0,55,33V2.33A1.33,1.33,0,0,0,53.71,1Z"/><path class="cls-3" d="M38.64,15.83A3.5,3.5,0,0,0,37,15.54a7.2,7.2,0,0,0-1.11.09l-.47.08a.54.54,0,0,0-.4.42l-.11.46c-.06.29.1.28.18.26a4.75,4.75,0,0,1,.54-.16,4,4,0,0,1,.86-.12,2.27,2.27,0,0,1,.83.12.42.42,0,0,1,.28.42.31.31,0,0,1,0,.13s0,.07-.13.08c-.52,0-.9.08-1.35.14a4.23,4.23,0,0,0-1.16.32,1.81,1.81,0,0,0-.79.62,1.7,1.7,0,0,0-.26,1,1.12,1.12,0,0,0,.37.87,1.4,1.4,0,0,0,1,.33,2.56,2.56,0,0,0,.57-.05,2.91,2.91,0,0,0,.44-.15,2.3,2.3,0,0,0,.38-.21l.35-.23h0l0,.15h0a.27.27,0,0,0,.24.34H38a.48.48,0,0,0,.39-.34l.67-2.89a1.71,1.71,0,0,0,0-.24,1.89,1.89,0,0,0,0-.22A1,1,0,0,0,38.64,15.83ZM37,19.27a2.49,2.49,0,0,1-.36.19,1.3,1.3,0,0,1-.48.1,1.06,1.06,0,0,1-.52-.1.35.35,0,0,1-.18-.34.7.7,0,0,1,.13-.45A1,1,0,0,1,36,18.4a3.35,3.35,0,0,1,.6-.14l.67-.07c.05,0,.09,0,.06.11s-.13.55-.18.77A.43.43,0,0,1,37,19.27Z"/><path class="cls-4" d="M27.13,15.6a.78.78,0,0,0-.57.35l-1.44,2.47c-.07.12-.14,0-.15,0L24.56,16a.5.5,0,0,0-.5-.36h-.82A.27.27,0,0,0,23,16s.63,3.54.75,4.38c.06.46,0,.54,0,.54l-.81,1.41c-.12.19-.05.35.14.35H24a.77.77,0,0,0,.57-.35l3.65-6.17s.35-.53,0-.52h-1.1"/><path class="cls-4" d="M15.62,16.86a1.92,1.92,0,0,1-1.16.3h-.22a.27.27,0,0,1-.28-.35l.28-1.19a.46.46,0,0,1,.44-.35H15a1.45,1.45,0,0,1,.8.18A.6.6,0,0,1,16,16a1,1,0,0,1-.41.86m2-1.83a1.37,1.37,0,0,0-.5-.54,2.31,2.31,0,0,0-.79-.29,6.63,6.63,0,0,0-1.08-.09H13.31a.48.48,0,0,0-.44.35l-1.29,5.6a.27.27,0,0,0,.28.35h.92a.47.47,0,0,0,.44-.35l.32-1.36a.47.47,0,0,1,.44-.35h.26a4.34,4.34,0,0,0,2.61-.69,2.14,2.14,0,0,0,.93-1.81A1.71,1.71,0,0,0,17.6,15"/><path class="cls-3" d="M32.24,16.88a1.93,1.93,0,0,1-1.15.3h-.23a.27.27,0,0,1-.28-.35l.27-1.19a.47.47,0,0,1,.44-.35h.3a1.49,1.49,0,0,1,.8.18.61.61,0,0,1,.27.55,1,1,0,0,1-.41.86m2-1.83a1.4,1.4,0,0,0-.5-.54,2.27,2.27,0,0,0-.8-.29,6.36,6.36,0,0,0-1.08-.08H29.93a.48.48,0,0,0-.44.35l-1.29,5.6a.27.27,0,0,0,.27.35h.92a.48.48,0,0,0,.44-.35l.31-1.36a.47.47,0,0,1,.44-.35h.26a4.33,4.33,0,0,0,2.61-.69,2.16,2.16,0,0,0,.93-1.82,1.77,1.77,0,0,0-.17-.82"/><path class="cls-4" d="M22,15.83a3.49,3.49,0,0,0-1.64-.29,7.23,7.23,0,0,0-1.11.09l-.47.09a.54.54,0,0,0-.4.42l-.11.46c-.06.29.1.28.18.26a4.89,4.89,0,0,1,.54-.16,4,4,0,0,1,.86-.12,2.27,2.27,0,0,1,.83.12.42.42,0,0,1,.28.42.3.3,0,0,1,0,.13s0,.07-.13.08c-.52,0-.9.08-1.35.14a4.22,4.22,0,0,0-1.16.32,1.81,1.81,0,0,0-.79.62,1.68,1.68,0,0,0-.26,1,1.12,1.12,0,0,0,.37.87,1.4,1.4,0,0,0,1,.33,2.58,2.58,0,0,0,.57-.05,2.93,2.93,0,0,0,.44-.15,2.31,2.31,0,0,0,.38-.21l.35-.23h0l0,.15h0a.27.27,0,0,0,.24.34h.87a.48.48,0,0,0,.39-.34l.67-2.89a1.59,1.59,0,0,0,0-.24,1.72,1.72,0,0,0,0-.22A1,1,0,0,0,22,15.83Zm-1.62,3.44a2.36,2.36,0,0,1-.36.19,1.29,1.29,0,0,1-.48.1,1.07,1.07,0,0,1-.52-.1.35.35,0,0,1-.18-.34.69.69,0,0,1,.13-.45.94.94,0,0,1,.39-.26,3.39,3.39,0,0,1,.6-.14l.67-.07c.05,0,.09,0,.06.11s-.13.55-.18.77A.44.44,0,0,1,20.39,19.26Z"/><path class="cls-3" d="M41.79,14.17H41a.47.47,0,0,0-.42.32v0l0,.21-1.13,5.12-.05.23h0a.27.27,0,0,0,.24.34h.86a.47.47,0,0,0,.43-.32v0l1.23-5.55h0A.27.27,0,0,0,41.79,14.17Z"/><path class="cls-3" d="M43,15.31l-.09,0h-.09a.28.28,0,0,1-.21-.07.33.33,0,0,1-.07-.24v-.47h-.1v-.13h.1v-.26h.15v.26H43v.13h-.31V15s0,.08,0,.11a.18.18,0,0,0,0,.07.11.11,0,0,0,0,0H43l.06,0h0Z"/><path class="cls-3" d="M44.52,15.31h-.15v-.51a1,1,0,0,0,0-.11.23.23,0,0,0,0-.09.12.12,0,0,0-.05-.05l-.1,0a.27.27,0,0,0-.13,0l-.13.08v0s0,0,0,0v.57h-.15v-.51s0-.08,0-.11a.23.23,0,0,0,0-.08.12.12,0,0,0-.05-.05l-.1,0a.27.27,0,0,0-.12,0l-.12.08v.67h-.15v-.89h.15v.1l.14-.09a.34.34,0,0,1,.15,0,.29.29,0,0,1,.15,0,.24.24,0,0,1,.09.11.72.72,0,0,1,.17-.11.39.39,0,0,1,.16,0,.26.26,0,0,1,.22.09.4.4,0,0,1,.07.25Z"/></svg>
