<svg id="Capa_1" data-name="Capa 1" xmlns="http://www.w3.org/2000/svg" viewBox="0 0 56.09 35.38"><defs><style>.cls-1{fill:#fff;}.cls-2{fill:#ededed;}.cls-3{fill:#0073a5;}</style></defs><title>Mesa de trabajo 1</title><rect class="cls-1" x="0.54" y="0.5" width="55" height="34.37" rx="1.83" ry="1.83"/><path class="cls-2" d="M53.71,35.37H2.38A2.34,2.34,0,0,1,0,33V2.33A2.34,2.34,0,0,1,2.38,0H53.71A2.34,2.34,0,0,1,56,2.33V33A2.34,2.34,0,0,1,53.71,35.37ZM2.38,1A1.33,1.33,0,0,0,1,2.33V33a1.33,1.33,0,0,0,1.33,1.33H53.71A1.33,1.33,0,0,0,55,33V2.33A1.33,1.33,0,0,0,53.71,1Z"/><path class="cls-1" d="M17.61,16.34v.55h10V15h.18s.19,0,.19.23v1.69h5v-.52a3.26,3.26,0,0,0,1.64.52H37.2l.55-1.3h.81l.59,1.3H43.3V15.63l.79,1.27h3.35V9.63H44.18v1.05l-.62-1.05H40.15v1.05l-.47-1.05H34.37A2.45,2.45,0,0,0,33,10v-.4H30v.28a2,2,0,0,0-1-.28H17l-.81,1.75-.83-1.75H11.58v1l-.43-1H8.05L6.43,13.29v3.59H8.64l.53-1.19H10l.5,1.19h4.26V16.3l.29.59h2.28Z"/><path class="cls-1" d="M46.68,18.46a2.31,2.31,0,0,0-1,.26v-.26H41.93a2,2,0,0,0-1,.26v-.26H35.17v.29a2.3,2.3,0,0,0-1.05-.29H29.61v.25a2.33,2.33,0,0,0-.93-.25H23.62l-1,1.08-.95-1.08H15.11v7.28H21.6l1-1.11.91,1.11h4V24h1.17a2.19,2.19,0,0,0,1-.19v2h3.24v-2H33c.15,0,.23,0,.23.21v1.77H43.6a2,2,0,0,0,.94-.22v.22h3.91a1.63,1.63,0,0,0,1.2-.44V18.46Z"/><polygon class="cls-3" points="35.86 24.7 39.99 24.7 39.99 23.62 37.13 23.62 37.13 22.6 39.91 22.6 39.91 21.63 37.13 21.63 37.13 20.66 39.99 20.66 39.99 19.55 35.86 19.55 35.86 24.7"/><path class="cls-3" d="M48,21.56l-.89,0c-.3,0-.53-.09-.53-.41,0-.5.48-.44.92-.45h1.94v-1.1H46.76a1.42,1.42,0,0,0-1.51,1.49c0,.85.33,1.55,1.73,1.58.09,0,.71,0,.87.06.37,0,.47.19.47.42,0,.49-.52.49-.87.49H45.38v1.1H48a1.5,1.5,0,0,0,1.62-1.48C49.66,22.41,49.53,21.64,48,21.56Z"/><path class="cls-3" d="M43.22,21.56l-.88,0c-.3,0-.53-.09-.53-.41,0-.5.48-.44.92-.45h1.94v-1.1H42a1.42,1.42,0,0,0-1.51,1.49c0,.85.33,1.55,1.73,1.58.09,0,.71,0,.87.06.37,0,.47.19.47.42,0,.49-.52.49-.87.49H40.63v1.1h2.65a1.5,1.5,0,0,0,1.62-1.48C44.9,22.41,44.77,21.64,43.22,21.56Z"/><path class="cls-3" d="M28.23,19.56H23.8l-1.45,1.6-1.4-1.61H16V24.7h4.82L22.3,23l1.48,1.71h2.42V23h1.7c.66,0,1.85,0,1.85-1.83A1.43,1.43,0,0,0,28.23,19.56Zm-8.11,4.06H17.21v-1H20v-1H17.21v-1h3.07l1.23,1.4Zm4.83.6-1.82-2.15,1.82-2Zm2.85-2.31H26.23V20.67h1.58a.62.62,0,1,1,0,1.24Z"/><path class="cls-3" d="M35.21,20.94a1.36,1.36,0,0,0-1.52-1.38H30.41v5.15h1.26V22.89h1.65c.44,0,.61.44.62.87l0,.94h1.23l0-1.06c0-.83-.23-1.22-.83-1.29A1.41,1.41,0,0,0,35.21,20.94Zm-2,.89H31.67V20.67h1.58a.61.61,0,0,1,.7.59C33.95,21.6,33.76,21.83,33.24,21.83Z"/><rect class="cls-3" x="30.91" y="10.66" width="1.26" height="5.15"/><polygon class="cls-3" points="20.57 15.82 24.7 15.82 24.7 14.74 21.83 14.74 21.83 13.72 24.62 13.72 24.62 12.74 21.83 12.74 21.83 11.78 24.7 11.78 24.7 10.67 20.57 10.67 20.57 15.82"/><path class="cls-3" d="M30.25,12a1.36,1.36,0,0,0-1.52-1.38H25.45v5.15h1.26V14h1.65c.44,0,.61.44.62.87l0,.94h1.23l0-1.06c0-.83-.23-1.22-.83-1.29A1.4,1.4,0,0,0,30.25,12Zm-2,.89H26.71V11.77h1.58a.61.61,0,0,1,.69.59C29,12.71,28.8,12.94,28.29,12.94Z"/><path class="cls-3" d="M16.1,14.12l-1.55-3.45h-2v5l-2.21-5H8.69L6.44,15.82H7.78l.49-1.15h2.52l.5,1.15h2.55V12l1.69,3.82h1.15l1.73-3.76v3.76h1.26V10.67h-2Zm-7.35-.57.75-1.8.79,1.8Z"/><path class="cls-3" d="M45.22,10.67v3.56l-2.13-3.56H41.22V15.5l-2.15-4.83H37.39l-1.74,4s-.74,0-.81,0c-.31-.06-.78-.28-.79-1.19v-.37c0-1.21.66-1.29,1.5-1.29h.78V10.67H34.68c-.57,0-1.82.44-1.87,2.55,0,1.43.59,2.6,2,2.6h1.67L37,14.67h2.52l.5,1.15h2.49V12.05l2.28,3.77h1.72V10.67Zm-7.76,2.89.75-1.8.79,1.8Z"/></svg>