<?xml version="1.0" encoding="utf-8"?>
<!-- Generator: Adobe Illustrator 21.0.0, SVG Export Plug-In . SVG Version: 6.00 Build 0)  -->
<svg version="1.1" id="Capa_1" xmlns="http://www.w3.org/2000/svg" xmlns:xlink="http://www.w3.org/1999/xlink" x="0px" y="0px"
	 viewBox="0 0 56.1 35.4" style="enable-background:new 0 0 56.1 35.4;" xml:space="preserve">
<title>Mesa de trabajo 1</title>
<g>
	<path style="fill:#FFFFFF;" d="M55.6,33.1c0,1-0.8,1.8-1.8,1.8H2.4c-1,0-1.8-0.8-1.8-1.8V2.4c0-1,0.8-1.8,1.8-1.8h51.3
		c1,0,1.8,0.8,1.8,1.8V33.1z"/>
	<path style="fill:#EDEDED;" d="M53.8,35.4H2.4c-1.3,0-2.3-1-2.3-2.3V2.4c0-1.3,1-2.3,2.3-2.3h51.3c1.3,0,2.3,1,2.3,2.3v30.7
		C56.1,34.4,55,35.4,53.8,35.4z M2.4,1C1.7,1,1.1,1.6,1.1,2.4v30.7c0,0.7,0.6,1.3,1.3,1.3h51.3c0.7,0,1.3-0.6,1.3-1.3V2.4
		c0-0.7-0.6-1.3-1.3-1.3H2.4z"/>
</g>
<polygon style="fill-rule:evenodd;clip-rule:evenodd;fill:#FFFFFF;" points="28.1,17.7 28.1,17.7 28.1,17.7 28.1,17.7 28.1,17.7 "/>
<g>
	<path style="fill:#BCA123;" d="M28.1,10.1c-4.2,0-7.7,3.4-7.7,7.7s3.4,7.7,7.7,7.7s7.7-3.4,7.7-7.7S32.3,10.1,28.1,10.1z
		 M31.6,19.4c-0.2,0.5-0.5,1-0.8,1.3c-0.3,0.3-0.6,0.5-1.1,0.6c-0.3,0.1-0.8,0.2-1.3,0.2h-2.8v-3.2h-1.3v-1.1h1.3V14h2.7
		c0.6,0,1.1,0,1.4,0.1c0.4,0.1,0.8,0.4,1.1,0.7s0.5,0.7,0.7,1.2s0.2,1.1,0.2,1.8C31.9,18.4,31.8,18.9,31.6,19.4z"/>
	<path style="fill:#BCA123;" d="M29.7,15.7c-0.2-0.2-0.4-0.3-0.7-0.4c-0.2,0-0.6-0.1-1.2-0.1h-0.7v1.9h1.3v1.1h-1.3v1.9h1.1
		c0.4,0,0.7,0,0.9-0.1c0.2-0.1,0.4-0.2,0.6-0.3c0.2-0.2,0.3-0.4,0.4-0.7c0.1-0.3,0.2-0.8,0.2-1.4s0-1-0.2-1.3
		C30.1,16.1,29.9,15.9,29.7,15.7z"/>
</g>
</svg>
