<svg id="Capa_1" data-name="Capa 1" xmlns="http://www.w3.org/2000/svg" viewBox="0 0 100 100"><defs><style>.cls-1{fill:#56d3ce;}.cls-2{fill:#d3f3f3;}</style></defs><title>modo-de-uso</title><path class="cls-1" d="M44.65,54.09a1,1,0,0,0-1.28-.59c-2.67,1-4.82,1.07-6.38.26a4.38,4.38,0,0,1-2.13-2.57,1,1,0,0,0-1.94.49,5.69,5.69,0,0,0,.4,1,1,1,0,0,0-.51,1.76,9.87,9.87,0,0,0,5,1.75h.1l.11,0a8.15,8.15,0,0,0,1.39.13,13.41,13.41,0,0,0,4.61-.94A1,1,0,0,0,44.65,54.09Z"/><path class="cls-1" d="M56.08,55.37a13.41,13.41,0,0,0,4.61.94,8.15,8.15,0,0,0,1.39-.13l.11,0h.1a9.87,9.87,0,0,0,5-1.75,1,1,0,0,0-.51-1.76,5.7,5.7,0,0,0,.4-1,1,1,0,0,0-1.94-.49,4.4,4.4,0,0,1-2.14,2.57c-1.56.81-3.71.73-6.38-.26a1,1,0,0,0-.69,1.88Z"/><path class="cls-1" d="M50.24,65A3.86,3.86,0,0,0,53,63.81a1,1,0,0,0-1.41-1.41,2.17,2.17,0,0,1-3.07,0,1,1,0,0,0-1.33,1.5A4.78,4.78,0,0,0,50.24,65Z"/><path class="cls-1" d="M56.1,69.18l-.74.31a.73.73,0,0,1-.72-.1l-.8-.62a2.59,2.59,0,0,0-3-.1l-.7.48-.7-.48a2.59,2.59,0,0,0-3,.1l-.8.62a.73.73,0,0,1-.72.1l-.74-.31A1,1,0,0,0,43.33,71l.74.31a2.7,2.7,0,0,0,2.22-.07,1,1,0,0,0,.12.94,5.2,5.2,0,0,0,3.55,2h.19a5,5,0,0,0,3.71-1.92,1,1,0,0,0,.21-.93,2.73,2.73,0,0,0,2,0l.74-.31a1,1,0,0,0-.76-1.85Zm-6,3A3.2,3.2,0,0,1,48,71a1,1,0,0,0-.78-.38l.35-.27a.59.59,0,0,1,.69,0l1.26.85a1,1,0,0,0,1.12,0l1.26-.85a.59.59,0,0,1,.69,0l.36.28a1,1,0,0,0-.59.3A3.15,3.15,0,0,1,50.07,72.19Z"/><path class="cls-1" d="M60.56,75.74c4.21-4.21,8.56-10.11,10.2-17.53a1,1,0,0,0,.21-.13,27.45,27.45,0,0,0,8.67-20,28.08,28.08,0,0,0-15-24.6l0,0A30.39,30.39,0,0,0,50.1,9.85c-16.29,0-29.54,12.67-29.54,28.24a27.76,27.76,0,0,0,9.21,20.48,34.5,34.5,0,0,0,9.53,16.93,1,1,0,0,0,.06.23c0,.08,3.53,7.56,1.3,12.65a1,1,0,0,0,.51,1.32,1,1,0,0,0,.4.08,1,1,0,0,0,.92-.6c1.55-3.54.83-7.84,0-10.8a45.9,45.9,0,0,0,5,3.62A5.17,5.17,0,0,0,53,81.92a50.87,50.87,0,0,0,4.35-3.28c-.83,2.95-1.48,7.11,0,10.55a1,1,0,0,0,.92.6,1,1,0,0,0,.4-.08,1,1,0,0,0,.51-1.32C57,83.33,60.51,75.85,60.56,75.74ZM77.63,38.1a25.31,25.31,0,0,1-6.35,16.76,25.4,25.4,0,0,0-6-19A19.88,19.88,0,0,0,54,29.32c.45-.1.91-.21,1.4-.33,7.84-2,9.45-9.43,9.77-12.85A26,26,0,0,1,77.63,38.1Zm-55.07,0c0-14.47,12.35-26.24,27.54-26.24A28.44,28.44,0,0,1,63.23,15c0,2.21-.76,10-8.35,12a46.46,46.46,0,0,1-4.93,1c-3.37.52-6.28,1-10,3.55l-.06.06C32.76,35.67,29.07,43.86,29.07,52a31.88,31.88,0,0,0,.17,3.24A25.63,25.63,0,0,1,22.56,38.1ZM51.93,80.26a3.17,3.17,0,0,1-3.44.06C43.25,77,31.07,67.73,31.07,52a28.72,28.72,0,0,1,.17-3.14,1,1,0,0,0,1.37.33A8.66,8.66,0,0,1,44,50.5a1,1,0,0,0,1.52-1.3,10.77,10.77,0,0,0-13.91-1.75,1,1,0,0,0-.16.15C33.21,36.22,42,31,50.33,31A17.6,17.6,0,0,1,63.8,37.15,22.76,22.76,0,0,1,68.91,47.6a1,1,0,0,0-.15-.14,10.76,10.76,0,0,0-13.91,1.75,1,1,0,0,0,1.52,1.3,8.66,8.66,0,0,1,11.34-1.34,1,1,0,0,0,1.38-.33s0,0,0-.07a23.68,23.68,0,0,1,.11,6.59C67.58,68.47,56.58,77.14,51.93,80.26Z"/><path class="cls-1" d="M74.49,70.34H72.63V68.48a.5.5,0,1,0-1,0v1.86H69.77a.5.5,0,0,0,0,1h1.86V73.2a.5.5,0,1,0,1,0V71.34h1.86a.5.5,0,0,0,0-1Z"/><path class="cls-1" d="M34.23,78.6h-1v-1a.5.5,0,0,0-1,0v1h-1a.5.5,0,0,0,0,1h1v1a.5.5,0,0,0,1,0v-1h1a.5.5,0,1,0,0-1Z"/><circle class="cls-2" cx="76.1" cy="64.56" r="1.46"/><circle class="cls-2" cx="28.91" cy="72.4" r="0.98"/><path class="cls-2" d="M53.21,13.87l-1-.06c-20.92-.88-34.5,22.09-24,40.19l.26.43S25.38,40.73,36.38,33c0,0,5.47-4.87,19.24-7.12l0,0A6.35,6.35,0,0,0,53.21,13.87Z"/><path class="cls-2" d="M67.63,19.23s-1.71,8.56-9,10.75c0,0,13.54,4,13.54,21.25C72.13,51.23,83.38,38,67.63,19.23Z"/></svg>