<svg id="Capa_1" data-name="Capa 1" xmlns="http://www.w3.org/2000/svg" viewBox="0 0 30 30"><defs><style>.cls-1{fill:#61d2cd;}</style></defs><title>grid</title><path class="cls-1" d="M12.45,5.07H5.69A.69.69,0,0,0,5,5.76v6.76a.69.69,0,0,0,.69.69h6.76a.69.69,0,0,0,.69-.69V5.83A.71.71,0,0,0,12.45,5.07Zm-.69,6.76H6.45V6.52h5.31Z"/><path class="cls-1" d="M24.31,5.07H17.55a.69.69,0,0,0-.69.69v6.76a.69.69,0,0,0,.69.69h6.76a.69.69,0,0,0,.69-.69V5.83A.71.71,0,0,0,24.31,5.07Zm-.69,6.76H18.31V6.52h5.31Z"/><path class="cls-1" d="M12.45,16.79H5.69a.69.69,0,0,0-.69.69v6.76a.69.69,0,0,0,.69.69h6.76a.69.69,0,0,0,.69-.69V17.48A.65.65,0,0,0,12.45,16.79Zm-.69,6.69H6.45V18.17h5.31Z"/><path class="cls-1" d="M24.31,16.79H17.55a.69.69,0,0,0-.69.69v6.76a.69.69,0,0,0,.69.69h6.76a.69.69,0,0,0,.69-.69V17.48A.65.65,0,0,0,24.31,16.79Zm-.69,6.69H18.31V18.17h5.31Z"/></svg>