<svg id="Capa_1" data-name="Capa 1" xmlns="http://www.w3.org/2000/svg" viewBox="0 0 30 30"><defs><style>.cls-1{fill:#fac6c9;}</style></defs><title>twitter</title><path class="cls-1" d="M25,9.11a7.8,7.8,0,0,1-2.24.61,3.9,3.9,0,0,0,1.71-2.16A7.79,7.79,0,0,1,22,8.51a3.9,3.9,0,0,0-6.64,3.55A11.06,11.06,0,0,1,7.33,8,3.9,3.9,0,0,0,8.53,13.2a3.9,3.9,0,0,1-1.77-.49v0A3.9,3.9,0,0,0,9.9,16.58a3.8,3.8,0,0,1-1,.14,3.86,3.86,0,0,1-.73-.07,3.9,3.9,0,0,0,3.64,2.71A7.88,7.88,0,0,1,6,21a11.09,11.09,0,0,0,17.07-9.34c0-.17,0-.34,0-.5a7.9,7.9,0,0,0,1.94-2"/></svg>