<?xml version="1.0" encoding="utf-8"?>
<!-- Generator: Adobe Illustrator 21.0.0, SVG Export Plug-In . SVG Version: 6.00 Build 0)  -->
<svg version="1.1" id="Capa_1" xmlns="http://www.w3.org/2000/svg" xmlns:xlink="http://www.w3.org/1999/xlink" x="0px" y="0px"
	 viewBox="0 0 56.1 35.4" style="enable-background:new 0 0 56.1 35.4;" xml:space="preserve">
<title>Mesa de trabajo 1</title>
<g>
	<path style="fill:#FFFFFF;" d="M55.5,33.1c0,1-0.8,1.8-1.8,1.8H2.4c-1,0-1.8-0.8-1.8-1.8V2.4c0-1,0.8-1.8,1.8-1.8h51.3
		c1,0,1.8,0.8,1.8,1.8V33.1z"/>
	<path style="fill:#EDEDED;" d="M53.7,35.4H2.4c-1.3,0-2.3-1-2.3-2.3V2.4C0,1.1,1.1,0,2.4,0h51.3C55,0,56,1.1,56,2.4v30.7
		C56,34.4,55,35.4,53.7,35.4z M2.4,1C1.6,1,1,1.6,1,2.4v30.7c0,0.7,0.6,1.3,1.3,1.3h51.3c0.7,0,1.3-0.6,1.3-1.3V2.4
		C55,1.6,54.4,1,53.7,1H2.4z"/>
</g>
<g>
	<path style="fill:#00A551;" d="M37.6,18.9c0.1,2,0.1,4.1,0,6.1c-0.1,0.8-0.6,1.6-1.3,2c-0.6,0.4-1.3,0.4-2,0.4l-2.7,0l0-17
		c0.1-1.1,1-2.1,2-2.4c1.3-0.2,2.5-0.1,3.9-0.1l0.1,0.9v9.6l0,0V18.9z"/>
	<path style="fill:#0071BB;" d="M18.4,18.3v-8c0.2-0.9,0.9-1.7,1.8-2.1C21.5,7.8,23,8,24.3,8c0.1,1.3,0,2.9,0,4.1l0.1,10.5
		c-0.2,1.6,0.4,3.8-1.6,4.7c-1.3,0.6-3,0.2-4.4,0.4l0-0.2v-8.7V18.3z"/>
	<path style="fill:#FFFFFF;" d="M18.4,18.6c0.5,0.7,1.3,1.2,2.2,1.3c1.1,0.1,2.5,0.2,3.3-0.8c0.5-0.5,0.2-1.3,0.3-2l0-1.3
		c-0.6-0.1-1.2,0-1.9,0c-0.4,1.4,0.6,2.9-1,3.6c-0.4,0.1-0.9,0-1.3-0.2c-0.6-0.1-0.3-1.1-1.1-0.8l-0.5-0.1V18.6z"/>
	<path style="fill:#EC1C24;" d="M31,9.1l0,16.3c-0.2,0.8-0.8,1.6-1.7,1.9c-1.3,0.4-2.8,0.2-4.2,0.2L25,10.3c0.1-0.8,0.6-1.5,1.3-1.9
		c0.5-0.3,1.1-0.4,1.7-0.5h2.8L31,9.1z"/>
	<path style="fill:#FFFFFF;" d="M30.7,15.8c0.1,0.2,0,0.4,0,0.6c-1-0.3-2.2-0.6-3.1,0.2c-0.3,0.4-0.5,0.8-0.5,1.3
		c0.1,0.6,0.5,1.2,1,1.4c0.9,0.3,1.8,0,2.6-0.2c0,0.2,0.1,0.4,0,0.5h-3.8c-0.7-0.1-1.2-0.5-1.5-1.2c-0.3-0.6-0.1-1.5,0.3-2
		c0.4-0.5,1-0.7,1.6-0.7L30.7,15.8z"/>
	<path style="fill:#FFFFFF;" d="M37.6,18.9c-0.1,0.4-0.4,0.8-0.8,0.8h-4.7l-0.2-0.1c0-1.3,0-2.6,0-3.9h3c0.9,0.1,2-0.3,2.4,0.6
		c0.1,0.3,0.1,0.7-0.1,0.9c-0.1,0.2-0.4,0.3-0.5,0.4c0.4,0.1,0.8,0.4,0.9,0.8V18.9z M33.6,16.2c-0.1,0.4-0.1,0.9,0,1.3
		c0.7,0,1.6,0.2,2.1-0.3c0.2-0.2,0.1-0.5,0-0.7C35.1,16,34.3,16.3,33.6,16.2z M35.4,18c-0.6-0.1-1.3-0.1-1.9,0c0,0.5,0,0.9,0.1,1.4
		c0.7,0,1.4,0.1,2-0.2c0.2-0.2,0.3-0.4,0.2-0.7C35.8,18.3,35.6,18.1,35.4,18z"/>
</g>
</svg>
