<?xml version="1.0" encoding="utf-8"?>
<!-- Generator: Adobe Illustrator 21.0.0, SVG Export Plug-In . SVG Version: 6.00 Build 0)  -->
<svg version="1.1" id="Capa_1" xmlns="http://www.w3.org/2000/svg" xmlns:xlink="http://www.w3.org/1999/xlink" x="0px" y="0px"
	 viewBox="0 0 56.1 35.4" style="enable-background:new 0 0 56.1 35.4;" xml:space="preserve">
<title>Mesa de trabajo 1</title>
<g>
	<path style="fill:#FFFFFF;" d="M55.5,33.1c0,1-0.8,1.8-1.8,1.8H2.4c-1,0-1.8-0.8-1.8-1.8V2.4c0-1,0.8-1.8,1.8-1.8h51.3
		c1,0,1.8,0.8,1.8,1.8V33.1z"/>
	<path style="fill:#EDEDED;" d="M53.7,35.4H2.4c-1.3,0-2.3-1-2.3-2.3V2.4C0,1.1,1.1,0,2.4,0h51.3C55,0,56,1.1,56,2.4v30.7
		C56,34.4,55,35.4,53.7,35.4z M2.4,1C1.6,1,1,1.6,1,2.4v30.7c0,0.7,0.6,1.3,1.3,1.3h51.3c0.7,0,1.3-0.6,1.3-1.3V2.4
		C55,1.6,54.4,1,53.7,1H2.4z"/>
</g>
<g>
	<path style="fill:#FF7407;" d="M13.5,20.9c-0.3,0-0.6,0-0.9,0c-0.3,0-0.5,0-0.7-0.1v-6.2c0.3,0,0.7-0.1,1-0.1c0.3,0,0.6,0,0.8,0
		c0.5,0,1,0.1,1.3,0.2c0.4,0.1,0.7,0.3,0.9,0.6c0.2,0.3,0.4,0.6,0.5,1c0.1,0.4,0.2,0.9,0.2,1.4c0,0.6-0.1,1.1-0.2,1.5
		c-0.1,0.4-0.3,0.7-0.6,1c-0.3,0.3-0.6,0.5-1,0.6C14.5,20.9,14,20.9,13.5,20.9z M13.9,20c0.3,0,0.6,0,0.8-0.1
		c0.2-0.1,0.4-0.2,0.5-0.4c0.1-0.2,0.2-0.4,0.3-0.7c0.1-0.3,0.1-0.6,0.1-1s0-0.8-0.1-1c-0.1-0.3-0.2-0.5-0.3-0.7
		c-0.1-0.2-0.3-0.3-0.5-0.4c-0.2-0.1-0.5-0.1-0.8-0.1c-0.1,0-0.2,0-0.4,0c-0.1,0-0.3,0-0.5,0v4.4c0.2,0,0.3,0,0.4,0.1
		C13.6,20,13.7,20,13.9,20z"/>
	<path style="fill:#FF7407;" d="M17,14.6h1.1l0.8,3.9l0.2,1.1h0.1l0.2-1.1l0.9-3.9h1.1l0.9,3.9l0.2,1.1h0.1l0.2-1.1l0.8-3.9h1.1
		l-1.4,6.3h-1.4l-0.8-3.5l-0.2-1.3h-0.1l-0.2,1.3l-0.8,3.4h-1.4L17,14.6z"/>
	<path style="fill:#FF7407;" d="M27.6,20.9c-0.8,0-1.5-0.3-1.9-0.8c-0.4-0.5-0.7-1.3-0.7-2.4c0-1.1,0.2-1.9,0.7-2.4
		c0.4-0.5,1.1-0.8,1.9-0.8c0.8,0,1.5,0.3,1.9,0.8c0.4,0.5,0.7,1.3,0.7,2.4c0,1.1-0.2,1.9-0.7,2.4C29.1,20.7,28.4,20.9,27.6,20.9z
		 M27.6,20c0.3,0,0.5,0,0.7-0.1c0.2-0.1,0.3-0.2,0.5-0.4c0.1-0.2,0.2-0.4,0.3-0.7c0.1-0.3,0.1-0.6,0.1-1c0-0.8-0.1-1.4-0.4-1.7
		c-0.2-0.4-0.6-0.5-1.1-0.5c-0.3,0-0.5,0-0.7,0.1c-0.2,0.1-0.3,0.2-0.5,0.4c-0.1,0.2-0.2,0.4-0.3,0.7c-0.1,0.3-0.1,0.6-0.1,1
		s0,0.7,0.1,1c0.1,0.3,0.1,0.5,0.3,0.7c0.1,0.2,0.3,0.3,0.5,0.4C27.1,19.9,27.4,20,27.6,20z"/>
	<path style="fill:#FF7407;" d="M31.1,14.6h1.1v5.3h2.4v0.9h-3.5V14.6z"/>
	<path style="fill:#FF7407;" d="M35.2,14.6h1.1v5.3h2.4v0.9h-3.5V14.6z"/>
	<path style="fill:#FF7407;" d="M38.8,20.8l1.9-6.2h1.6l1.9,6.2v0.1h-1l-0.5-1.6h-2.3l-0.5,1.6L38.8,20.8L38.8,20.8z M42.4,18.3
		l-0.5-1.7l-0.3-1.2h-0.1l-0.3,1.2l-0.5,1.7H42.4z"/>
</g>
</svg>
