<svg id="Capa_1" data-name="Capa 1" xmlns="http://www.w3.org/2000/svg" viewBox="0 0 30 30"><defs><style>.cls-1{fill:#fac6c9;}</style></defs><title>instagram</title><path class="cls-1" d="M15,6.8c2.67,0,3,0,4,.06a5.53,5.53,0,0,1,1.86.34,3.31,3.31,0,0,1,1.9,1.9A5.53,5.53,0,0,1,23.14,11c0,1.05.06,1.37.06,4s0,3-.06,4a5.53,5.53,0,0,1-.34,1.86,3.31,3.31,0,0,1-1.9,1.9,5.53,5.53,0,0,1-1.86.34c-1.05,0-1.37.06-4,.06s-3,0-4-.06A5.53,5.53,0,0,1,9.1,22.8a3.31,3.31,0,0,1-1.9-1.9A5.53,5.53,0,0,1,6.86,19c0-1.05-.06-1.37-.06-4s0-3,.06-4A5.53,5.53,0,0,1,7.2,9.1,3.31,3.31,0,0,1,9.1,7.2,5.53,5.53,0,0,1,11,6.86c1.05,0,1.37-.06,4-.06M15,5c-2.72,0-3.06,0-4.12.06a7.34,7.34,0,0,0-2.43.46A5.11,5.11,0,0,0,5.52,8.45a7.34,7.34,0,0,0-.46,2.43C5,11.94,5,12.28,5,15s0,3.06.06,4.12a7.34,7.34,0,0,0,.46,2.43,5.11,5.11,0,0,0,2.92,2.92,7.34,7.34,0,0,0,2.43.46c1.07,0,1.41.06,4.12.06s3.06,0,4.12-.06a7.34,7.34,0,0,0,2.43-.46,5.11,5.11,0,0,0,2.92-2.92,7.34,7.34,0,0,0,.46-2.43c0-1.07.06-1.41.06-4.12s0-3.06-.06-4.12a7.34,7.34,0,0,0-.46-2.43,5.11,5.11,0,0,0-2.92-2.92,7.34,7.34,0,0,0-2.43-.46C18.06,5,17.72,5,15,5Z"/><path class="cls-1" d="M15,9.86A5.14,5.14,0,1,0,20.14,15,5.14,5.14,0,0,0,15,9.86Zm0,8.47A3.33,3.33,0,1,1,18.33,15,3.33,3.33,0,0,1,15,18.33Z"/><circle class="cls-1" cx="20.34" cy="9.66" r="1.2"/></svg>