<svg id="Capa_1" data-name="Capa 1" xmlns="http://www.w3.org/2000/svg" viewBox="0 0 56.09 35.38"><defs><style>.cls-1{fill:#fff;}.cls-2{fill:#ededed;}.cls-3{fill:#f90;}.cls-4{fill:#f7981d;}</style></defs><title>Mesa de trabajo 1</title><rect class="cls-1" x="0.58" y="0.5" width="55" height="34.38" rx="1.83" ry="1.83"/><path class="cls-2" d="M53.76,35.38H2.42A2.34,2.34,0,0,1,0,33.08S0,33,0,33V2.33A2.34,2.34,0,0,1,2.39,0H53.76A2.34,2.34,0,0,1,56,2.33V33A2.34,2.34,0,0,1,53.76,35.38ZM2.42,1A1.33,1.33,0,0,0,1,2.28s0,0,0,.05V33a1.33,1.33,0,0,0,1.33,1.33H53.76A1.33,1.33,0,0,0,55,33V2.33A1.33,1.33,0,0,0,53.76,1Z"/><path class="cls-3" d="M32,16.78A12.54,12.54,0,0,1,25,18.94a12.81,12.81,0,0,1-8.65-3.3c-.18-.16,0-.38.2-.26a17.41,17.41,0,0,0,8.65,2.3,17.22,17.22,0,0,0,6.6-1.35C32.11,16.2,32.38,16.55,32,16.78Z"/><path class="cls-3" d="M32.86,15.87c-.24-.31-1.62-.15-2.24-.07-.19,0-.22-.14,0-.26a3.44,3.44,0,0,1,3.1-.29,3.4,3.4,0,0,1-1.08,2.92c-.16.13-.31.06-.24-.11C32.59,17.48,33.1,16.19,32.86,15.87Z"/><path d="M30.67,10.1V9.35a.19.19,0,0,1,.19-.19h3.35a.19.19,0,0,1,.19.19V10a1,1,0,0,1-.25.47l-1.74,2.48a3.72,3.72,0,0,1,1.91.41.34.34,0,0,1,.18.29v.8c0,.11-.12.24-.25.17a3.86,3.86,0,0,0-3.54,0,.18.18,0,0,1-.24-.17v-.76a.9.9,0,0,1,.13-.51l2-2.89H30.86A.19.19,0,0,1,30.67,10.1Z"/><path d="M18.43,14.77h-1a.19.19,0,0,1-.18-.17V9.36a.19.19,0,0,1,.19-.19h1a.19.19,0,0,1,.19.18V10h0a1.4,1.4,0,0,1,2.67,0,1.51,1.51,0,0,1,2.59-.4A2.78,2.78,0,0,1,24,11.28v3.3a.19.19,0,0,1-.19.19h-1a.19.19,0,0,1-.18-.19V11.81a6.66,6.66,0,0,0,0-1,.53.53,0,0,0-.6-.45h0a.68.68,0,0,0-.61.43,3.17,3.17,0,0,0-.1,1v2.77a.19.19,0,0,1-.19.19h-1a.19.19,0,0,1-.18-.19V11.81c0-.58.1-1.44-.63-1.44s-.7.84-.7,1.44v2.77a.19.19,0,0,1-.19.19Z"/><path d="M37.29,9.07c1.51,0,2.33,1.3,2.33,3s-.9,2.86-2.33,2.86S35,13.63,35,12,35.81,9.07,37.29,9.07Zm0,1.07c-.75,0-.8,1-.8,1.66s0,2,.79,2,.83-1.1.83-1.77A4.85,4.85,0,0,0,38,10.64a.64.64,0,0,0-.66-.51Z"/><path d="M41.58,14.77h-1a.19.19,0,0,1-.18-.19V9.35a.19.19,0,0,1,.2-.17h1a.19.19,0,0,1,.18.15v.8h0a1.39,1.39,0,0,1,1.39-1.06,1.34,1.34,0,0,1,1.19.62,3.33,3.33,0,0,1,.27,1.63v3.29a.19.19,0,0,1-.2.16h-1a.19.19,0,0,1-.18-.16V11.77c0-.57.07-1.41-.64-1.41a.67.67,0,0,0-.59.42,2.34,2.34,0,0,0-.16,1V14.6a.19.19,0,0,1-.2.17Z"/><path class="cls-4" d="M17.3,21.46a2.78,2.78,0,0,0-1,.19.07.07,0,0,0,0,.07v4.57a.07.07,0,0,0,.07.07h.35a.07.07,0,0,0,.07-.07V24.78a1.55,1.55,0,0,0,.51.09,1.6,1.6,0,0,0,1.62-1.58s0-.1,0-.14a1.51,1.51,0,0,0-1.62-1.69Zm0,2.94a1.06,1.06,0,0,1-.51-.12V22a1.73,1.73,0,0,1,.53-.08,1.07,1.07,0,0,1,1.09,1.22c0,.79-.44,1.26-1.13,1.26Z"/><path class="cls-4" d="M21.67,24.71a5.91,5.91,0,0,1-.06-1.16v-1a1,1,0,0,0-.89-1.1H20.5a2,2,0,0,0-1.08.33.07.07,0,0,0,0,.1h0l.15.27h.06a1.48,1.48,0,0,1,.84-.26c.41,0,.63.24.63.68v.17h-.56a2,2,0,0,0-.79.14,1,1,0,0,0,.43,1.91,1.36,1.36,0,0,0,.91-.37l0,.25a.07.07,0,0,0,.07.06h.33a.07.07,0,0,0,.07-.09ZM21.11,24a1.2,1.2,0,0,1-.85.44.53.53,0,0,1-.55-.57.49.49,0,0,1,.26-.46,1.34,1.34,0,0,1,.61-.12h.53Z"/><path class="cls-4" d="M24.64,21.54h-.38a.07.07,0,0,0-.07,0L23.38,24l-1-2.43a.07.07,0,0,0-.07,0h-.46a.07.07,0,0,0,0,.07l1.36,3.13c-.22.77-.53,1.13-1,1.13a1,1,0,0,1-.39-.07h-.06l-.08.31a.07.07,0,0,0,0,.09,1.29,1.29,0,0,0,.51.09c.48,0,1-.16,1.37-1.31l1.15-3.41a.07.07,0,0,0,0-.07Z"/><path class="cls-4" d="M28.54,21.46A1.8,1.8,0,0,0,27.4,22a.87.87,0,0,0-.82-.51,1.66,1.66,0,0,0-1,.43V21.6a.07.07,0,0,0-.07-.06h-.37a.07.07,0,0,0-.07.07v3.11a.07.07,0,0,0,.07.07h.35a.07.07,0,0,0,.07-.07v-2.3a1.55,1.55,0,0,1,1-.49c.36,0,.51.24.51.81v2a.07.07,0,0,0,.07.07h.35a.07.07,0,0,0,.07-.07V22.43a1.6,1.6,0,0,1,1-.49c.36,0,.51.24.51.81v2a.07.07,0,0,0,.07.07h.35a.07.07,0,0,0,.07-.07V22.62C29.5,21.77,29,21.46,28.54,21.46Z"/><path class="cls-4" d="M31.27,21.46c-.76,0-1.3.68-1.3,1.65a1.58,1.58,0,0,0,1.48,1.75,1.87,1.87,0,0,0,1-.28.07.07,0,0,0,0-.09l-.12-.26h-.06a1.5,1.5,0,0,1-.72.2,1.06,1.06,0,0,1-1-1.12h2a.07.07,0,0,0,.07-.07v-.09C32.52,22.09,32,21.46,31.27,21.46Zm-.77,1.36a.83.83,0,0,1,.78-.91c.43,0,.68.44.71.91Z"/><path class="cls-4" d="M34.59,21.46a1.66,1.66,0,0,0-1,.43V21.6a.07.07,0,0,0-.07-.06h-.37a.07.07,0,0,0-.07.07v3.11a.07.07,0,0,0,.07.07h.35a.07.07,0,0,0,.07-.07v-2.3a1.55,1.55,0,0,1,1-.49c.23,0,.53.08.53.81v2a.07.07,0,0,0,.07.07h.35a.07.07,0,0,0,.07-.07V22.62C35.55,21.77,35,21.46,34.59,21.46Z"/><path class="cls-4" d="M37.79,24.23h-.06a.93.93,0,0,1-.5.2c-.11,0-.26,0-.26-.32V22h.73a.07.07,0,0,0,.07,0l.12-.3a.07.07,0,0,0,0-.09H37v-.75a.07.07,0,0,0-.06-.08h0l-.35.12a.07.07,0,0,0,0,.07v.62h-.43a.07.07,0,0,0-.07.07V22a.07.07,0,0,0,.07.07h.43v2.13c0,.48.24.75.68.75a1.37,1.37,0,0,0,.77-.29.07.07,0,0,0,0-.09Z"/><path class="cls-4" d="M40,23.3a2,2,0,0,0-.61-.38h0c-.36-.16-.59-.29-.59-.57s.2-.41.59-.41a1.56,1.56,0,0,1,.67.15.07.07,0,0,0,.1-.07V21.7a.07.07,0,0,0,0-.07,2,2,0,0,0-.75-.15c-.74,0-1.07.45-1.07.89s.45.8.81,1h.06c.32.14.59.26.59.57s-.45.49-.65.49a1.3,1.3,0,0,1-.71-.21h-.06l-.12.28a.07.07,0,0,0,0,.09,1.63,1.63,0,0,0,.88.26c.71,0,1.17-.38,1.17-1A.84.84,0,0,0,40,23.3Z"/><path d="M16.41,13.81a1.39,1.39,0,0,1-.38-.95V11.27c0-.68.05-1.3-.45-1.76A2.31,2.31,0,0,0,14,9a2.07,2.07,0,0,0-2.29,1.57h0a.18.18,0,0,0,.15.21l1,.11a.22.22,0,0,0,.18-.19.78.78,0,0,1,.82-.61.68.68,0,0,1,.57.27,1.3,1.3,0,0,1,.12.74v.11a7.09,7.09,0,0,0-1.92.35,1.73,1.73,0,0,0-1.09,1.67,1.45,1.45,0,0,0,1.53,1.59,2,2,0,0,0,1.68-.74,2.5,2.5,0,0,0,.58.68.21.21,0,0,0,.24,0h0l.78-.68h0A.19.19,0,0,0,16.41,13.81Zm-2-.46a.83.83,0,0,1-.71.46c-.39,0-.62-.3-.62-.74,0-.87.78-1,1.52-1v.2A2,2,0,0,1,14.42,13.35Z"/><path d="M29.82,13.81a1.39,1.39,0,0,1-.39-.95V11.27c0-.68.05-1.3-.45-1.76A2.32,2.32,0,0,0,27.43,9a2.07,2.07,0,0,0-2.31,1.57h0a.18.18,0,0,0,.15.21l1,.11a.22.22,0,0,0,.18-.19.78.78,0,0,1,.82-.61.68.68,0,0,1,.57.27,1.31,1.31,0,0,1,.12.74v.14a7.08,7.08,0,0,0-1.92.35A1.73,1.73,0,0,0,25,13.23a1.45,1.45,0,0,0,1.53,1.59,2,2,0,0,0,1.68-.74,2.48,2.48,0,0,0,.58.68.21.21,0,0,0,.24,0h0l.78-.68h0A.19.19,0,0,0,29.82,13.81Zm-2-.46a.83.83,0,0,1-.71.46c-.39,0-.62-.3-.62-.74,0-.87.78-1,1.52-1v.2A2,2,0,0,1,27.8,13.35Z"/></svg>