<svg id="Capa_1" data-name="Capa 1" xmlns="http://www.w3.org/2000/svg" viewBox="0 0 100 100"><defs><style>.cls-1{fill:#d3f3f3;}.cls-2{fill:#56d3ce;}</style></defs><title>ingredientes</title><path class="cls-1" d="M23.55,55.51c0,15.43,12.29,22.89,16.79,17.4,4.79-5.83-1.68-9.57-3.22-19.07-1.66-10.22,5.7-33.48,5.7-33.48S23.55,37.62,23.55,55.51Z"/><path class="cls-1" d="M65.6,59.84l.3,2.51c4.64-1.62,9.94-.28,9.94-.28C69.72,57.86,65.6,59.84,65.6,59.84Z"/><path class="cls-1" d="M55.36,62.4c-1.5-4.67,0-9.94,0-9.94-4.85,6.38-2,11.58-2,11.58Z"/><path class="cls-1" d="M45.5,72.91C51.63,78.07,57,75.45,57,75.45l-1.53-2.08C50.69,74.63,45.5,72.91,45.5,72.91Z"/><path class="cls-1" d="M66.51,72.92c1.43,4.7-.12,9.94-.12,9.94,4.94-6.3,1.83-11.92,1.83-11.92Z"/><path class="cls-2" d="M79.62,35.33a.88.88,0,0,0-1-.52c-.29.08-7.1,1.92-9.74,7.23s0,11.86.12,12.13a.88.88,0,0,0,.14.23l0,0a.88.88,0,0,0,.22.17l0,0,.09,0,.07,0a.88.88,0,0,0,.23,0h0a.88.88,0,0,0,.22,0h0c.39-.1,7.1-2,9.72-7.23S79.73,35.6,79.62,35.33ZM78.15,46.67c-1.46,2.94-4.55,4.69-6.6,5.58l2.35-4.72a.89.89,0,0,0-1.59-.79L70,51.46c-.53-2.17-1-5.69.46-8.63,1.8-3.62,6.07-5.44,7.83-6.06C78.82,38.54,79.95,43,78.15,46.67Z"/><path class="cls-2" d="M76.65,40a.88.88,0,0,0-1.19.4l-.93,1.87a.89.89,0,0,0,1.59.79L77,41.19A.89.89,0,0,0,76.65,40Z"/><path class="cls-2" d="M66.66,57.41c0-.12,0-.24,0-.36,0-11.27-6.35-22.27-11.67-29.51A95.46,95.46,0,0,0,43.38,14.43a.89.89,0,0,0-1.18,0A95.5,95.5,0,0,0,30.58,27.54C25.25,34.78,18.91,45.78,18.91,57A23.88,23.88,0,0,0,54.21,78a10.08,10.08,0,0,0,1.5-.25c2.55,5.85,10.15,7.58,10.48,7.65l.19,0a.89.89,0,0,0,.67-.3c.23-.26,5.3-6.14,3.76-12.45,5.86-2.55,7.59-10.15,7.67-10.49a.89.89,0,0,0-.28-.85C78,61.13,72.61,56.52,66.66,57.41Zm.66,8.06a7,7,0,1,1-3.49-4A6.9,6.9,0,0,1,67.31,65.47ZM55.15,76.08c-4.5,1-8.95-2-10.31-3.08.47-1.65,2.24-6.78,6.37-8.68a7.89,7.89,0,0,0,1,1.58A8.59,8.59,0,0,0,52,68.24l-1.8,0a.89.89,0,0,0,0,1.77h0l2.08,0c0,.14.07.29.12.43s.11.28.16.42L51,72.08a.89.89,0,0,0,1,1.43l1.46-1.06A8.58,8.58,0,0,0,55,74.21,7.94,7.94,0,0,0,55.15,76.08Zm9.46-16.2A8.64,8.64,0,0,0,60.16,59l0-1.8a.91.91,0,0,0-.9-.87.89.89,0,0,0-.87.9l0,2.08-.43.12-.42.16-1.23-1.68a.89.89,0,1,0-1.43,1L56,60.39a8.65,8.65,0,0,0-3,3.39h0a6.28,6.28,0,0,1-.39-.9c-1.6-4.76,1.76-9.67,2.86-11.11,1.75.5,7.41,2.44,9,7.14a6.32,6.32,0,0,1,.23,1ZM20.68,57c0-18.8,18.53-37.35,22.11-40.75C46.29,19.63,64.17,37.53,64.86,56c-3.09-4.55-9.29-6-9.6-6a.88.88,0,0,0-.85.28c-.23.26-5.3,6.14-3.76,12.45C44.79,65.2,43.05,72.8,43,73.14a.89.89,0,0,0,.28.85,18.59,18.59,0,0,0,7.3,3.74A22.09,22.09,0,0,1,20.68,57ZM66.06,83.55c-1.75-.5-7.42-2.46-9-7.14a6.34,6.34,0,0,1-.23-1h0a8.67,8.67,0,0,0,3.88.92l.58,0,0,1.8a.89.89,0,0,0,.89.87h0a.89.89,0,0,0,.87-.9l0-2.07.43-.12.42-.16,1.22,1.68a.89.89,0,0,0,1.43-1l-1.06-1.46a8.71,8.71,0,0,0,3-3.4,6.28,6.28,0,0,1,.39.9C70.52,77.21,67.16,82.12,66.06,83.55ZM70.25,71a7.91,7.91,0,0,0-1-1.59,8.64,8.64,0,0,0,.16-2.33l1.8,0a.89.89,0,0,0,0-1.77h0l-2.08,0c0-.14-.07-.29-.12-.43s-.11-.28-.16-.42l1.68-1.23a.89.89,0,0,0-1-1.43L68,62.89a8.59,8.59,0,0,0-1.54-1.77,7.92,7.92,0,0,0-.16-1.86c4.5-1,8.95,2,10.31,3.08C76.14,64,74.37,69.13,70.25,71Z"/></svg>